<?xml version="1.0" encoding="UTF-8"?><svg version="1.1" width="600px" height="394px" viewBox="0 0 600.0 394.0" xmlns="http://www.w3.org/2000/svg" xmlns:xlink="http://www.w3.org/1999/xlink"><defs><clipPath id="i0"><path d="M600,0 L600,394 L0,394 L0,0 L600,0 Z"></path></clipPath><clipPath id="i1"><path d="M14.9009397,1.04148962 C17.7820148,-0.66957273 22.7419431,-0.469901021 29.4004626,3.13409082 C34.5965905,5.94651764 39.1976738,7.65844851 44.832458,7.33979018 C50.877051,6.99802933 58.0994073,4.15546502 67.4870719,6.79384135 C82.1477035,10.9145999 82.5262172,22.7249339 78.1964749,29.0262743 C77.178072,30.5093513 75.906161,31.7818134 74.4445561,32.8674577 C75.4341116,37.1908409 75.4489724,42.7502085 74.0328241,46.9492203 L68.0369221,46.9492203 C68.4600182,44.2559538 68.4897399,40.2668622 67.2143322,37.4791012 C66.268485,37.7794339 65.5079609,37.9739813 64.5140346,38.197103 C66.1050161,42.1491958 64.4991738,46.9492203 64.4991738,46.9492203 L59.1606444,46.9492203 C60.214014,44.51095 59.353835,41.0389725 58.7017074,39.0812517 C52.9208502,39.5882911 46.939809,39.1094785 42.0006859,38.0898413 C41.1919952,37.9229126 40.4090051,37.7469514 39.6489181,37.5632604 C38.7594546,41.1029821 37.3919099,44.4431189 35.8298633,46.9492203 L28.8858413,46.9492203 C30.7266593,43.2720126 31.6661251,39.1615026 31.6550232,35.0558562 C30.96688,34.7843582 30.3007658,34.5060859 29.6555441,34.2216471 C28.9154755,38.9446342 27.202548,43.6637131 25.1545528,46.9492203 L19.1255199,46.9492203 C22.4084489,42.8550383 23.574411,35.8611437 22.5921985,30.5063115 C18.1114004,27.7869896 14.399868,24.943991 9.91041563,22.6484177 C7.47464055,21.4029665 4.68386681,20.233163 1.96486206,20.5638069 C0.595044537,17.8775753 0.336728597,15.9859486 0,12.9931311 C8.88624319,14.0180663 11.9002788,7.24355866 20.5004076,5.72634897 C18.866155,4.60830899 18.3355365,1.86301841 14.9009397,1.04148962 Z"></path></clipPath><clipPath id="i2"><path d="M12.4292681,0.000939336519 C12.7175276,0.0184558822 12.9374432,0.277516374 12.9202692,0.579907269 C12.5885903,6.42398007 10.6430812,13.1263636 7.96375679,17.6557736 C7.86828682,17.8171102 7.70015749,17.9148341 7.51908159,17.9148341 L0.522999337,17.9148341 C0.341923438,17.9148341 0.173794113,17.8171102 0.0785002789,17.6557736 C-0.016969699,17.494437 -0.0259530364,17.2934577 0.0548089283,17.1238237 C1.84099585,13.3642199 2.78724072,9.11876235 2.79155625,4.84749096 C2.79182046,4.54510007 3.02591567,4.30079035 3.3145274,4.30079035 C3.60384371,4.30079035 3.83776277,4.54602199 3.83749855,4.84841288 C3.83335917,8.99153691 2.9762431,13.1106909 1.35228468,16.819589 L7.2256259,16.819589 C9.74219338,12.4395306 11.5603504,6.08010262 11.8761764,0.514450703 C11.8933504,0.212981732 12.1395995,-0.0165772092 12.4292681,0.000939336519 Z"></path></clipPath><clipPath id="i3"><path d="M3.7369328,0.392006016 L11.0753232,3.79264908 C10.2874971,8.57842118 8.49244678,13.3500185 6.34974761,16.6793283 L0,16.6793283 C3.43791215,12.5269932 4.67208404,5.45021658 3.66909497,0 Z"></path></clipPath><clipPath id="i4"><path d="M31.0050901,3.0099061 C39.5620876,7.76425944 45.5858577,7.54286261 51.6703029,6.85006341 L52.3727711,6.76828929 C52.7242875,6.72661251 53.0763378,6.68394333 53.4294203,6.64114669 L54.3016903,6.53598368 C59.2568719,5.94430524 64.4469037,5.47035277 71.1693328,7.43747139 C76.5539582,9.01419427 80.4081974,12.1030493 82.3146725,16.3704648 C84.6439112,21.5828523 83.6161739,27.1951718 82.0283422,30.4167476 C80.9611111,32.5818659 79.4271347,34.4258 77.4703947,35.8981159 C77.237022,36.0741921 76.902222,36.0299518 76.7236021,35.7990177 C76.5449823,35.5680835 76.5898617,35.238936 76.8241319,35.0628597 C78.6471314,33.6905268 80.0751926,31.9731199 81.0688216,29.9575337 C82.6755026,26.6987961 83.3819037,21.3651902 81.3398929,16.7942865 C79.5375379,12.7613443 76.0136107,9.9520878 70.8650508,8.44526452 C63.9608104,6.42436942 58.6731244,7.06496839 53.5595704,7.68433204 C53.3220812,7.71310346 53.0850455,7.74182018 52.8483173,7.77023107 L52.1389093,7.85429511 C45.7599113,8.59809384 39.498654,8.93587376 30.4816173,3.92479469 C23.8460247,0.23781137 19.4730698,0.832400473 17.2278453,1.69950958 C18.8671087,2.42770427 19.7563483,3.61599767 20.4982939,4.60786432 C20.9686295,5.23696082 21.374698,5.77934642 21.8849763,6.12619006 C22.0630576,6.24652357 22.1494054,6.46153124 22.1036285,6.67034527 C22.057672,6.87827449 21.8887461,7.03842423 21.6758385,7.07558605 C17.9583017,7.72680269 15.2723619,9.35926831 12.6749242,10.9386456 C9.305023,12.9878545 6.11436993,14.9273475 1.13689012,14.5468813 C1.43749205,17.1004291 1.73944037,18.8302233 2.8642966,21.1156752 C5.70892981,20.9006675 8.5403685,22.106657 10.9529033,23.3312274 C13.9292125,24.8407051 16.4852715,26.5368767 19.1915865,28.3330313 C23.2158287,31.0042582 27.3771326,33.7657353 33.2336195,36.0511872 C33.5073836,36.1582486 33.6413036,36.4635064 33.5330546,36.733372 C33.4502073,36.9395316 33.2495068,37.0651739 33.0373172,37.0651739 C32.9719728,37.0651739 32.9056411,37.0536715 32.8411944,37.0280121 C26.8774458,34.7009744 22.6675825,31.9067595 18.5962169,29.2045644 C15.9167397,27.4269907 13.3858132,25.7467457 10.4650646,24.2655817 C8.08977975,23.060477 5.30025838,21.8721836 2.61521616,22.1960223 C2.39252479,22.2225665 2.17647556,22.1093114 2.07504821,21.9119999 C0.637921415,19.1160154 0.351591112,17.0915811 0.00332729562,14.0204222 C-0.0148039649,13.8611572 0.0418337846,13.7027771 0.156904458,13.589522 C0.271885373,13.476267 0.433002267,13.421409 0.594388438,13.4399899 C5.59080734,14.0115741 8.75991832,12.0844684 12.1152786,10.0441075 C14.5546512,8.56117401 17.0696007,7.0322306 20.4516193,6.2518324 C20.1684306,5.93772655 19.9083098,5.5899981 19.6403801,5.23165199 C18.7450369,4.03539534 17.8191757,2.79755285 15.7084995,2.2967531 C15.4979256,2.2463192 15.3389629,2.0764366 15.3062907,1.86496816 C15.2737083,1.65349971 15.3737893,1.44468568 15.5597693,1.33496983 C17.3739725,0.266125137 22.5108638,-1.71052971 31.0050901,3.0099061 Z"></path></clipPath><clipPath id="i5"><path d="M29.5157468,0.438638076 C29.5922411,0.754818007 29.4239536,1.07997465 29.1386749,1.16475476 C25.1996684,2.33571766 19.7811722,3.08876449 14.1565913,3.08876449 C9.46884067,3.08876449 4.63845063,2.56612007 0.398056625,1.32533826 C0.11268789,1.24155556 -0.0574894279,0.91739633 0.0178349589,0.6012164 C0.0930693525,0.28503647 0.385277577,0.0955279945 0.670916291,0.179310689 C9.81981452,2.85736467 21.7772235,2.12626092 28.8614955,0.0207220174 C29.1467743,-0.0650555031 29.4401524,0.123455559 29.5157468,0.438638076 Z"></path></clipPath><clipPath id="i6"><path d="M0.886560915,0.175775772 C2.46969187,2.00869526 3.67658226,4.49655372 4.37580559,7.37009847 C5.0269251,10.0417037 5.19528846,12.8724955 4.8697287,15.598679 L9.80208786,15.598679 C10.7779081,12.2257432 10.9445535,7.47470678 10.2427532,2.7818871 C10.1989443,2.48716457 10.3887826,2.21063478 10.6670976,2.16424327 C10.9454125,2.11785176 11.2065475,2.31888164 11.2503563,2.61360417 C12.0028375,7.64298971 11.7812163,12.763339 10.6585076,16.3109251 C10.5880699,16.5310574 10.3939366,16.6793283 10.1748924,16.6793283 L4.28303394,16.6793283 C4.13356851,16.6793283 3.99183405,16.6101958 3.89562642,16.4901237 C3.79855979,16.3700515 3.75560995,16.2117746 3.77880287,16.055317 C4.60515771,10.4746911 3.1405683,4.38557795 0.134079789,0.90439538 C-0.0566174823,0.684263114 -0.0420145381,0.343149065 0.165862668,0.141209549 C0.373739874,-0.0598203307 0.69672264,-0.0443564939 0.886560915,0.175775772 Z"></path></clipPath><clipPath id="i7"><path d="M7.73828386,0.727325952 C7.76686507,0.74422744 7.79544628,0.761128927 7.8240275,0.778030415 C8.84188741,0.19804253 10.0736454,-0.0287932231 11.2417872,0.178472386 C11.539585,0.230955952 11.7359656,0.506717063 11.6815691,0.79404235 C11.6262506,1.08047808 11.3413604,1.26995265 11.0435627,1.21746909 C10.2608063,1.07869898 9.4402489,1.19078253 8.72203072,1.51368989 C8.88614219,1.70049581 9.02075047,1.89975545 9.12401163,2.10968972 C9.47159604,2.81688353 9.43102915,3.61836986 9.01706258,4.20191595 C8.68054186,4.6769367 8.12182528,4.94202319 7.57140647,4.94202319 C7.30126792,4.94202319 7.03205135,4.87797545 6.79325994,4.74276355 C6.1967424,4.4047338 5.8814271,3.68953402 6.00773761,2.96277006 C6.09809112,2.44682991 6.39127903,1.94779126 6.88176949,1.47899737 C5.8777392,0.999528855 4.68286017,0.92035873 3.62166745,1.27528997 C2.45536963,1.66491373 1.49743806,2.56247167 1.05950014,3.67530118 C0.951629121,3.94839364 0.636313822,4.08538464 0.353267631,3.98130706 C0.0702214414,3.87811903 -0.0717626409,3.57300271 0.0361083826,3.29991025 C0.58744917,1.89797635 1.79431387,0.767355791 3.26394132,0.277212655 C4.73264679,-0.213820033 6.40510865,-0.0456947105 7.73828386,0.727325952 Z M7.79544628,2.09901509 C7.75026953,2.13815538 7.70509278,2.17818522 7.66175997,2.21910461 C7.33261505,2.53311645 7.1390004,2.84179099 7.08736982,3.13712224 C7.03850517,3.42088932 7.15006409,3.71977878 7.34736665,3.83097278 C7.57048449,3.95728916 7.94204024,3.84698471 8.11352751,3.60591613 C8.30253229,3.33905054 8.31083006,2.92096111 8.13473292,2.56336122 C8.05452114,2.40057321 7.94111826,2.24579117 7.79544628,2.09901509 Z"></path></clipPath><clipPath id="i8"><path d="M5.94467473,0 C7.81029074,4.55862388 5.92299203,8.64854058 5.92299203,8.64854058 L0.406550703,8.64854058 C1.49791348,5.44670064 0.673067276,2.53237979 0,0.888927403 Z"></path></clipPath><clipPath id="i9"><path d="M15.128435,1.06889724 C18.0534959,-0.687193065 23.0891483,-0.482266838 29.8493246,3.21656689 C35.1247827,6.10300495 39.7961116,7.85998662 45.516923,7.53294255 C51.6537998,7.182188 58.9864212,4.26481936 68.5174089,6.97262664 C83.4018669,11.2018262 83.7861595,23.3229585 79.3903142,29.7901236 C78.3563631,31.312229 77.0650337,32.6181769 75.5811142,33.7323908 C76.5857774,38.1695473 76.6008651,43.875214 75.1630962,48.1847261 L69.0756537,48.1847261 C69.5052094,45.4205842 69.5353848,41.3265165 68.2405052,38.4653934 C67.2802176,38.7736295 66.5080825,38.9732966 65.4989817,39.2022899 C67.0153588,43.0100528 65.6713638,47.5847628 65.5011089,48.1306582 L65.483894,48.1847261 L60.0638603,48.1847261 C61.1333119,45.6822907 60.2600004,42.1189454 59.5979167,40.1097057 C53.7288021,40.6300882 47.6564473,40.1386753 42.6419177,39.0922056 C41.8208807,38.920884 41.0259365,38.7402922 40.2542451,38.5517672 C39.351202,42.1846395 37.9627787,45.6126747 36.3768841,48.1847261 L29.3268465,48.1847261 C31.1957686,44.4107498 32.1495774,40.1920684 32.138306,35.9783787 C31.4396568,35.6997361 30.7633729,35.4141408 30.1083005,35.1222167 C29.3569332,39.969493 27.6178541,44.8127582 25.5385918,48.1847261 L19.4175126,48.1847261 C22.7505626,43.9828025 23.9343257,36.804858 22.9371176,31.3091092 C18.3879103,28.5182261 14.6197133,25.6004118 10.0617197,23.2444287 C7.5887572,21.9662025 4.75537622,20.7656147 1.99485996,21.1049597 C0.604129187,18.3480379 0.341869491,16.4066315 0,13.3350556 C9.02191102,14.3869627 12.0819625,7.43417863 20.8133909,5.87704236 C19.1541879,4.72958028 18.6154683,1.91204521 15.128435,1.06889724 Z"></path></clipPath><clipPath id="i10"><path d="M12.4292687,0.000947847163 C12.7175278,0.018924976 12.9374432,0.278072202 12.9202692,0.579903586 C12.5885906,6.42412989 10.6430837,13.126741 7.96367423,17.6556868 C7.86838051,17.8168357 7.7001633,17.9148341 7.5190876,17.9148341 L0.523013121,17.9148341 C0.341937423,17.9148341 0.173808286,17.8168357 0.0785145577,17.6556868 C-0.016955314,17.4946302 -0.0259386415,17.2932864 0.0547351616,17.123656 C1.84100817,13.3645001 2.78734006,9.11950074 2.79156751,4.84758178 C2.7918053,4.57560165 2.98144599,4.35021824 3.22976946,4.30786136 L3.3148023,4.3007083 C3.60385407,4.30098487 3.83777287,4.54639573 3.83750865,4.84868807 C3.83336927,8.99154045 2.97616608,13.1111609 1.35229754,16.8199808 L7.22563224,16.8199808 C9.74210885,12.4397381 11.5603519,6.08053625 11.8761775,0.515001541 C11.8934396,0.213170158 12.137927,-0.0166605201 12.4292687,0.000947847163 Z"></path></clipPath><clipPath id="i11"><path d="M4.56742249,0.438966311 C5.56292557,6.12814468 4.33126139,12.690557 1.5600391,16.8518445 L6.33067028,16.8518445 C8.33060987,13.485472 9.93712452,8.81300795 10.6465808,4.28008587 C10.6918671,3.99026099 10.9607546,3.79244968 11.2475091,3.83827746 C11.5339981,3.88428425 11.7293839,4.15647619 11.6840975,4.44639058 C10.9360771,9.22563696 9.21192418,14.1665337 7.07205693,17.6632288 C6.97626574,17.8196877 6.80741498,17.9148341 6.62547363,17.9148341 L0.525175836,17.9148341 C0.323510175,17.9148341 0.139622935,17.7979374 0.0521460316,17.6140893 C-0.0355077711,17.4302411 -0.0112725118,17.2118431 0.114414727,17.052162 C3.09791666,13.2625091 4.53558055,6.35361376 3.53291303,0.624246581 C3.48240817,0.335227261 3.67292915,0.0594550339 3.95853372,0.00825681444 C4.24404984,-0.0430309124 4.51682918,0.149946992 4.56742249,0.438966311 Z"></path></clipPath><clipPath id="i12"><path d="M0.886564838,0.175631889 C2.4697028,2.00872908 3.67659853,4.49639988 4.37582495,7.36966511 C5.02608834,10.0414461 5.19531144,12.8727772 4.86975025,15.5990453 L9.80213123,15.5990453 C10.7770968,12.2255716 10.9446019,7.47436414 10.2427985,2.7820101 C10.1989895,2.48737921 10.3888286,2.21066813 10.6671448,2.16400384 C10.9446019,2.11743051 11.2065971,2.31845992 11.2504061,2.61309082 C12.0028906,7.64255572 11.7812684,12.7632571 10.6576957,16.310835 C10.5881167,16.5309667 10.3939826,16.6793283 10.1740785,16.6793283 L4.28305289,16.6793283 C4.1335868,16.6793283 3.99185172,16.6102869 3.89478466,16.490306 C3.7985766,16.3704161 3.75562657,16.2115028 3.77881959,16.0555913 C4.60517809,10.4743416 3.1397232,4.38569726 0.134080383,0.904704635 C-0.0566177328,0.684572877 -0.042014724,0.34282287 0.165863402,0.141520563 C0.373741528,-0.0596907801 0.696725723,-0.044590833 0.886564838,0.175631889 Z"></path></clipPath><clipPath id="i13"><path d="M30.5490917,3.00969787 C38.980159,7.76463949 44.9155499,7.54286015 50.9105481,6.85026549 L51.6026886,6.76851767 L52.2962304,6.68412922 C52.411986,6.66992988 52.5278363,6.65568461 52.6437995,6.64142545 C57.7891581,6.00879737 63.1096252,5.3545803 70.121923,7.43809443 C75.4282399,9.01444435 79.2257941,12.1033505 81.1042303,16.3708914 C83.3992123,21.5833044 82.3865902,27.1948482 80.8212267,30.4164735 C79.7696916,32.5814772 78.25916,34.4256544 76.3311982,35.8976871 C76.1003734,36.0736727 75.7713818,36.029433 75.5953889,35.798767 C75.4193961,35.5681011 75.4636154,35.2383382 75.6944402,35.0623526 C77.4906284,33.6908326 78.8976868,31.973181 79.8767023,29.9571767 C81.4597535,26.6989209 82.1557654,21.3652025 80.1429025,16.794531 C78.3670551,12.7613722 74.8958395,9.95232654 69.8230005,8.44534451 C63.0203022,6.42429687 57.8103834,7.06488811 52.7720354,7.68433275 C45.9852561,8.51887094 39.5759328,9.30686894 30.0333177,3.92510628 C23.49567,0.237902081 19.1869406,0.832837915 16.9744718,1.69975958 C18.5895378,2.42812243 19.4657876,3.61666691 20.1968212,4.6083446 C20.6602395,5.23690263 21.0603358,5.77972407 21.5631093,6.12603264 C21.7385715,6.24689557 21.8236495,6.46190064 21.7785458,6.67018127 C21.7332652,6.8784619 21.5668238,7.03878667 21.3570474,7.076125 C17.6941852,7.72680288 15.0478365,9.35977965 12.4885999,10.9389609 C9.45223691,12.8125133 6.56250515,14.5951088 2.3396497,14.5952858 C1.94512504,14.5952858 1.53919179,14.5798019 1.12016963,14.5473299 C1.41635056,17.1008469 1.71385806,18.8300008 2.82217079,21.1158675 C5.6252327,20.9011278 8.41467507,22.1070143 10.7917282,23.3308621 C13.7243527,24.8408524 16.2429075,26.5372689 18.9093318,28.3333133 C22.8743887,31.0039771 26.9744913,33.7656862 32.7448457,36.0511989 C33.014495,36.1579936 33.1465339,36.4633362 33.0398769,36.7331101 C32.9582481,36.9394441 32.7604993,37.0651739 32.5514304,37.0651739 C32.4870471,37.0651739 32.421691,37.0533172 32.358192,37.028189 C26.4821536,34.7008255 22.3341172,31.9069099 18.3227185,29.2049244 C15.6826489,27.4266644 13.1889453,25.7469704 10.3111527,24.2652051 C7.97080166,23.0602034 5.22159886,21.8721013 2.57675363,22.1959361 C2.35804493,22.2229224 2.14455412,22.1092263 2.04453004,21.9118286 C0.628539371,19.1157894 0.346420188,17.0914681 0.00327836038,14.0201693 C-0.0145862399,13.8609948 0.0412185264,13.7024396 0.154596831,13.5894514 C0.267975136,13.4765516 0.426280258,13.4212519 0.585646643,13.4399211 C5.07517313,13.9610651 8.06613459,12.4051831 11.0650362,10.5802591 L11.6459725,10.224174 C11.7429466,10.1644284 11.8400301,10.1045242 11.9372736,10.0445221 C14.3407698,8.56142955 16.8186429,7.03241615 20.1508331,6.25176194 C19.8717208,5.93774837 19.6155141,5.59020108 19.3515249,5.23203626 C18.4693497,4.03535167 17.5571054,2.79778958 15.4774713,2.2969074 C15.2699943,2.24691651 15.1133696,2.07632813 15.0811779,1.86530464 C15.0490747,1.65419267 15.1476837,1.44467332 15.3309285,1.33513576 C17.1184498,0.266215506 22.1797034,-1.71059241 30.5490917,3.00969787 Z"></path></clipPath><clipPath id="i14"><path d="M28.9008942,0.438903426 C28.9757946,0.754740617 28.8101326,1.07955329 28.5316795,1.16432172 C24.6747513,2.33502358 19.369162,3.08876449 13.8609011,3.08876449 C9.27171173,3.08876449 4.54153344,2.56569343 0.389762195,1.32478337 C0.110339778,1.24121167 -0.0562915029,0.917196817 0.0174633263,0.600960715 C0.0912181555,0.284724614 0.377513783,0.0960400656 0.6569362,0.179611763 C9.61449104,2.85699764 21.3236209,2.12609433 28.2602758,0.0203468455 C28.5396101,-0.0643218552 28.8259939,0.122966508 28.9008942,0.438903426 Z"></path></clipPath><clipPath id="i15"><path d="M7.11738532,0.331144956 C9.07724951,5.13806217 7.16896069,9.39431917 7.08699269,9.57311399 C7.00041974,9.76191924 6.80332813,9.88404638 6.58505378,9.88404638 L0.961496096,9.88404638 C0.786508222,9.88404638 0.622572213,9.80518167 0.519421466,9.6717384 C0.416270719,9.53838219 0.387720066,9.36646408 0.441137417,9.20925695 C1.45238313,6.2299815 0.779140311,3.4335921 0.0368233288,1.61221773 C-0.071853351,1.34585348 0.0681369484,1.0467595 0.349959525,0.944043874 C0.631782101,0.841502342 0.948602253,0.974162185 1.05727893,1.24052644 C1.80696383,3.08026776 2.48941654,5.84279582 1.68631429,8.85027454 L6.20652738,8.85027454 C6.5832118,7.82355351 7.60366741,4.397291 6.09692971,0.702836247 C5.98825303,0.436471996 6.12916432,0.137290973 6.4109869,0.0346623938 C6.69280947,-0.0678791381 7.00870864,0.0647807045 7.11738532,0.331144956 Z"></path></clipPath><clipPath id="i16"><path d="M7.73750618,0.727410696 C7.76700828,0.744223955 7.79558845,0.761304091 7.82324668,0.778384227 C8.84199139,0.198104401 10.0727825,-0.02909699 11.2418036,0.178533412 C11.5395905,0.231286124 11.7359639,0.506703315 11.6815694,0.793596223 C11.6262529,1.08057809 11.3413732,1.27006085 11.0435863,1.21757501 C10.2608584,1.07844307 9.44033104,1.19062042 8.72121713,1.51336383 C8.88624455,1.70071157 9.01992598,1.8998019 9.1241053,2.11001211 C9.47167703,2.81688066 9.43111163,3.61866849 9.01716016,4.2022398 C8.68065173,4.67665837 8.12103359,4.94193423 7.57155681,4.94202319 C7.30050618,4.94202319 7.03222138,4.87779476 6.79343868,4.74266598 C6.19694292,4.4048885 5.88163912,3.68947989 6.00794503,2.96250661 C6.0973733,2.44698896 6.39147245,1.94783978 6.88102307,1.4786698 C5.87795136,0.999536403 4.68311594,0.920718693 3.62196195,1.27530943 C2.4557067,1.66486107 1.4978101,2.56210196 1.05988817,3.67542436 C0.95202108,3.94817278 0.636717289,4.08534762 0.353681429,3.98171034 C0.07064557,3.87816202 -0.0713333301,3.57312146 0.0356118154,3.30037304 C0.58785442,1.89793376 1.79467507,0.767709142 3.26332694,0.276922112 C4.73290075,-0.213864919 6.40530156,-0.0453764945 7.73750618,0.727410696 Z M7.79558845,2.09915911 C7.74949141,2.13821213 7.70523824,2.17833266 7.66190702,2.21952069 C7.33277412,2.53283444 7.13916652,2.84170023 7.08753783,3.137578 C7.03867497,3.42126838 7.15022982,3.71954805 7.34752517,3.83145852 C7.56971293,3.9572466 7.94217706,3.84738219 8.11365807,3.60559151 C8.30173401,3.33942606 8.31095342,2.9206069 8.13486271,2.56334739 C8.05465385,2.40099714 7.94125512,2.24603049 7.79558845,2.09915911 Z"></path></clipPath><clipPath id="i17"><path d="M9.54390733,0.667472024 C11.3892079,-0.429117159 14.5659939,-0.30115114 18.8307111,2.00858262 C22.1587805,3.81101655 25.1057298,4.90816235 28.7147544,4.70393994 C32.5862575,4.48491154 37.2121067,2.66316303 43.2248148,4.35405112 C52.6148071,6.99497139 52.8572414,14.5640028 50.0840835,18.6024188 C49.4318063,19.5528963 48.6171597,20.3683944 47.6810159,21.0641644 C48.3148166,23.8349432 48.3243348,27.3978422 47.4173055,30.0889136 L43.5769885,30.0889136 C43.8479775,28.3628474 43.8670139,25.8063101 43.0501277,24.019684 C42.4443217,24.2121619 41.9572134,24.3368438 41.3206133,24.4798385 C42.3396214,27.0126639 41.311095,30.0889136 41.311095,30.0889136 L37.8918187,30.0889136 C38.5664917,28.5262698 38.0155554,26.3011417 37.5978741,25.0464736 C33.8952911,25.371426 30.0644923,25.0645636 26.9010318,24.4110964 C26.3830733,24.3041148 25.8815757,24.1913444 25.3947474,24.0736201 C24.8250546,26.3421643 23.9491555,28.4827981 22.9486798,30.0889136 L18.5011011,30.0889136 C19.6801272,27.7322571 20.2818459,25.0979049 20.2747352,22.4666697 C19.8339862,22.2926716 19.4073465,22.1143318 18.9940883,21.9320401 C18.5200815,24.9589179 17.4229681,27.9832909 16.111247,30.0889136 L12.24971,30.0889136 C14.3523941,27.4650258 15.0991815,22.9827641 14.470084,19.5509481 C11.6001762,17.8081834 9.22297574,15.9861566 6.34752506,14.5149649 C4.78743475,13.7167775 2.99997125,12.9670714 1.25847509,13.1789752 C0.381120253,11.4574175 0.215671399,10.2451079 0,8.3270648 C5.69155255,8.98392735 7.62201313,4.64226688 13.1303122,3.66991439 C12.0835892,2.95338261 11.7437332,1.1939751 9.54390733,0.667472024 Z"></path></clipPath><clipPath id="i18"><path d="M7.68553666,0.000584801472 C7.86377933,0.0116763063 7.99976221,0.171564615 7.9891428,0.357788137 C7.78405209,3.96355104 6.58106381,8.09891908 4.92427285,10.893182 C4.86534875,10.9926074 4.76133302,11.0530703 4.64936634,11.0530703 L0.323400887,11.0530703 C0.21143421,11.0530703 0.107472932,10.9926074 0.0485488348,10.893182 C-0.0104841798,10.7938135 -0.0160389469,10.6695886 0.0338450397,10.5649303 C1.13837235,8.24561134 1.72352894,5.62653733 1.72614294,2.99085451 C1.7262859,2.82770985 1.83712852,2.69173937 1.98439154,2.66029589 L2.0496809,2.65344524 C2.2284137,2.65361588 2.37305547,2.80502914 2.3728921,2.99153706 C2.37033255,5.54758857 1.84028796,8.08930644 0.836182129,10.3775692 L4.46791061,10.3775692 C6.02395335,7.67505296 7.1482491,3.7515611 7.34353728,0.31774496 C7.35421115,0.131521438 7.50538794,-0.0102791853 7.68553666,0.000584801472 Z"></path></clipPath><clipPath id="i19"><path d="M2.88139897,0.270832846 C3.50942091,3.78093449 2.73241464,7.82980285 0.984164494,10.3972284 L3.99375946,10.3972284 C5.25543908,8.32024845 6.26892309,5.43743783 6.71648986,2.64072164 C6.74505914,2.46190587 6.91468923,2.33986052 7.0955908,2.36813528 C7.27632497,2.39652049 7.39958578,2.5644571 7.3710165,2.7433281 C6.89912121,5.69202112 5.81142403,8.74044894 4.46146981,10.8978352 C4.40103909,10.994367 4.29451808,11.0530703 4.17973877,11.0530703 L0.331311832,11.0530703 C0.204089262,11.0530703 0.088082366,10.9809476 0.0328967863,10.8675172 C-0.0224003922,10.7540868 -0.00711136402,10.6193399 0.0721795447,10.52082 C1.95434819,8.18268511 2.86131119,3.9200441 2.2287695,0.385146818 C2.19690806,0.206828066 2.31709991,0.0366824871 2.49727609,0.0050942783 C2.67739646,-0.0265491546 2.84948173,0.0925140938 2.88139897,0.270832846 Z"></path></clipPath><clipPath id="i20"><path d="M0.559297287,0.109921884 C1.5580339,1.25719359 2.31941477,2.81414013 2.76052796,4.6124168 C3.17075239,6.28459151 3.27750828,8.05662303 3.07212511,9.76289934 L6.18376138,9.76289934 C6.79882707,7.6515596 6.90449914,4.67794428 6.46176023,1.74116326 C6.43412292,1.55676404 6.55388461,1.38358021 6.72946283,1.35437466 C6.90449914,1.32522603 7.06978111,1.45104334 7.09741842,1.63544256 C7.57212991,4.78320953 7.43231763,7.98807821 6.72350184,10.2083837 C6.67960729,10.3461565 6.55713606,10.4390108 6.41840758,10.4390108 L2.70200189,10.4390108 C2.60770988,10.4390108 2.51829504,10.3958003 2.45705943,10.3207084 C2.39636572,10.2456735 2.36927032,10.1462152 2.38390184,10.0486356 C2.90521742,6.55552571 1.98072221,2.74485521 0.0845857979,0.566223132 C-0.0357177986,0.428450329 -0.0265053611,0.214560898 0.104636397,0.088572793 C0.235778156,-0.037358381 0.439535599,-0.0279078499 0.559297287,0.109921884 Z"></path></clipPath><clipPath id="i21"><path d="M19.3560616,1.89474549 C24.4131865,4.7285873 28.0531744,4.75456466 31.6496406,4.37935217 L32.2173423,4.31712498 C32.595836,4.27388537 32.9746485,4.22760395 33.355382,4.18108776 C36.6155077,3.78281881 39.986583,3.37095859 44.4296109,4.68262812 C47.7917206,5.67501408 50.1978704,7.61962488 51.3880572,10.3062414 C52.8421697,13.587699 52.2005671,17.1204281 51.2087447,19.1485918 C50.5424867,20.5115629 49.5854061,21.6725586 48.3638396,22.599272 C48.2175878,22.7100631 48.009137,22.6822122 47.897627,22.5369972 C47.7861171,22.3917822 47.8141347,22.184181 47.9603864,22.0733899 C49.0984606,21.2099539 49.98998,20.1286119 50.6102892,18.859443 C51.6133186,16.8082187 52.0543153,13.4503937 50.778955,10.5729423 C49.653769,8.03388028 47.4543889,6.26545475 44.2402121,5.31673913 C39.9299875,4.04439517 36.6289561,4.44767729 33.436633,4.83764665 L32.8645031,4.90718538 C28.7715971,5.39945119 24.8067922,5.70852808 19.0292645,2.47103787 C14.8869773,0.14977048 12.1569442,0.524310397 10.7551126,1.07007811 C11.7784267,1.52861657 12.3336231,2.27686087 12.7968097,2.90116834 C13.090434,3.29687499 13.343937,3.63860646 13.6624969,3.8566239 C13.7736707,3.93271276 13.8275765,4.0680685 13.7989986,4.19919089 C13.7703086,4.33031328 13.6648504,4.43124522 13.531935,4.45475144 C11.2111267,4.86438359 9.53438659,5.89241879 7.91284109,6.88658721 C5.9889859,8.06607601 4.158037,9.18830321 1.48241408,9.18841462 C1.23244122,9.18841462 0.975239833,9.17866678 0.709745239,9.15822416 C0.897406994,10.7657825 1.08590928,11.8543657 1.78814192,13.2934256 C3.56417636,13.1582369 5.33158138,13.9173988 6.83769445,14.6878682 C8.6958204,15.6384777 10.2915897,16.7064512 11.9810498,17.8371451 C14.4933303,19.5184528 17.0911764,21.2570778 20.7473026,22.6959149 C20.9181538,22.7631471 21.0018143,22.9553745 20.9342359,23.1252098 C20.8825154,23.2551067 20.7572208,23.3342595 20.6247537,23.3342595 C20.5839601,23.3342595 20.5425501,23.3267951 20.5023168,23.3109758 C16.7792286,21.8457917 14.1510115,20.0868912 11.6093686,18.385865 C9.93660698,17.2663672 8.35658353,16.2089214 6.53319938,15.2760808 C5.05034091,14.5174759 3.30843188,13.7695101 1.63264435,13.9733793 C1.49406939,13.9903684 1.35880051,13.9187914 1.29542475,13.7945203 C0.398245777,12.034283 0.219493612,10.7598781 0.00207718599,8.82635194 C-0.0092419166,8.72614413 0.0261162702,8.62632623 0.0979533471,8.55519484 C0.169790424,8.48411915 0.270093363,8.44930543 0.371068724,8.46105854 C3.25983695,8.79423873 5.16938304,7.77890067 7.0994071,6.60711754 L7.5635179,6.32349619 C9.08638548,5.38982009 10.6563786,4.42723468 12.7676714,3.93577637 C12.5908245,3.73809014 12.4284906,3.51929288 12.2612256,3.29381139 C11.7022749,2.5404425 11.1242722,1.76133932 9.80660541,1.44601058 C9.67514692,1.41453897 9.57590865,1.30714561 9.55551185,1.17429646 C9.53517108,1.04139161 9.59765029,0.909489386 9.71375514,0.840530371 C10.8463378,0.167595105 14.0531741,-1.07689788 19.3560616,1.89474549 Z"></path></clipPath><clipPath id="i22"><path d="M18.4263469,0.261767579 C18.4741011,0.450136892 18.36848,0.643859296 18.1909466,0.694416263 C15.7318844,1.39263772 12.3491991,1.84217838 8.83729651,1.84217838 C5.91136645,1.84217838 2.89554606,1.53021215 0.248500733,0.790117629 C0.0703493464,0.740274407 -0.0358897808,0.547027833 0.0111340952,0.358420605 C0.0581579712,0.169813377 0.240691511,0.0572795152 0.418842898,0.107122737 C6.1299123,1.70394969 13.5953037,1.26802967 18.0179077,0.0121351171 C18.1960029,-0.0383623716 18.3785926,0.0733387872 18.4263469,0.261767579 Z"></path></clipPath><clipPath id="i23"><path d="M4.37493573,0.205728186 C5.57963093,3.19208911 4.40663824,5.8363451 4.3562539,5.94742375 C4.30303898,6.06472151 4.18189012,6.14059461 4.04772059,6.14059461 L0.591015301,6.14059461 C0.483453231,6.14059461 0.382684554,6.09159887 0.319279543,6.00869547 C0.255874533,5.92584615 0.238324932,5.81903976 0.271159669,5.72137274 C0.892755216,3.87045845 0.478924301,2.13316453 0.0226346741,1.0016116 C-0.0441670331,0.836129282 0.0418826236,0.650313191 0.215114169,0.586499749 C0.388345715,0.522794466 0.583089675,0.605211148 0.649891382,0.770693464 C1.11070994,1.91365711 1.53020202,3.62991422 1.03654872,5.49835017 L3.81504685,5.49835017 C4.04658836,4.86048615 4.67384507,2.73187522 3.74767902,0.436646319 C3.68087732,0.271164003 3.76749309,0.0852938337 3.94072464,0.0215344708 C4.11395618,-0.0421708128 4.30813403,0.0402458699 4.37493573,0.205728186 Z"></path></clipPath><clipPath id="i24"><path d="M4.88127436,0.451913521 L4.93536452,0.483581501 C5.57804865,0.123074981 6.35450413,-0.0180768901 7.09199144,0.110916245 C7.27985295,0.143689565 7.40373686,0.31479614 7.3694216,0.493032155 C7.33452473,0.671323438 7.15480582,0.789042108 6.9669443,0.756434589 C6.47315351,0.66999703 5.95551652,0.739688694 5.50185714,0.940197303 C5.60596615,1.05658957 5.69030026,1.18027707 5.75602271,1.31087295 C5.97529142,1.75002438 5.94970037,2.24814569 5.68855542,2.61069709 C5.47626609,2.9054359 5.12322603,3.07024204 4.77658373,3.0702973 C4.60558904,3.0702973 4.4363392,3.03039454 4.28570102,2.946444 C3.90939637,2.73659527 3.71048418,2.2921382 3.79016538,1.84049643 C3.846582,1.52022427 4.03211705,1.21012124 4.3409544,0.91864318 C3.70815772,0.620975217 2.95438521,0.572008672 2.28494681,0.79230286 C1.54920434,1.03431697 0.944906778,1.59173975 0.668639845,2.28340602 C0.600590938,2.45285459 0.401678746,2.53807627 0.223123065,2.47369024 C0.0445673841,2.40935947 -0.0450012636,2.21984899 0.0224660295,2.05040043 C0.370853172,1.17911646 1.13218668,0.476949463 2.05869873,0.172041526 C2.98579239,-0.132866411 4.04084127,-0.0281907477 4.88127436,0.451913521 Z M4.91791608,1.30413038 L4.83358197,1.3789066 C4.62594555,1.57355691 4.50380649,1.76544387 4.47123607,1.94926185 C4.4404105,2.12550826 4.51078586,2.31081844 4.63525139,2.38034431 C4.77542051,2.45849182 5.0103928,2.3902371 5.11857312,2.24002144 C5.23722249,2.07466263 5.24303864,1.81446568 5.13195025,1.59251349 C5.08134978,1.49165124 5.00981119,1.39537616 4.91791608,1.30413038 Z"></path></clipPath><clipPath id="i25"><path d="M9.43028938,0.653850146 C11.2536221,-0.420359666 14.3925892,-0.295005199 18.6065359,1.96759113 C21.8949855,3.7332407 24.806852,4.80799577 28.372912,4.60794116 C32.1983259,4.39338273 36.7691054,2.60881277 42.7102337,4.26519293 C51.9884403,6.85221687 52.2279886,14.2667782 49.4878444,18.2227776 C48.8433324,19.1538576 48.0383839,19.9527129 47.1133847,20.6342835 C47.7396402,23.3485158 47.7490451,26.8387026 46.8528138,29.4748541 L43.0582148,29.4748541 C43.3259777,27.7840138 43.3447875,25.2796507 42.5376262,23.5294864 C41.9390322,23.7180361 41.4577228,23.8401736 40.8287012,23.9802499 C41.8355783,26.4613851 40.8192963,29.4748541 40.8192963,29.4748541 L37.4407257,29.4748541 C38.1073668,27.9441011 37.5629893,25.7643837 37.1502803,24.5353211 C33.4917757,24.8536418 29.7065816,24.5530419 26.5807814,23.9129108 C26.0689891,23.8081125 25.5734617,23.6976435 25.0924289,23.5823218 C24.5295182,25.8045691 23.6640465,27.9015165 22.6754813,29.4748541 L18.2808499,29.4748541 C19.4458399,27.1662927 20.0403953,24.5857028 20.0333693,22.0081663 C19.5978673,21.8377191 19.1763067,21.6630189 18.7679682,21.4844474 C18.2996044,24.4495522 17.2155518,27.4122033 15.9194464,29.4748541 L12.1038801,29.4748541 C14.1815323,26.904515 14.9194294,22.5137281 14.2978211,19.1519492 C11.4620789,17.4447511 9.11317841,15.6599085 6.27195928,14.2187411 C4.73044148,13.4368433 2.9642573,12.7024373 1.24349324,12.9100165 C0.376583107,11.2235927 0.213103882,10.036024 0,8.15712471 C5.62379597,8.80058189 7.53127488,4.54752674 12.9739989,3.59501818 C11.939737,2.8931095 11.6039269,1.16960826 9.43028938,0.653850146 Z"></path></clipPath><clipPath id="i26"><path d="M7.68553632,0.000579550586 C7.86377919,0.0113868855 7.99976222,0.17122168 7.9891428,0.357790409 C7.78405186,3.96345861 6.58106225,8.09868622 4.9243239,10.8932355 C4.86529082,10.9927767 4.76132943,11.0530703 4.64936262,11.0530703 L0.323392364,11.0530703 C0.211425562,11.0530703 0.107464169,10.9927767 0.0485400057,10.8932355 C-0.0104930746,10.7936943 -0.0160478478,10.6696943 0.0338906527,10.5650338 C1.13836473,8.24543846 1.72346751,5.62608176 1.72613598,2.99079847 C1.72627893,2.82755083 1.83712168,2.69173925 1.98438486,2.6603371 L2.04983767,2.65349586 C2.22840729,2.65349586 2.37304923,2.80479855 2.37288585,2.99136728 C2.3703263,5.54758638 1.84033558,8.0890165 0.836174175,10.3773275 L4.4679067,10.3773275 C6.02400562,7.67492493 7.14824816,3.75129356 7.34353656,0.317405105 C7.35415598,0.131405183 7.50642212,-0.0102277843 7.68553632,0.000579550586 Z"></path></clipPath><clipPath id="i27"><path d="M2.29634094,0.344397944 L6.76053636,2.37368701 C6.27963599,5.36893514 5.1839115,8.35531175 3.87597715,10.4390108 L0,10.4390108 C2.09855096,7.84020891 2.85190721,3.41110079 2.23966827,0 Z"></path></clipPath><clipPath id="i28"><path d="M0.559294812,0.110011936 C1.55802701,1.25717243 2.31940451,2.81423642 2.76051574,4.61268803 C3.17128026,6.28475272 3.27749378,8.05644674 3.07211152,9.76267006 L6.18373402,9.76267006 C6.79933889,7.65166703 6.90446859,4.67815872 6.46173164,1.74108628 C6.43409445,1.55662971 6.55385561,1.38355934 6.72943305,1.35452451 C6.9050105,1.32548968 7.06974983,1.45130728 7.09738702,1.63576385 C7.57209641,4.78348115 7.43228474,7.98812949 6.724014,10.2084401 C6.67957773,10.3462132 6.55710704,10.4390108 6.41892109,10.4390108 L2.70198993,10.4390108 C2.60769834,10.4390108 2.5182839,10.3957432 2.45759046,10.3205943 C2.39635512,10.2454453 2.36925983,10.1463853 2.38389129,10.0484639 C2.90520456,6.55574448 1.98125536,2.74478055 0.0845854236,0.56602958 C-0.0357176406,0.428256459 -0.0265052438,0.214765053 0.104635934,0.08837814 C0.235777112,-0.0374394622 0.439533654,-0.0277611851 0.559294812,0.110011936 Z"></path></clipPath><clipPath id="i29"><path d="M19.5838063,1.89487658 C24.8351321,4.80293334 28.5760118,4.75397574 32.3091313,4.34882337 L32.8835988,4.28403278 C32.9794007,4.2728829 33.0752482,4.26158652 33.1711666,4.25018749 L33.7477303,4.18091227 C37.0462149,3.78263851 40.4569545,3.37099612 44.9528263,4.68223588 C48.3539279,5.67485664 50.7883886,7.61943525 51.9925793,10.3059728 C53.4638009,13.5874144 52.8146492,17.1206318 51.8117239,19.1487644 C51.1376266,20.5118076 50.168718,21.6726502 48.9327785,22.5995419 C48.7853728,22.7103901 48.5739024,22.6825388 48.4610804,22.537155 C48.3482584,22.3917711 48.3766057,22.1845574 48.5245782,22.0737091 C49.676043,21.2097614 50.5780521,20.1285735 51.20566,18.8596677 C52.2204911,16.8081401 52.6666766,13.4503859 51.3768773,10.5727884 C50.2384522,8.03386277 48.0126271,6.26530446 44.7606321,5.31668877 C40.7227256,4.13868143 37.5602199,4.39717522 34.5498701,4.75146406 L33.8299373,4.83764621 L33.2511451,4.90717282 C29.110535,5.39936494 25.0986165,5.70863719 19.2531641,2.47084171 C15.0619117,0.149713373 12.2998136,0.524035006 10.881658,1.06992072 C11.9170692,1.52835332 12.4787413,2.27643956 12.9473779,2.90086597 C13.2444569,3.29691163 13.5009427,3.63836871 13.8232508,3.856723 C13.9357326,3.93247857 13.9902727,4.06783594 13.9613585,4.19929414 C13.932331,4.3301953 13.825632,4.43101705 13.6911527,4.45441215 C11.3430376,4.86438347 9.64651215,5.89209688 8.00588743,6.88638871 C5.87735006,8.17646149 3.86203156,9.397463 0.71809615,9.15794172 C0.907965947,10.7655194 1.09868616,11.8545057 1.80918132,13.2933045 C3.60594262,13.1579471 5.39436983,13.9171739 6.91820393,14.6880982 C8.79813602,15.638385 10.4126246,16.7062043 12.1220197,17.8369676 C14.6638598,19.5186298 17.2922723,21.2571087 20.9914167,22.6959074 C21.1643349,22.7633076 21.2489231,22.9554817 21.1805495,23.1253747 C21.1282205,23.2551618 21.0014517,23.3342595 20.8674259,23.3342595 C20.8261524,23.3342595 20.7842551,23.3270182 20.7435485,23.3108644 C16.9766542,21.8458854 14.3175699,20.0867965 11.7459652,18.3856384 C10.0535218,17.2665727 8.45490767,16.2087799 6.61006946,15.2763179 C5.10976357,14.5176482 3.34781268,13.769562 1.65185415,13.9734336 C1.51119516,13.9901443 1.37473156,13.918845 1.3106668,13.7946281 C0.402931564,12.0344252 0.222076189,10.7599492 0.0021016263,8.82651111 C-0.00935065763,8.72624638 0.0264235561,8.62653869 0.0991058729,8.55523933 C0.171731495,8.48393997 0.273498078,8.44940434 0.375434744,8.46110189 C3.53133269,8.82094084 5.53304452,7.60773769 7.65239738,6.32323519 C9.19318312,5.38965921 10.7817056,4.42711787 12.9178967,3.93582072 C12.7390257,3.73807641 12.5747251,3.5191651 12.4054921,3.29356947 C11.8399647,2.54046999 11.2551612,1.76119028 9.9219906,1.44591343 C9.78898536,1.41416294 9.68857945,1.3072139 9.66794266,1.17408463 C9.64736256,1.04095536 9.7105769,0.909497164 9.82804785,0.840425911 C10.9739566,0.167538213 14.2185814,-1.07685841 19.5838063,1.89487658 Z"></path></clipPath><clipPath id="i30"><path d="M18.4263094,0.261609321 C18.4740638,0.450183048 18.369004,0.644110603 18.1909081,0.694674536 C15.7318359,1.39305168 12.3491369,1.84217838 8.83778186,1.84217838 C5.9112781,1.84217838 2.89572637,1.53046661 0.248501743,0.790448574 C0.0703496322,0.740479511 -0.0358899265,0.547146826 0.0111341405,0.358573099 C0.0581020258,0.169999372 0.240523944,0.0569741095 0.418844599,0.106943173 C6.13038665,1.70416859 13.5952466,1.26812902 18.0178685,0.0123588744 C18.1959645,-0.0387999285 18.3791167,0.0736304639 18.4263094,0.261609321 Z"></path></clipPath><clipPath id="i31"><path d="M4.88176497,0.451860873 L4.9358571,0.483361691 C5.57798305,0.123036542 6.35504852,-0.0178881709 7.09198111,0.110878332 C7.27984948,0.143484442 7.40373791,0.314804681 7.36942139,0.493309318 C7.33452324,0.671261308 7.15479777,0.788974892 6.9669294,0.756368782 C6.47312059,0.670156016 5.9554647,0.739789404 5.5023704,0.940399878 C5.60590157,1.05645552 5.6908204,1.18024821 5.75596362,1.31067265 C5.97524032,1.75002617 5.94964835,2.24796016 5.68849386,2.61049589 C5.47619678,2.90560882 5.12372548,3.0702973 4.77648889,3.0702973 C4.60606959,3.0702973 4.43623193,3.0305068 4.28558825,2.94650462 C3.90926987,2.73649916 3.71035042,2.29217183 3.79003453,1.8406601 C3.84703484,1.52012546 4.03199503,1.21009109 4.34142529,0.918846686 C3.70802388,0.620970528 2.95422385,0.57178504 2.28476102,0.792290767 C1.5489917,1.03434969 0.944672075,1.59196943 0.668395059,2.2833295 C0.600343667,2.4529918 0.401424215,2.53809927 0.222862017,2.4734397 C0.0442998188,2.40933277 -0.0452720982,2.21977521 0.0227792933,2.05011291 C0.370597516,1.17914292 1.13195881,0.47672994 2.05908632,0.17222203 C2.98563218,-0.132838525 4.04071957,-0.0283884436 4.88176497,0.451860873 Z M4.91782639,1.3040409 C4.88932624,1.32835732 4.86082608,1.35322639 4.8334892,1.3786481 C4.62584521,1.57373212 4.50370169,1.76550026 4.47113008,1.94897871 C4.44030338,2.12527276 4.51068132,2.31096179 4.63515138,2.38004253 C4.77590725,2.45851826 5.01030649,2.38999016 5.11849075,2.24022311 C5.2377261,2.07442933 5.24296082,1.81468574 5.13186838,1.59252208 C5.08126606,1.49138787 5.00972485,1.39522748 4.91782639,1.3040409 Z"></path></clipPath><clipPath id="i32"><path d="M3.77866174,0 C4.96451835,2.91302271 3.76487939,5.52653515 3.76487939,5.52653515 L0.258419116,5.52653515 C0.952130877,3.48051584 0.427827203,1.61822515 0,0.56803671 Z"></path></clipPath><clipPath id="i33"><path d="M600,0 L600,131.311475 L0,131.311475 L0,0 L600,0 Z"></path></clipPath><clipPath id="i34"><path d="M9.54719038,0.669046993 C11.3931258,-0.430129705 14.5710045,-0.301861737 18.8371887,2.01332207 C22.166403,3.82000904 25.114366,4.91974366 28.7246321,4.71503937 C32.597467,4.49549415 37.2249075,2.66944704 43.2396839,4.36432495 C52.6329063,7.01147675 52.8754241,14.598368 50.1013122,18.6463132 C49.4488106,19.5990334 48.6338837,20.4164557 47.6974179,21.1138675 C48.3314366,23.8911842 48.3409581,27.4624903 47.4336168,30.1599115 L43.5919787,30.1599115 C43.8630609,28.4297724 43.8821039,25.8672027 43.0649367,24.076361 C42.4589223,24.269293 41.9716465,24.3942691 41.3348273,24.5376012 C42.354186,27.0764031 41.3253059,30.1599115 41.3253059,30.1599115 L37.9048533,30.1599115 C38.5797584,28.5935805 38.0286326,26.363202 37.6108075,25.1055733 C33.9069509,25.4312925 30.0748343,25.123706 26.9102856,24.4686969 C26.3921489,24.3614629 25.8904788,24.2484264 25.403483,24.1304243 C24.8335943,26.4043214 23.9573939,28.5500062 22.9565741,30.1599115 L18.5074654,30.1599115 C19.686897,27.7976942 20.2888227,25.157126 20.2817096,22.5196822 C19.840809,22.3452734 19.4140225,22.1665129 19.0006222,21.983791 C18.5264523,25.017811 17.4289615,28.0493204 16.1167892,30.1599115 L12.2539238,30.1599115 C14.3573313,27.5298323 15.1043756,23.0369943 14.4750616,19.5970806 C11.6041666,17.8502037 9.2261484,16.0238776 6.34970857,14.5492144 C4.7890816,13.7491437 3.00100322,12.9976686 1.258908,13.2100723 C0.381251356,11.4844525 0.215745589,10.2692823 0,8.34671338 C5.69351041,9.00512585 7.62463506,4.65322079 13.1348289,3.67857393 C12.0877459,2.96035143 11.747773,1.19679241 9.54719038,0.669046993 Z"></path></clipPath><clipPath id="i35"><path d="M7.68818045,0.000586181371 C7.86648443,0.0117038578 8.00251409,0.171969439 7.99189103,0.358632375 C7.78672976,3.97290345 6.58332766,8.11802932 4.92596677,10.9188856 C4.86702241,11.0185456 4.76297089,11.0791512 4.6509657,11.0791512 L0.323512135,11.0791512 C0.211506942,11.0791512 0.107509903,11.0185456 0.0485655354,10.9188856 C-0.0104877863,10.8192826 -0.0160444642,10.6947646 0.0338566822,10.5898594 C1.13876394,8.26506772 1.72412182,5.63981373 1.72673673,2.99791174 C1.72687973,2.83438212 1.83776048,2.69809081 1.98507416,2.66657313 L2.05038598,2.65970632 C2.22918026,2.65987736 2.37387179,2.8116479 2.37370836,2.9985959 C2.37114793,5.56067868 1.84092101,8.108394 0.836469771,10.4020562 L4.46944755,10.4020562 C6.02602556,7.69316304 7.15070806,3.7604133 7.34606342,0.318494713 C7.35674096,0.131831777 7.50796976,-0.0103034401 7.68818045,0.000586181371 Z"></path></clipPath><clipPath id="i36"><path d="M2.88239015,0.271471904 C3.51062813,3.78985599 2.73335458,7.84827808 0.984503041,10.4217617 L3.9951333,10.4217617 C5.25724693,8.33988093 6.27107957,5.45026802 6.7188003,2.6469527 C6.7473794,2.46771499 6.91706785,2.34538166 7.09803165,2.37372314 C7.27882799,2.40217533 7.4021312,2.57050821 7.37355209,2.74980126 C6.90149447,5.70545203 5.81342313,8.76107293 4.46300453,10.9235498 C4.40255302,11.0203094 4.29599538,11.0791512 4.18117658,11.0791512 L0.331425802,11.0791512 C0.204159468,11.0791512 0.0881126658,11.0068583 0.0329081026,10.8931602 C-0.0224080978,10.7794622 -0.00711381029,10.6443973 0.0722043741,10.545645 C1.95502047,8.201993 2.86229547,3.92929385 2.22953619,0.386055612 C2.19766379,0.207316098 2.31789698,0.0367690432 2.49813514,0.00510629878 C2.67831747,-0.0266118001 2.85046193,0.0927323904 2.88239015,0.271471904 Z"></path></clipPath><clipPath id="i37"><path d="M0.559489682,0.110181256 C1.55856986,1.26016007 2.32021264,2.82078039 2.76147757,4.62330028 C3.17184311,6.29942065 3.27863573,8.07563346 3.07318191,9.78593592 L6.18588856,9.78593592 C6.80116583,7.66961424 6.90687426,4.68898237 6.46398304,1.74527172 C6.43633622,1.56043739 6.55613911,1.38684491 6.73177773,1.35757044 C6.90687426,1.32835304 7.07221308,1.45446723 7.0998599,1.63930156 C7.57473469,4.79449601 7.4348743,8.00692691 6.72581469,10.2324715 C6.68190504,10.3705693 6.55939168,10.4636428 6.42061548,10.4636428 L2.70293136,10.4636428 C2.60860692,10.4636428 2.51916132,10.4203302 2.45790464,10.3450612 C2.39719006,10.2698492 2.37008533,10.1701562 2.38472188,10.0723464 C2.9062168,6.57099415 1.98140357,2.75133198 0.084614895,0.567559194 C-0.0357300854,0.429461302 -0.0265144788,0.215067177 0.104672392,0.0887817897 C0.235859262,-0.037446532 0.439686797,-0.0279737013 0.559489682,0.110181256 Z"></path></clipPath><clipPath id="i38"><path d="M19.36272,1.89921634 C24.9540966,5.03874789 28.8136937,4.74007989 32.7968003,4.26036419 L33.366856,4.19095347 C36.6281032,3.79174476 40.0003381,3.37891271 44.4448945,4.69367727 C47.8081607,5.68840486 50.2151382,7.63760417 51.4057345,10.33056 C52.8603471,13.6197606 52.2185238,17.1608255 51.2263603,19.1937749 C50.559873,20.559962 49.6024632,21.7236973 48.3804765,22.6525973 C48.2341744,22.7636499 48.0256519,22.7357332 47.9141036,22.5901756 C47.8025553,22.4446179 47.8305825,22.2365269 47.9768846,22.1254743 C49.1153502,21.260001 50.0071763,20.1761075 50.6276989,18.9039438 C51.6310733,16.8478794 52.0722217,13.4821313 50.7964227,10.5978903 C49.6708496,8.05283706 47.470713,6.28023874 44.2554305,5.32928453 C39.9437232,4.05393834 36.6415563,4.45817205 33.448135,4.84906158 C33.256952,4.87246693 33.0662416,4.89581428 32.8758083,4.91876439 L32.305145,4.9860838 C28.4086256,5.43332043 24.546511,5.5710617 19.0358105,2.47686854 C14.8920983,0.150123879 12.1611261,0.525547561 10.7588123,1.07260307 C11.7824784,1.5322235 12.3378658,2.28223336 12.8012118,2.90801394 C13.094937,3.30465431 13.3485273,3.64719213 13.6671968,3.865724 C13.7784088,3.9419924 13.8323331,4.07766753 13.8037454,4.20909932 C13.7750455,4.34053111 13.669551,4.4417012 13.5365899,4.46526289 C11.2149833,4.8758616 9.53766637,5.90632256 7.91556307,6.90283682 C5.99104608,8.08510875 4.15946734,9.20998397 1.48292402,9.21009563 C1.23286518,9.21009563 0.975575311,9.20032479 0.709989388,9.17983394 C0.897715698,10.7911854 1.08628282,11.8823373 1.78875703,13.3247928 C3.56540242,13.1892852 5.33341542,13.9502384 6.84004658,14.7225258 C8.69881172,15.6753783 10.29513,16.7458718 11.9851713,17.8792337 C14.4983159,19.5645086 17.0970557,21.307236 20.7544395,22.7494682 C20.9253495,22.8168591 21.0090388,23.0095401 20.9414371,23.1797761 C20.8896989,23.3099796 20.7643612,23.3893191 20.6318485,23.3893191 C20.5910408,23.3893191 20.5496166,23.3818371 20.5093695,23.3659805 C16.7850006,21.8973391 14.1558793,20.1342883 11.6133622,18.4292484 C9.94002512,17.307109 8.35945816,16.247168 6.53544677,15.3121263 C5.0520782,14.5517314 3.30956997,13.8020007 1.63320597,14.0063509 C1.49458334,14.0233801 1.35926793,13.9516342 1.29587036,13.8270699 C0.398382771,12.0626791 0.219569117,10.7852671 0.00207790053,8.84717863 C-0.00924509578,8.74673437 0.0261252541,8.64668094 0.0979870425,8.57538171 C0.169848831,8.50413831 0.270186274,8.46924244 0.371196369,8.48102329 C3.49213927,8.84170696 5.47052457,7.62576749 7.56611971,6.33841713 C9.08951115,5.40253793 10.6600444,4.4376812 12.7720635,3.94506324 C12.5951556,3.74691056 12.4327659,3.52759702 12.2654434,3.30158347 C11.7063004,2.54643694 11.1280989,1.76549538 9.80997883,1.44942259 C9.67847512,1.41787672 9.57920271,1.31022996 9.55879889,1.17706733 C9.53845113,1.04384888 9.60095183,0.91163542 9.71709662,0.842513689 C10.8500689,0.167990563 14.0580083,-1.07943893 19.36272,1.89921634 Z"></path></clipPath><clipPath id="i39"><path d="M18.4326854,0.262385247 C18.4804561,0.451199037 18.3747986,0.645378548 18.1972042,0.69605481 C15.7372961,1.3959238 12.3534472,1.84652519 8.84033649,1.84652519 C5.91339993,1.84652519 2.89654211,1.53382285 0.248586216,0.791981993 C0.0703735463,0.742021161 -0.0359021266,0.548318602 0.0111379253,0.359266336 C0.0581779772,0.170214069 0.240774308,0.0574146721 0.418986978,0.107375504 C6.13202096,1.70797033 13.5999805,1.27102172 18.0241058,0.0121637512 C18.2022622,-0.0384528915 18.3849148,0.0735118377 18.4326854,0.262385247 Z"></path></clipPath><clipPath id="i40"><path d="M4.37644069,0.206213623 C5.58155029,3.19962118 4.4081541,5.85011656 4.35775243,5.96145731 C4.3045192,6.07903185 4.18332867,6.15508398 4.04911299,6.15508398 L0.591218608,6.15508398 C0.483619536,6.15508398 0.382816195,6.10597262 0.319389374,6.02287361 C0.255962553,5.9398288 0.238406915,5.83277038 0.271252947,5.73487291 C0.893062319,3.8795912 0.479089049,2.13819795 0.0226424603,1.003975 C-0.0441822264,0.838102216 0.041897031,0.651847673 0.215188168,0.587883656 C0.388479304,0.524028053 0.583290255,0.606639207 0.650114942,0.772511995 C1.11109202,1.91817258 1.5307284,3.63847938 1.03690529,5.5113241 L3.8163592,5.5113241 C4.04798036,4.87195497 4.67545285,2.73832136 3.74896821,0.437676631 C3.68214352,0.271803843 3.76878909,0.0854950933 3.94208022,0.0215852836 C4.11537136,-0.0422703192 4.309616,0.0403408342 4.37644069,0.206213623 Z"></path></clipPath><clipPath id="i41"><path d="M4.88295349,0.452979858 C4.90157156,0.463449964 4.91960782,0.474086263 4.93706226,0.484722562 C5.57996747,0.123365389 6.35669005,-0.0181195444 7.09443105,0.111177963 C7.28235719,0.144028615 7.40628371,0.315538934 7.37195664,0.494195516 C7.33704776,0.672907495 7.15726703,0.790903935 6.96934089,0.758219475 C6.47538024,0.671577957 5.95756519,0.741434066 5.50374975,0.942415796 C5.60789457,1.0590827 5.6922577,1.18306206 5.75800276,1.31396609 C5.97734689,1.75415375 5.95174704,2.25345042 5.69051225,2.6168573 C5.4781499,2.91229158 5.1249884,3.07748659 4.77822685,3.07754199 C4.60717334,3.07754199 4.43786527,3.03754507 4.28717527,2.95339644 C3.91074118,2.74305255 3.71176057,2.29754674 3.79146918,1.84483927 C3.8479052,1.5238114 4.03350408,1.21297665 4.34244767,0.920810814 C3.70943331,0.622440473 2.9554015,0.573358385 2.28573282,0.794172381 C1.54973726,1.03675755 0.945231821,1.59549562 0.668869854,2.28879395 C0.600797538,2.45864235 0.401816921,2.54406513 0.223199818,2.47952717 C0.044582715,2.41504461 -0.0450167438,2.22508696 0.0224737577,2.05523856 C0.370980744,1.18189871 1.13257614,0.478074875 2.05940691,0.172447476 C2.98681949,-0.133179923 4.0422313,-0.0282572667 4.88295349,0.452979858 Z M4.91960782,1.30720761 C4.89051709,1.33152706 4.86258998,1.35651128 4.83524469,1.38216028 C4.62753686,1.57726988 4.50535578,1.76960962 4.47277415,1.95386134 C4.44193798,2.13052361 4.51233755,2.31627106 4.63684589,2.38596098 C4.77706323,2.46429289 5.01211635,2.39587711 5.12033388,2.245307 C5.23902407,2.07955801 5.24484222,1.8187471 5.13371562,1.59627119 C5.08309774,1.49517095 5.01153454,1.3986687 4.91960782,1.30720761 Z"></path></clipPath><clipPath id="i42"><path d="M15.1151177,1.04007045 C18.0376038,-0.66866035 23.0688234,-0.46926072 29.8230488,3.12982021 C35.093863,5.93841474 39.7610798,7.64801288 45.4768553,7.32978876 C51.6083299,6.98849361 58.9344965,4.14980266 68.4570943,6.78458385 C83.3284498,10.8997273 83.7124041,22.6939683 79.3204284,28.9867222 C78.2873875,30.4677784 76.9971947,31.7385065 75.5145815,32.8226715 C76.5183603,37.1401636 76.5334347,42.6919558 75.0969315,46.8852459 L69.0148477,46.8852459 C69.4440252,44.1956493 69.474174,40.2119934 68.1804344,37.4280311 C67.2209921,37.7279545 66.4495366,37.9222369 65.4413242,38.1450545 C66.9893021,41.9306719 65.5538208,46.4953518 65.4340597,46.861672 L65.4262498,46.8852459 L60.0109872,46.8852459 C61.0794973,44.450298 60.2069546,40.9830515 59.5454538,39.0279984 C53.6815056,39.5343469 47.6144962,39.0561867 42.6043808,38.0379389 C41.7840665,37.8712377 40.9898221,37.6955163 40.21881,37.5120755 C39.3165618,41.0469739 37.9293608,44.3825594 36.3448622,46.8852459 L29.3010306,46.8852459 C31.1683075,43.2130489 32.1212767,39.1081399 32.1100152,35.008088 C31.411981,34.73696 30.7362925,34.4590669 30.0817968,34.1750156 C29.3310908,38.8915671 27.5935426,43.6042156 25.5161106,46.8852459 L19.4004197,46.8852459 C22.7305357,42.7966428 23.9132567,35.8122783 22.9169265,30.4647427 C18.3717238,27.7491262 14.6068438,24.9100016 10.0528625,22.6175563 C7.58207695,21.3738022 4.75119015,20.2055927 1.99310392,20.535786 C0.603597383,17.8532148 0.34156855,15.9641657 0,12.9754263 C4.91671047,13.53372 8.06120597,11.7746804 11.3197127,9.81432016 L11.9734931,9.4201908 C14.4897633,7.90387863 17.1469589,6.35215104 20.7950693,5.71854607 C19.1373268,4.60202957 18.5990815,1.86047981 15.1151177,1.04007045 Z"></path></clipPath><clipPath id="i43"><path d="M12.4183274,0.000922284942 C12.7063328,0.0184145937 12.9260546,0.270572952 12.9088957,0.564264331 C12.5775091,6.25087935 10.6337148,12.7727297 7.95666396,17.1795356 C7.86145411,17.3363385 7.69338498,17.431694 7.51246868,17.431694 L0.522552722,17.431694 C0.341636422,17.431694 0.173655286,17.3363385 0.0784454428,17.1795356 C-0.0169403886,17.0228225 -0.0259158081,16.8269086 0.0546869793,16.661853 C1.83938756,13.0040767 2.78488642,8.87355951 2.78911014,4.71684872 C2.78934479,4.45547077 2.97417195,4.23832029 3.21776434,4.19329151 L3.31188434,4.18472372 C3.60068166,4.18499283 3.83439454,4.42378527 3.83413056,4.71792517 C3.82999483,8.74905015 2.97354622,12.7575697 1.35110714,16.3663675 L7.21927164,16.3663675 C9.73353305,12.1042544 11.5501756,5.91655199 11.8657232,0.501112611 C11.88297,0.207421232 12.1272422,-0.0162112072 12.4183274,0.000922284942 Z"></path></clipPath><clipPath id="i44"><path d="M4.56340187,0.427127953 C5.55802863,5.96287648 4.32744866,12.348309 1.55866582,16.3973718 L6.3250975,16.3973718 C8.32327658,13.1217862 9.92837705,8.57533244 10.6372088,4.16465745 C10.6824552,3.88264877 10.9511061,3.69017219 11.2376081,3.73476405 C11.523845,3.77953009 11.7190587,4.04438136 11.6738122,4.32647713 C10.9264503,8.97683337 9.2038151,13.7844804 7.06583153,17.1868742 C6.97012466,17.3391136 6.80142253,17.431694 6.61964135,17.431694 L0.524713534,17.431694 C0.323225395,17.431694 0.139500027,17.3179499 0.0521001284,17.1390599 C-0.0354765143,16.9601699 -0.0112625888,16.7476618 0.11431401,16.5922871 C3.09518962,12.9048363 4.53158796,6.18226495 3.52980307,0.607411452 C3.47934267,0.326186612 3.66969593,0.0578516079 3.95504909,0.00803413875 C4.24031388,-0.0418704239 4.51285309,0.145903114 4.56340187,0.427127953 Z"></path></clipPath><clipPath id="i45"><path d="M0.885784411,0.170895323 C2.46752876,1.95455623 3.67336208,4.37513775 4.37197299,7.1709147 C5.02166397,9.7706412 5.19073811,12.5256149 4.8654635,15.1783591 L9.79350259,15.1783591 C10.7676099,11.8958636 10.9349676,7.27279014 10.2337819,2.70698286 C10.1900115,2.42029779 10.3796835,2.15104925 10.6577547,2.10564343 C10.9349676,2.06032612 11.1967321,2.25593403 11.2405026,2.54261911 C11.9923246,7.4364458 11.7708976,12.4190484 10.648314,15.8709527 C10.5787962,16.0851478 10.384833,16.2295082 10.1651224,16.2295082 L4.2792826,16.2295082 C4.12994808,16.2295082 3.98833776,16.1623288 3.89135615,16.0455837 C3.79523278,15.928927 3.75232056,15.7742994 3.77549316,15.6225926 C4.60112423,10.191862 3.13695936,4.26742063 0.133962354,0.880305913 C-0.0565678932,0.666110825 -0.0419777392,0.333577377 0.165717395,0.137703935 C0.37341253,-0.0580809964 0.696112408,-0.0433882755 0.885784411,0.170895323 Z"></path></clipPath><clipPath id="i46"><path d="M30.5221999,2.92853018 C39.7558115,8.0001128 45.9933745,7.25316755 52.5974581,6.46231473 C57.7382874,5.84674782 63.0540709,5.21017414 70.060196,7.23749857 C75.3618418,8.77133636 79.1560531,11.7769387 81.0328357,15.9293895 C83.3257975,21.0012304 82.3140668,26.461438 80.7500813,29.5961803 C79.6994718,31.7027966 78.1902699,33.4972387 76.2640052,34.9295725 C76.0333836,35.1008121 75.7046816,35.0577654 75.5288437,34.8333203 C75.3530058,34.6088751 75.3971861,34.2880055 75.6278077,34.1167659 C77.4224149,32.7822341 78.8282346,31.1109053 79.8063883,29.1492701 C81.388046,25.9788852 82.0834452,20.7890105 80.0723542,16.3416041 C78.29807,12.4172143 74.82991,9.68392507 69.7615366,8.21758441 C62.9648266,6.25104183 57.7594939,6.87435714 52.7255812,7.47709616 L52.3751682,7.51902688 L51.6759288,7.60191313 C45.2739509,8.35238521 39.0479458,8.7850148 30.0068799,3.8192512 C23.4749872,0.231486167 19.1700507,0.810377346 16.9595295,1.65391925 C18.5731737,2.36263909 19.4486522,3.51913004 20.1790423,4.48406347 C20.6420527,5.09567009 21.0417968,5.62385233 21.5441277,5.96082141 C21.7194355,6.07842482 21.8044385,6.28763148 21.7593745,6.49029504 C21.7141338,6.69295861 21.5478389,6.84895963 21.3382471,6.88529099 C17.6786094,7.51842093 15.0345902,9.10735841 12.4776064,10.6439512 C9.44391627,12.4669763 6.55672829,14.2014975 2.33759015,14.2016697 C1.94341278,14.2016697 1.53783687,14.1866033 1.11918357,14.1550071 C1.41510377,16.639659 1.71234938,18.3221799 2.81968648,20.5463996 C5.62028091,20.3374512 8.40726779,21.5108165 10.7822284,22.7016587 C13.7122714,24.1709265 16.2286092,25.8215928 18.8926863,27.5692002 C22.8542528,30.1678396 26.9507462,32.855069 32.716021,35.0789444 C32.985433,35.182859 33.1173556,35.4799668 33.0107925,35.7424652 C32.9292355,35.9432348 32.7316608,36.0655738 32.522776,36.0655738 C32.4584494,36.0655738 32.3931508,36.0540368 32.3297077,36.0295863 C26.4588418,33.7649888 22.3144569,31.0464215 18.3065893,28.4173051 C15.6688438,26.6870024 13.1773353,25.0526077 10.302076,23.6108036 C7.96378511,22.4382993 5.21700238,21.2822388 2.57448536,21.5973402 C2.35596919,21.6235987 2.1426663,21.5129688 2.04273028,21.3208947 C0.627986079,18.6002611 0.346115241,16.6305331 0.0032754745,13.6420634 C-0.0145733999,13.4871816 0.0411822425,13.3329024 0.154460743,13.2229613 C0.267739243,13.1131063 0.425905011,13.059298 0.585131109,13.0774637 C5.50479339,13.6336262 8.62339822,11.7586869 11.9267654,9.77363426 C14.3281459,8.33053879 16.8038378,6.84276091 20.1330947,6.08315995 C19.8542281,5.77761492 19.598247,5.43944053 19.3344901,5.09093496 C18.4530915,3.92652342 17.5416502,2.72233679 15.4638468,2.23496276 C15.2565524,2.18632006 15.1000655,2.02033223 15.0679022,1.81499977 C15.0358273,1.60958121 15.1343495,1.40571234 15.317433,1.29912887 C17.1033808,0.259036015 22.160179,-1.66445993 30.5221999,2.92853018 Z"></path></clipPath><clipPath id="i47"><path d="M28.8754533,0.427066764 C28.9502877,0.734386232 28.7847716,1.05043912 28.5065636,1.13292146 C24.6530306,2.27205099 19.3521117,3.00546448 13.8486996,3.00546448 C9.26355001,3.00546448 4.53753561,2.49649997 0.389419095,1.28905566 C0.110242648,1.20773778 -0.0562419505,0.892461196 0.0174479537,0.584753576 C0.0911378578,0.277045957 0.377181464,0.0934499883 0.656357911,0.174767864 C9.60602758,2.77994808 21.3048501,2.0687563 28.2353988,0.0197981172 C28.5144872,-0.0625871773 28.8006189,0.119650259 28.8754533,0.427066764 Z"></path></clipPath><clipPath id="i48"><path d="M7.11112001,0.322214401 C9.06925897,4.99949523 7.16264998,9.14096644 7.08075414,9.3149394 C6.9942574,9.49865281 6.79733929,9.61748634 6.57925708,9.61748634 L0.960649709,9.61748634 C0.785815873,9.61748634 0.622024174,9.54074851 0.518964229,9.41090404 C0.415904284,9.28114426 0.387378763,9.11386257 0.440749092,8.96089511 C1.45110463,6.0619669 0.778454448,3.34099253 0.0367909139,1.56873829 C-0.0717900999,1.30955754 0.0680769687,1.01852974 0.349651462,0.918584223 C0.631225955,0.818808104 0.947767216,0.947890281 1.05634823,1.20707103 C1.80537319,2.99719689 2.48722515,5.68522312 1.68482986,8.61159399 L6.20106389,8.61159399 C6.57741672,7.61256232 7.59697404,4.27870171 6.0915627,0.683881656 C5.98298168,0.424700907 6.12376893,0.133588412 6.40534342,0.0337275935 C6.68691792,-0.0660485249 7.002539,0.0630336521 7.11112001,0.322214401 Z"></path></clipPath><clipPath id="i49"><path d="M7.73069499,0.707793364 C7.76017113,0.72415319 7.78872614,0.740772697 7.81636002,0.757392204 C8.83420794,0.19276178 10.0639156,-0.0283122815 11.2319076,0.173718595 C11.5294324,0.225048634 11.7256329,0.493038177 11.6712863,0.772193952 C11.6160186,1.05143629 11.3313896,1.23580894 11.0338648,1.18473858 C10.251826,1.04935885 9.43202088,1.15851092 8.71354,1.47255035 C8.87842215,1.65484556 9.0119859,1.84856668 9.11607352,2.0531078 C9.46333928,2.740913 9.42280959,3.52107765 9.00922252,4.08891079 C8.67301031,4.5505349 8.1138848,4.80865661 7.56489171,4.80874317 C7.29407968,4.80874317 7.02603104,4.7462469 6.78745854,4.61476237 C6.19148786,4.28609431 5.87646162,3.58997935 6.00265634,2.88261161 C6.09200589,2.38099681 6.38584615,1.89530904 6.87496583,1.43879197 C5.87277711,0.97258019 4.67899348,0.895888092 3.61877361,1.24091597 C2.45354499,1.61996191 1.4964916,2.49300536 1.05895517,3.57630289 C0.951183033,3.84169563 0.636156798,3.97517104 0.35337009,3.87432872 C0.070583382,3.77357297 -0.0712705367,3.47675897 0.035580467,3.21136622 C0.587336943,1.84674892 1.79309525,0.747005012 3.26045429,0.269453878 C4.72873446,-0.208097256 6.39966309,-0.0441527487 7.73069499,0.707793364 Z M7.78872614,2.04254748 C7.74266967,2.08054729 7.69845546,2.11958582 7.65516238,2.15966307 C7.32631921,2.46452714 7.13288205,2.76506322 7.0812988,3.05296155 C7.03247895,3.32900117 7.1439356,3.61923661 7.34105728,3.728129 C7.56304945,3.85052474 7.9351857,3.74362323 8.10651576,3.50835334 C8.29442615,3.24936603 8.30363744,2.84184188 8.12770174,2.4942172 C8.04756348,2.33624533 7.93426457,2.18545793 7.78872614,2.04254748 Z"></path></clipPath></defs><rect x="0px" y="0px" width="600px" height="394px" fill="#FFFFFF"></rect><g clip-path="url(#i0)"><g transform="translate(122.45901639344268 171.639344262295)"><g transform="translate(263.5263956091571 0.0)"><g transform="translate(0.0 2.4710115953618015)"><g clip-path="url(#i1)"><polygon points="0,-4.4408921e-16 80.6037409,-4.4408921e-16 80.6037409,46.9492203 0,46.9492203 0,-4.4408921e-16" stroke="none" fill="#FFFFFF"></polygon></g></g><g transform="translate(30.14949086444699 32.74090363854452)"><g clip-path="url(#i2)"><polygon points="4.34374758e-15,1.88737914e-15 12.9212104,1.88737914e-15 12.9212104,17.9148341 4.34374758e-15,17.9148341 4.34374758e-15,1.88737914e-15" stroke="none" fill="#221F1F"></polygon></g></g><g transform="translate(20.30475915360716 32.74090363854452)"><g clip-path="url(#i3)"><polygon points="0,0 11.0753232,0 11.0753232,16.6793283 0,16.6793283 0,0" stroke="none" fill="#221F1F"></polygon></g></g><g transform="translate(0.61529573192729 0.0)"><g clip-path="url(#i4)"><polygon points="-1.32099193e-15,2.66453526e-15 83.6802195,2.66453526e-15 83.6802195,37.0651739 -1.32099193e-15,37.0651739 -1.32099193e-15,2.66453526e-15" stroke="none" fill="#221F1F"></polygon></g></g><g transform="translate(41.22481403914185 39.53618552578973)"><g clip-path="url(#i5)"><polygon points="3.16413562e-15,2.66800471e-15 29.5341951,2.66800471e-15 29.5341951,3.08876449 3.16413562e-15,3.08876449 3.16413562e-15,2.66800471e-15" stroke="none" fill="#221F1F"></polygon></g></g><g transform="translate(67.06723478009667 33.35865653738506)"><g clip-path="url(#i6)"><polygon points="7.38298311e-15,1.69309011e-15 11.6906189,1.69309011e-15 11.6906189,16.6793283 7.38298311e-15,16.6793283 7.38298311e-15,1.69309011e-15" stroke="none" fill="#221F1F"></polygon></g></g><g transform="translate(79.37314941864634 8.648540583766476)"><g clip-path="url(#i7)"><polygon points="-5.55111512e-17,5.55111512e-17 11.6906189,5.55111512e-17 11.6906189,4.94202319 -5.55111512e-17,4.94202319 -5.55111512e-17,5.55111512e-17" stroke="none" fill="#221F1F"></polygon></g></g><g transform="translate(60.914277460821715 40.77169132347058)"><g clip-path="url(#i8)"><polygon points="0,0 6.76825305,0 6.76825305,8.64854058 0,8.64854058 0,0" stroke="none" fill="#221F1F"></polygon></g></g></g><g transform="translate(0.0 2.4710115953618015)"><g clip-path="url(#i9)"><polygon points="0,-1.77635684e-15 81.8343323,-1.77635684e-15 81.8343323,48.1847261 0,48.1847261 0,-1.77635684e-15" stroke="none" fill="#FCD3D4"></polygon></g></g><g transform="translate(31.380082328302247 32.74090363854452)"><g clip-path="url(#i10)"><polygon points="-9.71445147e-17,8.9928065e-15 12.9212104,8.9928065e-15 12.9212104,17.9148341 -9.71445147e-17,17.9148341 -9.71445147e-17,8.9928065e-15" stroke="none" fill="#221F1F"></polygon></g></g><g transform="translate(21.5353506174622 32.74090363854452)"><g clip-path="url(#i11)"><polygon points="-1.95676808e-15,4.76875484e-15 11.6906189,4.76875484e-15 11.6906189,17.9148341 -1.95676808e-15,17.9148341 -1.95676808e-15,4.76875484e-15" stroke="none" fill="#221F1F"></polygon></g></g><g transform="translate(67.06723478009644 33.35865653738506)"><g clip-path="url(#i12)"><polygon points="7.38298311e-15,8.82627305e-15 11.6906189,8.82627305e-15 11.6906189,16.6793283 7.38298311e-15,16.6793283 7.38298311e-15,8.82627305e-15" stroke="none" fill="#221F1F"></polygon></g></g><g transform="translate(1.8458871957823249 0.0)"><g clip-path="url(#i13)"><polygon points="-1.29323635e-15,-3.55271368e-15 82.4496281,-3.55271368e-15 82.4496281,37.0651739 -1.29323635e-15,37.0651739 -1.29323635e-15,-3.55271368e-15" stroke="none" fill="#221F1F"></polygon></g></g><g transform="translate(41.84010977106959 39.53618552578973)"><g clip-path="url(#i14)"><polygon points="3.10862447e-15,1.21430643e-16 28.9188994,1.21430643e-16 28.9188994,3.08876449 3.10862447e-15,3.08876449 3.10862447e-15,1.21430643e-16" stroke="none" fill="#221F1F"></polygon></g></g><g transform="translate(61.52957319274947 40.77169132347058)"><g clip-path="url(#i15)"><polygon points="6.86950496e-16,2.157996e-15 7.99884452,2.157996e-15 7.99884452,9.88404638 6.86950496e-16,9.88404638 6.86950496e-16,2.157996e-15" stroke="none" fill="#221F1F"></polygon></g></g><g transform="translate(79.98844515057408 8.648540583766476)"><g clip-path="url(#i16)"><polygon points="0,5.55111512e-17 11.6906189,5.55111512e-17 11.6906189,4.94202319 0,4.94202319 0,5.55111512e-17" stroke="none" fill="#221F1F"></polygon></g></g></g><g transform="translate(63.44262295081964 27.509724923589964)"><g transform="translate(22.107484704427634 11.470269519310818)"><text transform="translate(0.0 58.0)" font-family="DMSerifDisplay-Regular, DM Serif Display" font-size="56.19236680327869" font-weight="normal" fill="#111111" text-anchor="left">Piggy</text></g><g transform="translate(143.8150461531902 52.04153931647693)"><g clip-path="url(#i17)"><polygon points="0,-4.4408921e-16 51.625914,-4.4408921e-16 51.625914,30.0889136 0,30.0889136 0,-4.4408921e-16" stroke="none" fill="#FCD3D4"></polygon></g></g><g transform="translate(163.4820610117463 71.07738260627957)"><g clip-path="url(#i18)"><polygon points="-5.55111512e-17,5.49560397e-15 7.98972479,5.49560397e-15 7.98972479,11.0530703 -5.55111512e-17,11.0530703 -5.55111512e-17,5.49560397e-15" stroke="none" fill="#221F1F"></polygon></g></g><g transform="translate(157.3361188684473 71.07738260627957)"><g clip-path="url(#i19)"><polygon points="-1.22818422e-15,2.94209102e-15 7.37513057,2.94209102e-15 7.37513057,11.0530703 -1.22818422e-15,11.0530703 -1.22818422e-15,2.94209102e-15" stroke="none" fill="#221F1F"></polygon></g></g><g transform="translate(186.2220469419515 71.69144206724104)"><g clip-path="url(#i20)"><polygon points="4.64905892e-15,5.53723734e-15 7.37513057,5.53723734e-15 7.37513057,10.4390108 4.64905892e-15,10.4390108 4.64905892e-15,5.53723734e-15" stroke="none" fill="#221F1F"></polygon></g></g><g transform="translate(145.0442345818499 50.8134203945541)"><g clip-path="url(#i21)"><polygon points="-8.19223162e-16,-2.55351296e-15 52.2405082,-2.55351296e-15 52.2405082,23.3342595 -8.19223162e-16,23.3342595 -8.19223162e-16,-2.55351296e-15" stroke="none" fill="#221F1F"></polygon></g></g><g transform="translate(170.2425973693748 75.37579883300918)"><g clip-path="url(#i22)"><polygon points="1.99840144e-15,7.2858386e-17 18.4378264,7.2858386e-17 18.4378264,1.84217838 1.99840144e-15,1.84217838 1.99840144e-15,7.2858386e-17" stroke="none" fill="#221F1F"></polygon></g></g><g transform="translate(182.5344816559723 75.98985829397054)"><g clip-path="url(#i23)"><polygon points="4.16333634e-16,1.33573708e-15 4.91675371,1.33573708e-15 4.91675371,6.14059461 4.16333634e-16,6.14059461 4.16333634e-16,1.33573708e-15" stroke="none" fill="#221F1F"></polygon></g></g><g transform="translate(194.2117717282397 56.33995554320654)"><g clip-path="url(#i24)"><polygon points="2.77555756e-17,0 7.37513057,0 7.37513057,3.0702973 2.77555756e-17,3.0702973 2.77555756e-17,0" stroke="none" fill="#221F1F"></polygon></g></g><g transform="translate(293.1614402353493 11.470269519310932)"><text transform="translate(0.0 58.0)" font-family="DMSerifDisplay-Regular, DM Serif Display" font-size="56.19236680327869" font-weight="normal" fill="#111111" text-anchor="left">Piggy</text></g><g transform="translate(414.851094672664 49.5853014726314)"><g clip-path="url(#i25)"><polygon points="0,-2.22044605e-16 51.0113198,-2.22044605e-16 51.0113198,29.4748541 0,29.4748541 0,-2.22044605e-16" stroke="none" fill="#FFFFFF"></polygon></g></g><g transform="translate(434.51810953122 69.2352042233955)"><g clip-path="url(#i26)"><polygon points="2.68535194e-15,1.27675648e-15 7.98972479,1.27675648e-15 7.98972479,11.0530703 2.68535194e-15,11.0530703 2.68535194e-15,1.27675648e-15" stroke="none" fill="#221F1F"></polygon></g></g><g transform="translate(428.3721673879215 69.2352042233955)"><g clip-path="url(#i27)"><polygon points="0,0 6.76053636,0 6.76053636,10.4390108 0,10.4390108 0,0" stroke="none" fill="#221F1F"></polygon></g></g><g transform="translate(457.2580954614252 69.84926368435674)"><g clip-path="url(#i28)"><polygon points="4.64905892e-15,1.08246745e-15 7.37513057,1.08246745e-15 7.37513057,10.4390108 4.64905892e-15,10.4390108 4.64905892e-15,1.08246745e-15" stroke="none" fill="#221F1F"></polygon></g></g><g transform="translate(415.465688886994 48.35718255070856)"><g clip-path="url(#i29)"><polygon points="-8.34835673e-16,1.55431223e-15 52.8551024,1.55431223e-15 52.8551024,23.3342595 -8.34835673e-16,23.3342595 -8.34835673e-16,1.55431223e-15" stroke="none" fill="#221F1F"></polygon></g></g><g transform="translate(441.2786458888484 73.533620450125)"><g clip-path="url(#i30)"><polygon points="1.97064587e-15,1.59074143e-15 18.4378264,1.59074143e-15 18.4378264,1.84217838 1.97064587e-15,1.84217838 1.97064587e-15,1.59074143e-15" stroke="none" fill="#221F1F"></polygon></g></g><g transform="translate(465.2478202477139 53.883717699361)"><g clip-path="url(#i31)"><polygon points="0,5.55111512e-17 7.37513057,5.55111512e-17 7.37513057,3.0702973 0,3.0702973 0,5.55111512e-17" stroke="none" fill="#221F1F"></polygon></g></g><g transform="translate(453.5705301754463 74.14767991108647)"><g clip-path="url(#i32)"><polygon points="0,0 4.3021595,0 4.3021595,5.52653515 0,5.52653515 0,0" stroke="none" fill="#221F1F"></polygon></g></g><g transform="translate(0.0 71.07738260627957)"><path d="M0.461572798,0.614059461 L225.709098,0.614059461" stroke="#969696" stroke-width="0.922131148" fill="none" stroke-linecap="square" stroke-miterlimit="10" stroke-dasharray=" 4.610655784606934 4.610655784606934"></path></g><g transform="translate(0.0 28.70727979994444)"><path d="M0.461572798,0.614059461 L225.709098,0.614059461" stroke="#969696" stroke-width="0.922131148" fill="none" stroke-linecap="square" stroke-miterlimit="10" stroke-dasharray=" 4.610655784606934 4.610655784606934"></path></g><g transform="translate(0.0 15.19797165879424)"><path d="M0.461572798,0.614059461 L225.709098,0.614059461" stroke="#969696" stroke-width="0.922131148" fill="none" stroke-linecap="square" stroke-miterlimit="10" stroke-dasharray=" 4.610655784606934 4.610655784606934"></path></g><g transform="translate(203.36928947536688 0.0) rotate(90.0)"><path d="M0,0.245901639 L107.767435,0.245901639" stroke="#969696" stroke-width="0.922131148" fill="none" stroke-linecap="square" stroke-miterlimit="10" stroke-dasharray=" 4.610655784606934 4.610655784606934"></path></g><g transform="translate(0.0 85.20075020839124)"><path d="M0.461572798,0.614059461 L225.709098,0.614059461" stroke="#969696" stroke-width="0.922131148" fill="none" stroke-linecap="square" stroke-miterlimit="10" stroke-dasharray=" 4.610655784606934 4.610655784606934"></path></g><g transform="translate(23.90777889104403 0.0) rotate(90.0)"><path d="M0,0.245901639 L107.767435,0.245901639" stroke="#969696" stroke-width="0.922131148" fill="none" stroke-linecap="square" stroke-miterlimit="10" stroke-dasharray=" 4.610655784606934 4.610655784606934"></path></g></g><g transform="translate(0.0 263.1147540983607)"><g clip-path="url(#i33)"><polygon points="0,0 600,0 600,130.885246 0,130.885246 0,0" stroke="none" fill="#2A2A2A"></polygon></g><g transform="translate(86.05629779702986 27.049180327868953)"><text transform="translate(0.0 58.0)" font-family="DMSerifDisplay-Regular, DM Serif Display" font-size="56.19236680327869" font-weight="normal" fill="#FFFFFF" text-anchor="left">Piggy</text><g transform="translate(121.72574332939712 39.34546917429361)"><g transform="translate(0.0 1.2310167957357407)"><g clip-path="url(#i34)"><polygon points="0,-4.4408921e-16 51.643673,-4.4408921e-16 51.643673,30.1599115 0,30.1599115 0,-4.4408921e-16" stroke="none" fill="#000000"></polygon></g></g><g transform="translate(19.67378020948968 20.31177712963881)"><g clip-path="url(#i35)"><polygon points="-6.24500451e-17,5.44009282e-15 7.99247321,5.44009282e-15 7.99247321,11.0791512 -6.24500451e-17,11.0791512 -6.24500451e-17,5.44009282e-15" stroke="none" fill="#FFFFFF"></polygon></g></g><g transform="translate(13.5257238940244 20.31177712963881)"><g clip-path="url(#i36)"><polygon points="-1.22818422e-15,2.94902991e-15 7.37766758,2.94902991e-15 7.37766758,11.0791512 -1.22818422e-15,11.0791512 -1.22818422e-15,2.94902991e-15" stroke="none" fill="#FFFFFF"></polygon></g></g><g transform="translate(42.42158857671234 20.92728552750714)"><g clip-path="url(#i37)"><polygon points="4.67681449e-15,5.53723734e-15 7.37766758,5.53723734e-15 7.37766758,10.4636428 4.67681449e-15,10.4636428 4.67681449e-15,5.53723734e-15" stroke="none" fill="#FFFFFF"></polygon></g></g><g transform="translate(1.2296112630931475 0.0)"><g clip-path="url(#i38)"><polygon points="-8.19223162e-16,-2.55351296e-15 52.2584787,-2.55351296e-15 52.2584787,23.3893191 -8.19223162e-16,23.3893191 -8.19223162e-16,-2.55351296e-15" stroke="none" fill="#FFFFFF"></polygon></g></g><g transform="translate(26.436642156501875 24.62033591471391)"><g clip-path="url(#i39)"><polygon points="1.99840144e-15,7.45931095e-17 18.4441689,7.45931095e-17 18.4441689,1.84652519 1.99840144e-15,1.84652519 1.99840144e-15,7.45931095e-17" stroke="none" fill="#FFFFFF"></polygon></g></g><g transform="translate(38.7327547874329 25.23584431258155)"><g clip-path="url(#i40)"><polygon points="4.16333634e-16,1.34267597e-15 4.91844505,1.34267597e-15 4.91844505,6.15508398 4.16333634e-16,6.15508398 4.16333634e-16,1.34267597e-15" stroke="none" fill="#FFFFFF"></polygon></g></g><g transform="translate(50.41406178681768 5.539575580810379)"><g clip-path="url(#i41)"><polygon points="0,2.77555756e-17 7.37766758,2.77555756e-17 7.37766758,3.07754199 0,3.07754199 0,2.77555756e-17" stroke="none" fill="#FFFFFF"></polygon></g></g></g></g><g transform="translate(386.0655737704919 44.75409836065569)"><g transform="translate(0.0 1.803278688524415)"><g clip-path="url(#i42)"><polygon points="0,-8.8817842e-16 81.7622951,-8.8817842e-16 81.7622951,46.8852459 0,46.8852459 0,-8.8817842e-16" stroke="none" fill="#000000"></polygon></g></g><g transform="translate(30.7377049180327 31.256830601092815)"><g clip-path="url(#i43)"><polygon points="-1.11022302e-16,8.65973959e-15 12.9098361,8.65973959e-15 12.9098361,17.431694 -1.11022302e-16,17.431694 -1.11022302e-16,8.65973959e-15" stroke="none" fill="#FFFFFF"></polygon></g></g><g transform="translate(20.90163934426209 31.256830601092815)"><g clip-path="url(#i44)"><polygon points="-1.94289029e-15,4.6403853e-15 11.6803279,4.6403853e-15 11.6803279,17.431694 -1.94289029e-15,17.431694 -1.94289029e-15,4.6403853e-15" stroke="none" fill="#FFFFFF"></polygon></g></g><g transform="translate(67.00819672131138 32.45901639344265)"><g clip-path="url(#i45)"><polygon points="7.41073869e-15,8.60422844e-15 11.6803279,8.60422844e-15 11.6803279,16.2295082 7.41073869e-15,16.2295082 7.41073869e-15,8.60422844e-15" stroke="none" fill="#FFFFFF"></polygon></g></g><g transform="translate(1.8442622950817622 0.0)"><g clip-path="url(#i46)"><polygon points="-1.29106795e-15,-3.55271368e-15 82.3770492,-3.55271368e-15 82.3770492,36.0655738 -1.29106795e-15,36.0655738 -1.29106795e-15,-3.55271368e-15" stroke="none" fill="#FFFFFF"></polygon></g></g><g transform="translate(41.18852459016398 37.86885245901635)"><g clip-path="url(#i47)"><polygon points="3.10862447e-15,1.14491749e-16 28.8934426,1.14491749e-16 28.8934426,3.00546448 3.10862447e-15,3.00546448 3.10862447e-15,1.14491749e-16" stroke="none" fill="#FFFFFF"></polygon></g></g><g transform="translate(60.860655737704754 39.07103825136596)"><g clip-path="url(#i48)"><polygon points="6.86950496e-16,2.10942375e-15 7.99180328,2.10942375e-15 7.99180328,9.61748634 6.86950496e-16,9.61748634 6.86950496e-16,2.10942375e-15" stroke="none" fill="#FFFFFF"></polygon></g></g><g transform="translate(79.30327868852464 9.016393442622757)"><g clip-path="url(#i49)"><polygon points="0,0 11.6803279,0 11.6803279,4.80874317 0,4.80874317 0,0" stroke="none" fill="#FFFFFF"></polygon></g></g></g></g></g></svg>