<?xml version="1.0" encoding="UTF-8"?><svg version="1.1" width="1200px" height="788px" viewBox="0 0 1200.0 788.0" xmlns="http://www.w3.org/2000/svg" xmlns:xlink="http://www.w3.org/1999/xlink"><defs><clipPath id="i0"><path d="M1200,0 L1200,788 L0,788 L0,0 L1200,0 Z"></path></clipPath><clipPath id="i1"><path d="M29.8018795,2.08297923 C35.5640296,-1.33914546 45.4838862,-0.939802043 58.8009252,6.26818163 C69.1931809,11.8930353 78.3953476,15.316897 89.6649159,14.6795804 C101.754102,13.9960587 116.198815,8.31093004 134.974144,13.5876827 C164.295407,21.8291998 165.052434,45.4498679 156.39295,58.0525486 C154.356144,61.0187027 151.812322,63.5636267 148.889112,65.7349154 C150.868223,74.3816819 150.897945,85.500417 148.065648,93.8984406 L136.073844,93.8984406 C136.920036,88.5119076 136.97948,80.5337244 134.428664,74.9582024 C132.53697,75.5588677 131.015922,75.9479627 129.028069,76.3942059 C132.210032,84.2983916 128.998348,93.8984406 128.998348,93.8984406 L118.321289,93.8984406 C120.428028,89.0218999 118.70767,82.0779449 117.403415,78.1625035 C105.8417,79.1765821 93.879618,78.218957 84.0013717,76.1796826 C82.3839905,75.8458253 80.8180102,75.4939028 79.2978362,75.1265207 C77.5189091,82.2059641 74.7838198,88.8862378 71.6597267,93.8984406 L57.7716826,93.8984406 C61.4533186,86.5440252 63.3322501,78.3230051 63.3100463,70.1117124 C61.93376,69.5687165 60.6015316,69.0121718 59.3110883,68.4432941 C57.8309511,77.8892685 54.405096,87.3274262 50.3091056,93.8984406 L38.2510398,93.8984406 C44.8168978,85.7100767 47.148822,71.7222875 45.184397,61.0126231 C36.2228008,55.5739791 28.799736,49.887982 19.8208313,45.2968355 C14.9492811,42.8059331 9.36773361,40.4663261 3.92972413,41.1276138 C1.19008907,35.7551507 0.673457193,31.9718973 0,25.9862623 C17.7724864,28.0361325 23.8005577,14.4871173 41.0008152,11.4526979 C37.73231,9.21661798 36.6710729,3.72603682 29.8018795,2.08297923 Z"></path></clipPath><clipPath id="i2"><path d="M24.8585363,0.00187867304 C25.4350551,0.0369117645 25.8748864,0.555032748 25.8405383,1.15981454 C25.1771805,12.8479601 21.2861624,26.2527272 15.9275136,35.3115471 C15.7365736,35.6342204 15.400315,35.8296681 15.0381632,35.8296681 L1.04599867,35.8296681 C0.683846875,35.8296681 0.347588226,35.6342204 0.157000558,35.3115471 C-0.0339393979,34.9888739 -0.0519060727,34.5869153 0.109617857,34.2476475 C3.6819917,26.7284397 5.57448144,18.2375247 5.58311249,9.69498192 C5.58364093,9.09020013 6.05183133,8.6015807 6.6290548,8.6015807 C7.20768741,8.6015807 7.67552553,9.09204398 7.6749971,9.69682577 C7.66671834,17.9830738 5.95248619,26.2213818 2.70456936,33.639178 L14.4512518,33.639178 C19.4843868,24.8790613 23.1207008,12.1602052 23.7523528,1.02890141 C23.7867008,0.425963464 24.2791991,-0.0331544184 24.8585363,0.00187867304 Z"></path></clipPath><clipPath id="i3"><path d="M7.43033102,0.521490741 L22.1506463,7.58529817 C20.5749942,17.1568424 16.9848936,26.7000369 12.6994952,33.3586565 L0,33.3586565 C6.87582431,25.0539865 9.34416808,10.9004332 7.33818994,0 Z"></path></clipPath><clipPath id="i4"><path d="M62.0101802,6.0198122 C78.7306679,15.3098822 90.615011,15.1008265 102.501326,13.7941004 L103.37113,13.6966493 L104.241362,13.5960116 C104.38646,13.5790137 104.531593,13.5619136 104.676771,13.5447264 L105.984796,13.3881022 L106.858841,13.2822934 C117.303165,12.0170219 128.102933,10.7092798 142.338666,14.8749428 C153.107916,18.0283885 160.816395,24.2060985 164.629345,32.7409296 C169.287822,43.1657046 167.232348,54.3903436 164.056684,60.8334951 C161.922222,65.1637318 158.854269,68.8516 154.940789,71.7962317 C154.474044,72.1483842 153.804444,72.0599037 153.447204,71.5980353 C153.089965,71.136167 153.179723,70.4778719 153.648264,70.1257195 C157.294263,67.3810537 160.150385,63.9462399 162.137643,59.9150673 C165.351005,53.3975921 166.763807,42.7303805 162.679786,33.588573 C159.075076,25.5226887 152.027221,19.9041756 141.730102,16.890529 C127.921621,12.8487388 117.346249,14.1299368 107.119141,15.3686641 C106.826069,15.4041692 106.533343,15.4396327 106.240893,15.4749366 L105.364305,15.5802513 C105.07234,15.6151179 104.780583,15.6497069 104.488966,15.6839003 L103.614464,15.7851757 L102.740388,15.8833695 C102.594722,15.899439 102.449056,15.9153507 102.303381,15.9310897 L101.429172,16.023334 C89.624203,17.2374788 77.6543451,17.1254166 60.9632345,7.84958938 C47.6920494,0.47562274 38.9461396,1.66480095 34.4556906,3.39901916 C37.7342175,4.85540854 39.5126967,7.23199534 40.9965877,9.21572863 C41.9372591,10.4739216 42.7493959,11.5586928 43.7699525,12.2523801 C44.1261151,12.4930471 44.2988109,12.9230625 44.207257,13.3406905 C44.1153441,13.756549 43.7774923,14.0768485 43.3516769,14.1511721 C35.9166035,15.4536054 30.5447239,18.7185366 25.3498484,21.8772912 C18.610046,25.975709 12.2287399,29.854695 2.27378023,29.0937625 C2.87498411,34.2008582 3.47888075,37.6604466 5.7285932,42.2313503 C11.4178596,41.801335 17.080737,44.213314 21.9058065,46.6624548 C27.858425,49.6814102 32.9705429,53.0737534 38.383173,56.6660626 C46.4316575,62.0085164 54.7542651,67.5314706 66.467239,72.1023743 C67.0147671,72.3164972 67.2826071,72.9270128 67.0661091,73.466744 C66.9004145,73.8790632 66.4990135,74.1303479 66.0746343,74.1303479 C65.9439457,74.1303479 65.8112823,74.1073429 65.6823888,74.0560242 C53.7548916,69.4019488 45.335165,63.8135191 37.1924339,58.4091288 C31.8334795,54.8539815 26.7716265,51.4934913 20.9301293,48.5311634 C16.1795595,46.120954 10.6005168,43.7443672 5.23043232,44.3920447 C4.78504958,44.445133 4.35295112,44.2186228 4.15009642,43.8239997 C1.27584283,38.2320308 0.703182225,34.1831621 0.00665459123,28.0408443 C-0.0296079299,27.7223145 0.0836675692,27.4055542 0.313808916,27.1790441 C0.543770746,26.9525339 0.866004535,26.8428181 1.18877688,26.8799799 C10.8247276,27.9823208 17.062445,24.4378633 23.5127934,20.5243512 L24.2305572,20.0882151 C29.1093025,17.122348 34.1392014,14.0644612 40.9032387,12.5036648 C40.3368612,11.8754531 39.8166197,11.1799962 39.2807601,10.463304 C37.4900738,8.07079069 35.6383515,5.5951057 31.4169991,4.5935062 C30.9958512,4.49263841 30.6779258,4.1528732 30.6125814,3.72993631 C30.5474166,3.30699942 30.7475786,2.88937136 31.1195387,2.66993967 C34.747945,0.532250274 45.0217276,-3.42105942 62.0101802,6.0198122 Z"></path></clipPath><clipPath id="i5"><path d="M59.0314936,0.877276153 C59.1844822,1.50963601 58.8479072,2.15994931 58.2773498,2.32950952 C50.3993368,4.67143531 39.5623444,6.17752899 28.3131827,6.17752899 C18.9376813,6.17752899 9.27690126,5.13224013 0.79611325,2.65067652 C0.225375781,2.48311113 -0.114978856,1.83479266 0.0356699178,1.2024328 C0.186138705,0.57007294 0.770555154,0.191055989 1.34183258,0.358621378 C19.639629,5.71472934 43.5544469,4.25252184 57.7229911,0.0414440348 C58.2935486,-0.130111006 58.8803048,0.246911119 59.0314936,0.877276153 Z"></path></clipPath><clipPath id="i6"><path d="M1.77312183,0.351551545 C4.93938373,4.01739052 7.35316451,8.99310745 8.75161117,14.7401969 C10.0538502,20.0834074 10.3905769,25.744991 9.7394574,31.1973579 L19.6041757,31.1973579 C21.5558163,24.4514865 21.889107,14.9494136 20.4855063,5.56377421 C20.3978887,4.97432913 20.7775652,4.42126956 21.3341951,4.32848653 C21.890825,4.23570351 22.413095,4.63776327 22.5007126,5.22720835 C24.0056749,15.2859794 23.5624326,25.526678 21.3170152,32.6218502 C21.1761397,33.0621147 20.7878732,33.3586565 20.3497849,33.3586565 L8.56606788,33.3586565 C8.26713702,33.3586565 7.98366811,33.2203916 7.79125284,32.9802474 C7.59711958,32.7401031 7.51121991,32.4235492 7.55760573,32.1106339 C9.21031542,20.9493823 6.28113661,8.7711559 0.268159579,1.80879076 C-0.113234965,1.36852623 -0.0840290761,0.686298131 0.331725336,0.282419097 C0.747479748,-0.119640661 1.39344528,-0.0887129877 1.77312183,0.351551545 Z"></path></clipPath><clipPath id="i7"><path d="M15.4765677,1.4546519 L15.648055,1.55606083 C17.6837748,0.396085059 20.1472908,-0.0575864462 22.4835744,0.356944772 C23.0791699,0.461911905 23.4719311,1.01343413 23.3631381,1.5880847 C23.2525012,2.16095617 22.6827209,2.53990531 22.0871253,2.43493818 C20.5216125,2.15739796 18.8804978,2.38156506 17.4440614,3.02737979 C17.7722844,3.40099162 18.0415009,3.7995109 18.2480233,4.21937943 C18.9431921,5.63376706 18.8620583,7.23673972 18.0341252,8.4038319 C17.3610837,9.35387341 16.2436506,9.88404638 15.1428129,9.88404638 C14.6025358,9.88404638 14.0641027,9.7559509 13.5865199,9.4855271 C12.3934848,8.8094676 11.7628542,7.37906803 12.0154752,5.92554011 C12.1961822,4.89365982 12.7825581,3.89558251 13.763539,2.95799474 C11.7554784,1.99905771 9.36572034,1.84071746 7.2433349,2.55057993 C4.91073926,3.32982746 2.99487612,5.12494334 2.11900029,7.35060237 C1.90325824,7.89678728 1.27262764,8.17076929 0.706535263,7.96261412 C0.140442883,7.75623807 -0.143525282,7.14600541 0.0722167653,6.5998205 C1.17489834,3.79595269 3.58862774,1.53471158 6.52788264,0.55442531 C9.46529359,-0.427640066 12.8102173,-0.0913894211 15.4765677,1.4546519 Z M15.5908926,4.19803018 C15.5005391,4.27631076 15.4101856,4.35637043 15.3235199,4.43820922 C14.6652301,5.06623291 14.2780008,5.68358197 14.1747396,6.27424448 C14.0770103,6.84177864 14.3001282,7.43955757 14.6947333,7.66194556 C15.140969,7.91457832 15.8840805,7.69396943 16.227055,7.21183226 C16.6050646,6.67810108 16.6216601,5.84192223 16.2694658,5.12672244 C16.1090423,4.80114642 15.8822365,4.49158233 15.5908926,4.19803018 Z"></path></clipPath><clipPath id="i8"><path d="M11.8893495,0 C15.6205815,9.11724776 11.8459841,17.2970812 11.8459841,17.2970812 L0.813101407,17.2970812 C2.99582696,10.8934013 1.34613455,5.06475958 0,1.77785481 Z"></path></clipPath><clipPath id="i9"><path d="M30.25687,2.13779448 C36.1069918,-1.37438613 46.1782967,-0.964533675 59.6986493,6.43313378 C70.2495654,12.2060099 79.5922231,15.7199732 91.0338459,15.0658851 C103.3076,14.364376 117.972842,8.52963872 137.034818,13.9452533 C166.803734,22.4036524 167.572319,46.645917 158.780628,59.5802473 C156.712726,62.624458 154.130067,65.2363538 151.162228,67.4647816 C153.171555,76.3390945 153.20173,87.750428 150.326192,96.3694522 L138.151307,96.3694522 C139.010419,90.8411683 139.07077,82.653033 136.48101,76.9307867 C134.560435,77.547259 133.016165,77.9465933 130.997963,78.4045798 C134.228506,86.5167703 130.967788,96.3694522 130.967788,96.3694522 L120.127721,96.3694522 C122.266624,91.3645815 120.520001,84.2378909 119.195833,80.2194114 C107.457604,81.2601764 95.3128947,80.2773506 85.2838354,78.1844111 C83.6417613,77.841768 82.0518729,77.4805844 80.5084902,77.1035344 C78.7024039,84.369279 75.9255575,91.2253493 72.7537683,96.3694522 L58.6536931,96.3694522 C62.3915372,88.8214996 64.2991547,80.3841368 64.2766119,71.9567574 C62.8793136,71.3994722 61.5267458,70.8282815 60.2166011,70.2444334 C58.7138663,79.9389861 55.2357081,89.6255164 51.0771835,96.3694522 L38.8350252,96.3694522 C45.5011253,87.965605 47.8686514,73.6097161 45.8742352,62.6182184 C36.7758206,57.0364523 29.2394266,51.2008236 20.1234394,46.4888575 C15.1775144,43.932405 9.51075245,41.5312294 3.98971991,42.2099194 C1.20825837,36.6960757 0.683738982,32.813263 0,26.6701113 C18.043822,28.7739255 24.1639249,14.8683573 41.6267819,11.7540847 C38.3083758,9.45916056 37.2309366,3.82409042 30.25687,2.13779448 Z"></path></clipPath><clipPath id="i10"><path d="M24.8585374,0.00189569433 C25.4350556,0.037849952 25.8748864,0.556144405 25.8405383,1.15980717 C25.1771813,12.8482598 21.2861675,26.2534821 15.9273485,35.3113737 C15.736761,35.6336713 15.4003266,35.8296681 15.0381752,35.8296681 L1.04602624,35.8296681 C0.683874847,35.8296681 0.347616572,35.6336713 0.157029115,35.3113737 C-0.0339106281,34.9892604 -0.0518772829,34.5865727 0.109470323,34.247312 C3.68201634,26.7290002 5.57468012,18.2390015 5.58313502,9.69516356 C5.58362822,9.13105663 5.99150651,8.66717418 6.51519163,8.60783033 L6.62960459,8.60141661 C7.20770813,8.60196975 7.67554573,9.09279146 7.6750173,9.69737613 C7.66673855,17.9830809 5.95233216,26.2223217 2.70459508,33.6399617 L14.4512645,33.6399617 C19.4842177,24.8794763 23.1207039,12.1610725 23.7523551,1.03000308 C23.7868792,0.426340316 24.2758541,-0.0333210401 24.8585374,0.00189569433 Z"></path></clipPath><clipPath id="i11"><path d="M9.13484498,0.877932622 C11.1258511,12.2562894 8.66252278,25.381114 3.12007819,33.7036889 L12.6613406,33.7036889 C16.6612197,26.9709441 19.874249,17.6260159 21.2931615,8.56017175 C21.3837342,7.98052197 21.9215093,7.58489937 22.4950181,7.67655492 C23.0679963,7.76856851 23.4587677,8.31295237 23.3681951,8.89278116 C21.8721543,18.4512739 18.4238484,28.3330673 14.1441139,35.3264577 C13.9525315,35.6393754 13.61483,35.8296681 13.2509473,35.8296681 L1.05035167,35.8296681 C0.647020351,35.8296681 0.279245869,35.5958749 0.104292063,35.2281786 C-0.0710155422,34.8604823 -0.0225450237,34.4236863 0.228829454,34.1043239 C6.19583332,26.5250183 9.07116109,12.7072275 7.06582606,1.24849316 C6.96481633,0.670454523 7.34585829,0.118910068 7.91706743,0.0165136289 C8.48809967,-0.0860618248 9.03365835,0.299893983 9.13484498,0.877932622 Z"></path></clipPath><clipPath id="i12"><path d="M1.77312968,0.351263778 C4.93940559,4.01745816 7.35319705,8.99279976 8.7516499,14.7393302 C10.0521767,20.0828922 10.3906229,25.7455543 9.73950049,31.1980906 L19.6042625,31.1980906 C21.5541936,24.4511432 21.8892038,14.9487283 20.485597,5.56402021 C20.3979789,4.97475842 20.7776572,4.42133626 21.3342895,4.32800767 C21.8892038,4.23486101 22.4131942,4.63691984 22.5008122,5.22618163 C24.0057811,15.2851114 23.5625369,25.5265141 21.3153915,32.62167 C21.1762334,33.0619335 20.7879652,33.3586565 20.3481569,33.3586565 L8.56610578,33.3586565 C8.2671736,33.3586565 7.98370343,33.2205739 7.78956931,32.9806121 C7.5971532,32.7408322 7.51125315,32.4230056 7.55763917,32.1111826 C9.21035617,20.9486832 6.2794464,8.77139451 0.268160765,1.80940927 C-0.113235466,1.36914575 -0.0840294479,0.685645739 0.331726804,0.283041126 C0.747483055,-0.11938156 1.39345145,-0.0891816661 1.77312968,0.351263778 Z"></path></clipPath><clipPath id="i13"><path d="M61.0981835,6.01939574 C76.5680641,14.7440775 87.8368053,15.0911113 98.8507276,14.0193126 L99.7085087,13.9330461 C100.565912,13.8441519 101.422391,13.7477402 102.279812,13.6471034 L103.137617,13.5451803 C103.423702,13.5108177 103.709962,13.4761077 103.996464,13.4411721 L104.85677,13.3358106 C105.000299,13.3181782 105.143905,13.3005199 105.287599,13.2828509 C115.578316,12.0175947 126.21925,10.7091606 140.243846,14.8761889 C150.85648,18.0288887 158.451588,24.206701 162.208461,32.7417828 C166.798425,43.1666088 164.77318,54.3896964 161.642453,60.832947 C159.539383,65.1629544 156.51832,68.8513089 152.662396,71.7953742 C152.200747,72.1473454 151.542764,72.058866 151.190778,71.5975341 C150.838792,71.1362022 150.927231,70.4766764 151.38888,70.1247051 C154.981257,67.3816652 157.795374,63.946362 159.753405,59.9143534 C162.919507,53.3978417 164.311531,42.7304051 160.285805,33.5890621 C156.73411,25.5227443 149.791679,19.9046531 139.646001,16.890689 C126.769465,13.0651346 116.74632,14.0077839 107.166931,15.1700191 L106.084238,15.3022865 C105.904062,15.324406 105.724012,15.3465425 105.544071,15.3686655 L104.678631,15.4749579 L103.814836,15.5802898 C103.670985,15.5977257 103.527185,15.6150922 103.383428,15.6323744 L102.090557,15.785241 C89.7432254,17.2166202 77.5275906,17.6976932 60.0666354,7.85021256 C46.9913399,0.475804162 38.3738812,1.66567583 33.9489436,3.39951917 C37.1790755,4.85624486 38.9315751,7.23333382 40.3936423,9.21668921 C41.320479,10.4738053 42.1206716,11.5594481 43.1262187,12.2520653 C43.4771431,12.4937911 43.647299,12.9238013 43.5570916,13.3403625 C43.4665305,13.7569238 43.1336475,14.0775733 42.7140947,14.15225 C35.3883705,15.4536058 30.0956731,18.7195593 24.9771998,21.8779218 C24.7073008,22.0444598 24.4379812,22.2106385 24.168981,22.3761608 L23.362679,22.8704618 C17.855947,26.2306717 12.3742804,29.1902491 4.6792994,29.1905715 C3.89025008,29.1905715 3.07838359,29.1596037 2.24033927,29.0946598 C2.83270111,34.2016938 3.42771612,37.6600016 5.64434157,42.2317349 C11.2504654,41.8022556 16.8293501,44.2140285 21.5834563,46.6617241 C27.4487053,49.6817048 32.4858151,53.0745378 37.8186636,56.6666266 C45.7487774,62.0079541 53.9489827,67.5313724 65.4896913,72.1023978 C66.02899,72.3159872 66.2930677,72.9266724 66.0797538,73.4662201 C65.9164961,73.8788883 65.5209986,74.1303479 65.1028608,74.1303479 C64.9740942,74.1303479 64.8433819,74.1066344 64.7163841,74.0563781 C52.9643071,69.4016511 44.6682344,63.8138198 36.6454369,58.4098488 C31.3652978,54.8533287 26.3778906,51.4939409 20.6223055,48.5304101 C15.9416033,46.1204068 10.4431977,43.7442027 5.15350726,44.3918722 C4.71608987,44.4458447 4.28910823,44.2184525 4.08906008,43.8236572 C1.25707874,38.2315789 0.692840376,34.1829361 0.00655672076,28.0403387 C-0.0291724799,27.7219896 0.0824370528,27.4048792 0.309193663,27.1789027 C0.535950272,26.9531032 0.852560516,26.8425039 1.17129329,26.8798422 C10.3030691,27.9398582 16.3348927,24.7033098 22.4361474,20.9738304 L23.1544535,20.5330234 L23.8745471,20.0890443 C28.6815396,17.1228591 33.6372859,14.0648323 40.3016662,12.5035239 C39.7434416,11.8754967 39.2310283,11.1804022 38.7030498,10.4640725 C36.9386994,8.07070335 35.1142107,5.59557916 30.9549427,4.59381481 C30.5399887,4.49383303 30.2267391,4.15265626 30.1623558,3.73060928 C30.0981494,3.30838533 30.2953675,2.88934665 30.6618571,2.67027153 C34.2368997,0.532431012 44.3594067,-3.42118481 61.0981835,6.01939574 Z"></path></clipPath><clipPath id="i14"><path d="M57.8017884,0.877806852 C57.9515892,1.50948123 57.6202652,2.15910658 57.063359,2.32864343 C49.3495026,4.67004715 38.738324,6.17752899 27.7218022,6.17752899 C18.5434235,6.17752899 9.08306688,5.13138686 0.77952439,2.64956673 C0.220679556,2.48242334 -0.112583006,1.83439363 0.0349266526,1.20192143 C0.182436311,0.569449228 0.755027565,0.192080131 1.3138724,0.359223526 C19.2289821,5.71399528 42.6472418,4.25218866 56.5205516,0.040693691 C57.0792202,-0.12864371 57.6519877,0.245933015 57.8017884,0.877806852 Z"></path></clipPath><clipPath id="i15"><path d="M14.2347706,0.662289911 C17.8529814,9.53659861 14.8793102,17.4725041 14.2714727,18.9221559 L14.208463,19.0691785 C14.1919991,19.1066576 14.1802906,19.1324745 14.1739854,19.146228 C14.0008395,19.5238385 13.6066563,19.7680928 13.1701076,19.7680928 L1.92299219,19.7680928 C1.57301644,19.7680928 1.24514443,19.6103633 1.03884293,19.3434768 C0.832541439,19.0767644 0.775440132,18.7329282 0.882274835,18.4185139 C2.90476627,12.459963 1.55828062,6.86718421 0.0736466575,3.22443545 C-0.143706702,2.69170695 0.136273897,2.093519 0.69991905,1.88808775 C1.2635642,1.68300468 1.89720451,1.94832437 2.11455787,2.48105287 C3.61392765,6.16053552 4.97883307,11.6855916 3.37262858,17.7005491 L12.4130548,17.7005491 C13.1664236,15.647107 15.2073348,8.794582 12.1938594,1.40567249 C11.9765061,0.872943992 12.2583286,0.274581946 12.8219738,0.0693247876 C13.3856189,-0.135758276 14.0174173,0.129561409 14.2347706,0.662289911 Z"></path></clipPath><clipPath id="i16"><path d="M15.4750124,1.45482139 C15.5340166,1.48844791 15.5911769,1.52260818 15.6464934,1.55676845 C17.6839828,0.396208802 20.145565,-0.05819398 22.4836071,0.357066824 C23.079181,0.462572247 23.4719278,1.01340663 23.3631388,1.58719245 C23.2525059,2.16115618 22.6827464,2.5401217 22.0871726,2.43515003 C20.5217169,2.15688615 18.8806621,2.38124085 17.4424343,3.02672765 C17.7724891,3.40142313 18.039852,3.7996038 18.2482106,4.22002423 C18.9433541,5.63376131 18.8622233,7.23733699 18.0343203,8.40447961 C17.3613035,9.35331674 16.2420672,9.88386846 15.1431136,9.88404638 C14.6010124,9.88404638 14.0644428,9.75558953 13.5868774,9.48533196 C12.3938858,8.809777 11.7632782,7.37895978 12.0158901,5.92501321 C12.1947466,4.89397792 12.7829449,3.89567956 13.7620461,2.9573396 C11.7559027,1.99907281 9.36623188,1.84143739 7.24392391,2.55061886 C4.91141341,3.32972214 2.9956202,5.12420392 2.11977633,7.35084872 C1.90404216,7.89634557 1.27343458,8.17069525 0.707362859,7.96342068 C0.14129114,7.75632403 -0.14266666,7.14624293 0.0712236309,6.60074609 C1.17570884,3.79586752 3.58935014,1.53541828 6.52665388,0.553844223 C9.4658015,-0.427729837 12.8106031,-0.0907529891 15.4750124,1.45482139 Z M15.5911769,4.19831822 C15.4989828,4.27642426 15.4104765,4.35666532 15.323814,4.43904139 C14.6655482,5.06566887 14.278333,5.68340046 14.1750757,6.275156 C14.0773499,6.84253676 14.3004596,7.43909609 14.6950503,7.66291704 C15.1394259,7.91449321 15.8843541,7.69476438 16.2273161,7.21118303 C16.603468,6.67885213 16.6219068,5.8412138 16.2697254,5.12669478 C16.1093077,4.80199428 15.8825102,4.49206098 15.5911769,4.19831822 Z"></path></clipPath><clipPath id="i17"><path d="M19.0878147,1.33494405 C22.7784159,-0.858234317 29.1319878,-0.60230228 37.6614221,4.01716523 C44.3175611,7.62203309 50.2114595,9.81632469 57.4295087,9.40787987 C65.1725151,8.96982308 74.4242134,5.32632606 86.4496296,8.70810223 C105.229614,13.9899428 105.714483,29.1280055 100.168167,37.2048376 C98.8636126,39.1057926 97.2343193,40.7367888 95.3620318,42.1283288 C96.6296332,47.6698864 96.6486696,54.7956844 94.8346111,60.1778272 L87.153977,60.1778272 C87.6959549,56.7256947 87.7340278,51.6126202 86.1002553,48.0393681 C84.8886434,48.4243237 83.9144268,48.6736877 82.6412265,48.959677 C84.1697388,52.7589152 83.3947747,57.1695056 82.9117606,59.1373484 L82.8450249,59.4015217 C82.7166466,59.8953145 82.6221901,60.1778272 82.6221901,60.1778272 L75.7836375,60.1778272 C77.1329835,57.0525397 76.0311109,52.6022834 75.1957482,50.0929472 C67.7905822,50.742852 60.1289845,50.1291272 53.8020636,48.8221928 C52.7661466,48.6082296 51.7631514,48.3826888 50.7894947,48.1472403 C49.6501092,52.6843286 47.898311,56.9655962 45.8973597,60.1778272 L37.0022022,60.1778272 C39.3602543,55.4645142 40.5636918,50.1958098 40.5494704,44.9333395 C39.6679724,44.5853432 38.814693,44.2286636 37.9881766,43.8640801 C37.0401631,49.9178358 34.8459361,55.9665818 32.222494,60.1778272 L24.4994199,60.1778272 C28.7047882,54.9300515 30.1983631,45.9655282 28.9401679,39.1018963 C23.2003525,35.6163669 18.4459515,31.9723133 12.6950501,29.0299298 C9.5748695,27.4335551 5.99994249,25.9341429 2.51695018,26.3579503 C0.762240506,22.9148351 0.431342798,20.4902158 0,16.6541296 C11.3831051,17.9678547 15.2440263,9.28453376 26.2606244,7.33982878 C24.1671784,5.90676523 23.4874664,2.3879502 19.0878147,1.33494405 Z"></path></clipPath><clipPath id="i18"><path d="M15.3710733,0.00116960294 C15.7275587,0.0233526126 15.9995244,0.343129229 15.9782856,0.715576274 C15.5681042,7.92710208 13.1621276,16.1978382 9.8485457,21.786364 C9.7306975,21.9852148 9.52266603,22.1061406 9.29873268,22.1061406 L0.646801774,22.1061406 C0.42286842,22.1061406 0.214945865,21.9852148 0.0970976696,21.786364 C-0.0209683596,21.587627 -0.0320778937,21.3391773 0.0676900793,21.1298607 C2.2767447,16.4912227 3.44705787,11.2530747 3.45228589,5.98170901 C3.45258294,5.64270712 3.69186729,5.36237104 4.00353112,5.31420251 L4.09936179,5.30689048 C4.45682739,5.30723176 4.74611095,5.61005828 4.7457842,5.98307412 C4.7406651,11.0951771 3.68057592,16.1786129 1.67236426,20.7551384 L8.93582123,20.7551384 C12.0479067,15.3501059 14.2964982,7.5031222 14.6870746,0.635489921 C14.7084223,0.263042876 15.0107759,-0.0205583706 15.3710733,0.00116960294 Z"></path></clipPath><clipPath id="i19"><path d="M5.76279794,0.541665692 C7.01884182,7.56186897 5.46482929,15.6596057 1.96832899,20.7944568 L7.98751893,20.7944568 C10.5108782,16.6404969 12.5378462,10.8748757 13.4329797,5.28144328 C13.4901183,4.92381175 13.8293785,4.67972104 14.1911816,4.73627056 C14.5526499,4.79304098 14.7991716,5.12891421 14.742033,5.48665619 C13.7982424,11.3840422 11.6228481,17.4808979 8.92293961,21.7956705 C8.80207817,21.9887341 8.58903617,22.1061406 8.35947755,22.1061406 L0.662623664,22.1061406 C0.408178524,22.1061406 0.176164732,21.9618951 0.0657935725,21.7350344 C-0.0448007843,21.5081736 -0.014222728,21.2386798 0.144359089,21.04164 C3.90869638,16.3653702 5.72262239,7.84008819 4.45753901,0.770293636 C4.39381612,0.413656132 4.63419982,0.0733649741 4.99455217,0.0101885566 C5.35479292,-0.0530983092 5.69896345,0.185028188 5.76279794,0.541665692 Z"></path></clipPath><clipPath id="i20"><path d="M1.11859457,0.219843769 C3.1160678,2.51438719 4.63882954,5.62828027 5.52105592,9.2248336 C6.34150477,12.569183 6.55501656,16.1132461 6.14425023,19.5257987 L12.3675228,19.5257987 C13.5976541,15.3031192 13.8089983,9.35588856 12.9235205,3.48232653 C12.8682458,3.11352809 13.1077692,2.76716043 13.4589257,2.70874931 C13.8089983,2.65045206 14.1395622,2.90208669 14.1948368,3.27088512 C15.1442598,9.56641907 14.8646353,15.9761564 13.4470037,20.4167674 C13.3592146,20.692313 13.1142721,20.8780217 12.8368152,20.8780217 L5.40400377,20.8780217 C5.21541975,20.8780217 5.03659008,20.7916006 4.91411886,20.6414168 C4.79273144,20.4913469 4.73854063,20.2924303 4.76780367,20.0972712 C5.81043484,13.1110514 3.96144443,5.48971043 0.169171596,1.13244626 C-0.0714355973,0.856900657 -0.0530107221,0.429121796 0.209272795,0.177145586 C0.471556312,-0.074716762 0.879071197,-0.0558156997 1.11859457,0.219843769 Z"></path></clipPath><clipPath id="i21"><path d="M38.7121231,3.78949098 C49.7026683,9.94822086 57.3465431,9.47597791 65.1686878,8.54871596 L65.9387783,8.45626013 L66.7107639,8.36217552 C73.2310153,7.56563762 79.9731659,6.74191717 88.8592218,9.36525625 C95.5834412,11.3500282 100.395741,15.2392498 102.776114,20.6124827 C105.684339,27.175398 104.401134,34.2408562 102.417489,38.2971837 C101.084973,41.0231257 99.1708122,43.3451172 96.7276792,45.1985439 C96.4351756,45.4201263 96.018274,45.3644243 95.7952541,45.0739944 C95.5722342,44.7835644 95.6282693,44.3683621 95.9207729,44.1467797 C98.1969211,42.4199078 99.9799599,40.2572239 101.220578,37.718886 C103.226637,33.6164373 104.108631,26.9007873 101.55791,21.1458846 C99.307538,16.0677606 94.9087778,12.5309095 88.4804241,10.6334783 C79.8599749,8.08879034 73.2579122,8.89535459 66.8732659,9.6752933 C58.2729893,10.7260549 50.1510289,11.718218 38.058529,4.94207574 C29.7739546,0.299540961 24.3138884,1.04862079 21.5102252,2.14015622 C23.5568534,3.05723314 24.6672462,4.55372174 25.5936194,5.80233667 C26.1808679,6.59374999 26.6878741,7.27721292 27.3249939,7.71324779 C27.5473414,7.86542552 27.655153,8.136137 27.5979972,8.39838178 C27.5406172,8.66062657 27.3297008,8.86249044 27.06387,8.90950288 C22.4222535,9.72876718 19.0687732,11.7848376 15.8256822,13.7731744 C11.9779718,16.132152 8.316074,18.3766064 2.96482816,18.3768292 C2.46488245,18.3768292 1.95047967,18.3573336 1.41949048,18.3164483 C1.79481399,21.5315649 2.17181855,23.7087314 3.57628384,26.5868512 C7.12835272,26.3164739 10.6631628,27.8347977 13.6753889,29.3757364 C17.3916408,31.2769554 20.5831795,33.4129024 23.9620997,35.6742902 C28.9866605,39.0369056 34.1823528,42.5141555 41.4946051,45.3918297 C41.8363075,45.5262942 42.0036285,45.9107491 41.8684717,46.2504196 C41.7650308,46.5102135 41.5144416,46.668519 41.2495073,46.668519 C41.1679201,46.668519 41.0851002,46.6535903 41.0046337,46.6219516 C33.5584573,43.6915834 28.3020229,40.1737824 23.2187372,36.77173 C19.873214,34.5327344 16.7131671,32.4178428 13.0663988,30.5521616 C10.1006818,29.0349519 6.61686376,27.5390203 3.26528869,27.9467586 C2.98813879,27.9807368 2.71760103,27.8375828 2.59084949,27.5890406 C0.796491554,24.068566 0.438987224,21.5197561 0.00415437198,17.6527039 C-0.0184838332,17.4522883 0.0522325404,17.2526525 0.195906694,17.1103897 C0.339580848,16.9682383 0.540186726,16.8986109 0.742137447,16.9221171 C6.98187681,17.6417863 10.9372868,15.2156321 15.1270358,12.6469924 C18.172771,10.7796402 21.3127573,8.85446936 25.5353429,7.87155274 C25.1816489,7.47618029 24.8569812,7.03858576 24.5224513,6.58762277 C23.4045498,5.080885 22.2485445,3.52267864 19.6132108,2.89202115 C19.3502938,2.82907795 19.1518173,2.61429122 19.1110237,2.34859292 C19.0703422,2.08278321 19.1953006,1.81897877 19.4275103,1.68106074 C21.6926756,0.335190209 28.1063481,-2.15379576 38.7121231,3.78949098 Z"></path></clipPath><clipPath id="i22"><path d="M36.8526937,0.523535158 C36.9482022,0.900273784 36.7369599,1.28771859 36.3818932,1.38883253 C31.4637688,2.78527545 24.6983982,3.68435677 17.674593,3.68435677 C11.8227329,3.68435677 5.79109212,3.06042431 0.497001466,1.58023526 C0.140698693,1.48054881 -0.0717795615,1.09405567 0.0222681904,0.71684121 C0.116315942,0.339626754 0.481383023,0.11455903 0.837685796,0.214245475 C12.2598246,3.40789937 27.1906075,2.53605934 36.0358154,0.0242702343 C36.3920058,-0.0767247431 36.7571853,0.146677574 36.8526937,0.523535158 Z"></path></clipPath><clipPath id="i23"><path d="M8.74987147,0.411456371 C11.1592619,6.38417823 8.81327648,11.6726902 8.7125078,11.8948475 C8.60607796,12.129443 8.36378024,12.2811892 8.09544118,12.2811892 L1.1820306,12.2811892 C0.966906461,12.2811892 0.765369107,12.1831977 0.638559087,12.0173909 C0.511749066,11.8516923 0.476649864,11.6380795 0.542319339,11.4427455 C1.78551043,7.7409169 0.957848602,4.26632906 0.0452693481,2.0032232 C-0.0883340663,1.67225856 0.0837652472,1.30062638 0.430228339,1.1729995 C0.77669143,1.04558893 1.16617935,1.2104223 1.29978276,1.54138693 C2.22141988,3.82731421 3.06040403,7.25982844 2.07309744,10.9967003 L7.6300937,10.9967003 C8.09317672,9.72097229 9.34769013,5.46375044 7.49535805,0.873292638 C7.36175463,0.542328007 7.53498618,0.170587667 7.88144927,0.0430689417 C8.22791236,-0.0843416256 8.61626805,0.0804917398 8.74987147,0.411456371 Z"></path></clipPath><clipPath id="i24"><path d="M9.76254872,0.903827042 C9.79977206,0.924717961 9.83583216,0.945940482 9.87072904,0.967163003 C11.1560973,0.246149962 12.7090083,-0.0361537801 14.1839829,0.22183249 C14.5597059,0.28737913 14.8074737,0.629592279 14.7388432,0.98606431 C14.6690495,1.34264688 14.3096116,1.57808422 13.9338886,1.51286918 C12.946307,1.33999406 11.911033,1.47937739 11.0037143,1.88039461 C11.2119323,2.11317913 11.3806005,2.36055414 11.5120454,2.6217459 C11.9505828,3.50004877 11.8994007,4.49629138 11.3771108,5.22139417 C10.9525322,5.8108718 10.2464521,6.14048408 9.55316747,6.14059461 C9.21117809,6.14059461 8.87267839,6.06078909 8.57140203,5.892888 C7.81879274,5.47319054 7.42096836,4.58427641 7.58033076,3.68099286 C7.69316399,3.04044855 8.0642341,2.42024248 8.6819088,1.83728636 C7.41631544,1.24195043 5.90877041,1.14401734 4.56989361,1.58460572 C3.09840869,2.06863394 1.88981356,3.1834795 1.33727969,4.56681204 C1.20118188,4.90570917 0.803357492,5.07615255 0.44624613,4.94738048 C0.0891347682,4.81871895 -0.0900025273,4.43969799 0.0449320589,4.10080086 C0.741706345,2.35823293 2.26437336,0.953898927 4.11739746,0.344083053 C5.97158479,-0.265732821 8.08168254,-0.0563814954 9.76254872,0.903827042 Z M9.83583216,2.60826075 C9.7776707,2.65678516 9.7218357,2.70663598 9.66716393,2.7578132 C9.25189111,3.14711382 9.00761298,3.53088774 8.94247214,3.8985237 C8.880821,4.25101651 9.02157173,4.62163689 9.27050278,4.76068861 C9.55084101,4.91698364 10.0207856,4.78047419 10.2371462,4.48004288 C10.474445,4.14932527 10.4860773,3.62893137 10.2639005,3.18502697 C10.1626996,2.98330249 10.0196224,2.79075233 9.83583216,2.60826075 Z"></path></clipPath><clipPath id="i25"><path d="M18.8605788,1.30770029 C22.5072443,-0.840719331 28.7851784,-0.590010397 37.2130718,3.93518227 C43.7899711,7.4664814 49.6137041,9.61599153 56.7458241,9.21588232 C64.3966518,8.78676546 73.5382109,5.21762553 85.4204673,8.53038586 C103.976881,13.7044337 104.455977,28.5335564 98.9756888,36.4455552 C97.6866648,38.3077152 96.0767679,39.9054258 94.2267695,41.268567 C95.4792804,46.6970316 95.4980902,53.6774051 93.7056276,58.9497083 L86.1164296,58.9497083 C86.6519555,55.5680275 86.6895751,50.5593014 85.0752523,47.0589728 C83.8780643,47.4360722 82.9154456,47.6803471 81.6574024,47.9604999 C83.6711566,52.9227702 81.6385926,58.9497083 81.6385926,58.9497083 L74.8814513,58.9497083 C76.2147337,55.8882021 75.1259786,51.5287674 74.3005607,49.0706421 C66.9835515,49.7072836 59.4131633,49.1060838 53.1615628,47.8258215 C52.1379782,47.616225 51.1469234,47.395287 50.1848579,47.1646435 C49.0590365,51.6091382 47.328093,55.803033 45.3509625,58.9497083 L36.5616998,58.9497083 C38.8916798,54.3325853 40.0807907,49.1714055 40.0667386,44.0163326 C39.1957346,43.6754382 38.3526133,43.3260378 37.5359364,42.9688948 C36.5992087,48.8991044 34.4311036,54.8244067 31.8388929,58.9497083 L24.2077601,58.9497083 C28.3630646,53.8090301 29.8388587,45.0274562 28.5956421,38.3038984 C22.9241578,34.8895023 18.2263568,31.3198171 12.5439186,28.4374822 C9.46088296,26.8736866 5.9285146,25.4048747 2.48698648,25.820033 C0.753166214,22.4471854 0.426207765,20.0720481 0,16.3142494 C5.98662151,16.99922 9.86758784,14.9098399 13.8297959,12.5181452 L14.5515795,12.0805107 C17.8080153,10.1011171 21.2075608,8.01964059 25.9479979,7.19003636 C23.8794739,5.786219 23.2078537,2.33921652 18.8605788,1.30770029 Z"></path></clipPath><clipPath id="i26"><path d="M15.3710726,0.00115910117 C15.7275584,0.0227737709 15.9995244,0.342443361 15.9782856,0.715580818 C15.5681037,7.92691722 13.1621245,16.1973724 9.8486478,21.786471 C9.73058164,21.9855535 9.52265885,22.1061406 9.29872525,22.1061406 L0.646784727,22.1061406 C0.422851124,22.1061406 0.214928338,21.9855535 0.0970800113,21.786471 C-0.0209861492,21.5873885 -0.0320956957,21.3393886 0.0677813054,21.1300676 C2.27672946,16.4908769 3.44693502,11.2521635 3.45227196,5.98159694 C3.45256901,5.64238107 3.69185363,5.36239636 4.0035178,5.31429348 L4.09967534,5.30699172 C4.45681458,5.30699172 4.74609846,5.6095971 4.74577171,5.98273456 C4.7406526,11.0951728 3.68067117,16.178033 1.67234835,20.7546549 L8.9358134,20.7546549 C12.0480112,15.3498499 14.2964963,7.50258713 14.6870731,0.63481021 C14.708312,0.262810367 15.0128442,-0.0204555686 15.3710726,0.00115910117 Z"></path></clipPath><clipPath id="i27"><path d="M4.55231055,0.42898715 L13.5210727,4.74737403 C12.559272,10.7378703 10.367823,16.7106235 7.7519543,20.8780217 L0,20.8780217 C4.19710193,15.6804178 5.70381442,6.82220159 4.47933655,0 Z"></path></clipPath><clipPath id="i28"><path d="M1.11858962,0.220023872 C3.11605402,2.51434485 4.63880902,5.62847284 5.52103149,9.22537605 C6.34256052,12.5695054 6.55498755,16.1128935 6.14422304,19.5253401 L12.367468,19.5253401 C13.5986778,15.3033341 13.8089372,9.35631745 12.9234633,3.48217256 C12.8681889,3.11325941 13.1077112,2.76711868 13.4588661,2.70904902 C13.810021,2.65097935 14.1394997,2.90261456 14.194774,3.27152771 C15.1441928,9.5669623 14.8645695,15.976259 13.448028,20.4168802 C13.3591555,20.6924265 13.1142141,20.8780217 12.8378422,20.8780217 L5.40397986,20.8780217 C5.21539668,20.8780217 5.0365678,20.7914865 4.91518092,20.6411885 C4.79271023,20.4908906 4.73851967,20.2927706 4.76778257,20.0969278 C5.81040913,13.111489 3.96251071,5.48956109 0.169170847,1.13205916 C-0.0714352812,0.856512918 -0.0530104876,0.429530105 0.209271869,0.17675628 C0.471554225,-0.0748789245 0.879067307,-0.0555223703 1.11858962,0.220023872 Z"></path></clipPath><clipPath id="i29"><path d="M39.1676126,3.78975316 C49.1938125,9.34201933 56.4669883,9.5046644 63.6017708,8.80304104 L64.3796874,8.72328941 C64.5092906,8.70949858 64.6388794,8.69547645 64.7684697,8.68125021 L65.5461537,8.59366104 C66.1944472,8.51899163 66.8435614,8.44057948 67.4954606,8.36182454 C74.0924297,7.56527702 80.9139089,6.74199223 89.9056527,9.36447177 C96.7078558,11.3497133 101.576777,15.2388705 103.985159,20.6119456 C106.927602,27.1748288 105.629298,34.2412636 103.623448,38.2975287 C102.275253,41.0236151 100.337436,43.3453005 97.8655569,45.1990838 C97.5707457,45.4207803 97.1478049,45.3650776 96.9221609,45.0743099 C96.6965169,44.7835422 96.7532113,44.3691147 97.0491565,44.1474183 C99.3520861,42.4195229 101.156104,40.257147 102.41132,37.7193355 C104.440982,33.6162802 105.333353,26.9007718 102.753755,21.1455767 C100.476904,16.0677255 96.0252543,12.5306089 89.5212641,10.6333775 C80.7993861,8.08888168 74.1196431,8.89545568 67.6598746,9.67529241 C67.2644048,9.72304475 66.8699305,9.7706774 66.4760293,9.81746614 L65.6888656,9.90970382 C57.6912571,10.8316508 49.8141272,11.2050721 38.5063283,4.94168343 C30.1238234,0.299426747 24.5996271,1.04807001 21.763316,2.13984144 C23.8341383,3.05670663 24.9574827,4.55287911 25.8947557,5.80173194 C26.4889138,6.59382325 27.0018854,7.27673742 27.6465016,7.713446 C27.8714653,7.86495713 27.9805455,8.13567189 27.9227171,8.39858827 C27.864662,8.6603906 27.651264,8.8620341 27.3823054,8.90882431 C22.6860752,9.72876693 19.2930243,11.7841938 16.0117749,13.7727774 C11.7547001,16.352923 7.72406313,18.794926 1.4361923,18.3158834 C1.81593189,21.5310389 2.19737232,23.7090115 3.61836264,26.586609 C7.21188524,26.3158943 10.7887397,27.8343478 13.8364079,29.3761965 C17.596272,31.27677 20.8252492,33.4124086 24.2440394,35.6739351 C29.3277196,39.0372596 34.5845447,42.5142173 41.9828335,45.3918149 C42.3286698,45.5266152 42.4978461,45.9109633 42.361099,46.2507494 C42.256441,46.5103236 42.0029033,46.668519 41.7348519,46.668519 C41.6523047,46.668519 41.5685103,46.6540364 41.487097,46.6217288 C33.9533084,43.6917708 28.6351399,40.1735931 23.4919305,36.7712768 C20.1070436,34.5331454 16.9098153,32.4175597 13.2201389,30.5526359 C10.2195271,29.0352964 6.69562535,27.5391239 3.3037083,27.9468671 C3.02239032,27.9802887 2.74946312,27.83769 2.6213336,27.5892563 C0.805863128,24.0688504 0.444152378,21.5198984 0.00420325261,17.6530222 C-0.0187013153,17.4524928 0.0528471121,17.2530774 0.198211746,17.1104787 C0.343462991,16.9678799 0.546996156,16.8988087 0.750869487,16.9222038 C7.06266538,17.6418817 11.066089,15.2154754 15.3047948,12.6464704 C18.3863662,10.7793184 21.5634112,8.85423573 25.8357935,7.87164145 C25.4780513,7.47615282 25.1494502,7.03833019 24.8109841,6.58713894 L24.5380442,6.22514782 C23.4832132,4.83750972 22.2970151,3.47193627 19.8439812,2.89182687 C19.5779707,2.82832587 19.3771589,2.6144278 19.3358853,2.34816926 C19.2947251,2.08191071 19.4211538,1.81899433 19.6560957,1.68085182 C21.9479132,0.335076426 28.4371628,-2.15371681 39.1676126,3.78975316 Z"></path></clipPath><clipPath id="i30"><path d="M36.8526187,0.523218642 C36.9481276,0.900366096 36.7380081,1.28822121 36.3818162,1.38934907 C31.4636719,2.78610337 24.6982738,3.68435677 17.6755637,3.68435677 C11.8225562,3.68435677 5.79145274,3.06093321 0.497003485,1.58089715 C0.140699264,1.48095902 -0.0717798531,1.09429365 0.0222682809,0.717146197 C0.116204052,0.339998743 0.481047888,0.113948219 0.837689199,0.213886346 C12.2607733,3.40833718 27.1904932,2.53625805 36.0357371,0.0247177488 C36.3919289,-0.077599857 36.7582335,0.147260928 36.8526187,0.523218642 Z"></path></clipPath><clipPath id="i31"><path d="M9.76352994,0.903721745 C9.79959137,0.92472229 9.83565279,0.945722836 9.87171421,0.966723381 C11.1559661,0.246073084 12.710097,-0.0357763417 14.1839622,0.221756663 C14.559699,0.286968883 14.8074758,0.629609362 14.7388428,0.986618635 C14.6690465,1.34252262 14.3095955,1.57794978 13.9338588,1.51273756 C12.9462412,1.34031203 11.9109294,1.47957881 11.0047408,1.88079976 C11.2118031,2.11291105 11.3816408,2.36049643 11.5119272,2.62134531 C11.9504806,3.50005234 11.8992967,4.49592031 11.3769877,5.22099178 C10.9523936,5.81121763 10.247451,6.14059461 9.55297778,6.14059461 C9.21213918,6.14059461 8.87246386,6.0610136 8.5711765,5.89300923 C7.81853975,5.47299832 7.42070084,4.58434366 7.58006906,3.68132021 C7.69406968,3.04025092 8.06399006,2.42018219 8.68285058,1.83769337 C7.41604776,1.24194106 5.9084477,1.14357008 4.56952203,1.58458153 C3.09798339,2.06869937 1.88934415,3.18393887 1.33679012,4.56665899 C1.20068733,4.90598359 0.80284843,5.07619854 0.445724034,4.94687939 C0.0885996376,4.81866554 -0.0905441964,4.43955043 0.0455585866,4.10022582 C0.741195033,2.35828584 2.26391762,0.953459879 4.11817263,0.34444406 C5.97126437,-0.26567705 8.08143914,-0.0567768872 9.76352994,0.903721745 Z M9.83565279,2.6080818 C9.77865248,2.65671465 9.72165216,2.70645278 9.6669784,2.75729621 C9.25169042,3.14746423 9.00740337,3.53100051 8.94226016,3.89795741 C8.88060676,4.25054552 9.02136263,4.62192358 9.27030276,4.76008507 C9.5518145,4.91703651 10.020613,4.77998032 10.2369815,4.48044623 C10.4754522,4.14885867 10.4859216,3.62937149 10.2637368,3.18504416 C10.1625321,2.98277575 10.0194497,2.79045496 9.83565279,2.6080818 Z"></path></clipPath><clipPath id="i32"><path d="M7.55732348,0 C9.92903671,5.82604541 7.52975878,11.0530703 7.52975878,11.0530703 L0.516838232,11.0530703 C1.90426175,6.96103168 0.855654407,3.23645031 0,1.13607342 Z"></path></clipPath><clipPath id="i33"><path d="M1200,0 L1200,262.622951 L0,262.622951 L0,0 L1200,0 Z"></path></clipPath><clipPath id="i34"><path d="M19.0943808,1.33809399 C22.7862515,-0.86025941 29.1420091,-0.603723475 37.6743774,4.02664415 C44.3328061,7.64001807 50.228732,9.83948733 57.4492642,9.43007874 C65.1949341,8.9909883 74.4498149,5.33889408 86.4793678,8.7286499 C105.265813,14.0229535 105.750848,29.196736 100.202624,37.2926263 C98.8976212,39.1980668 97.2677674,40.8329115 95.3948358,42.227735 C96.6628732,47.7823684 96.6819162,54.9249805 94.8672337,60.319823 L87.1839575,60.319823 C87.7261219,56.8595449 87.7642078,51.7344055 86.1298734,48.1527219 C84.9178447,48.5385859 83.943293,48.7885383 82.6696547,49.0752024 C84.7083721,54.1528062 82.6506117,60.319823 82.6506117,60.319823 L75.8097067,60.319823 C77.1595168,57.187161 76.0572652,52.7264039 75.2216151,50.2111467 C67.8139018,50.862585 60.1496686,50.2474121 53.8205712,48.9373938 C52.7842979,48.7229258 51.7809577,48.4968528 50.806966,48.2608487 C49.6671886,52.8086427 47.9147878,57.1000125 45.9131481,60.319823 L37.0149308,60.319823 C39.373794,55.5953885 40.5776455,50.314252 40.5634192,45.0393643 C39.6816179,44.6905469 38.8280451,44.3330257 38.0012443,43.967582 C37.0529047,50.0356221 34.857923,56.0986408 32.2335784,60.319823 L24.5078476,60.319823 C28.7146625,55.0596647 30.2087511,46.0739886 28.9501232,39.1941613 C23.2083333,35.7004074 18.4522968,32.0477552 12.6994171,29.0984289 C9.5781632,27.4982874 6.00200644,25.9953372 2.51781599,26.4201446 C0.762502712,22.968905 0.431491178,20.5385645 0,16.6934268 C6.32612268,17.4249962 10.329785,15.063777 14.5286327,12.4861669 L15.250817,12.0427079 C18.3926388,10.1165178 21.7215613,8.16161829 26.2696579,7.35714787 C24.1754918,5.92070285 23.495546,2.39358481 19.0943808,1.33809399 Z"></path></clipPath><clipPath id="i35"><path d="M15.3763609,0.00117236274 C15.7329689,0.0234077155 16.0050282,0.343938878 15.9837821,0.71726475 C15.5734595,7.9458069 13.1666553,16.2360586 9.85193355,21.8377712 C9.73404481,22.0370911 9.52594178,22.1583023 9.30193139,22.1583023 L0.647024271,22.1583023 C0.423013885,22.1583023 0.215019805,22.0370911 0.0971310707,21.8377712 C-0.0209755726,21.6385652 -0.0320889284,21.3895293 0.0677133644,21.1797187 C2.27752788,16.5301354 3.44824364,11.2796275 3.45347346,5.99582348 C3.45377061,5.65602167 3.69313727,5.37502411 4.00490831,5.32674192 L4.10077195,5.31941264 C4.45836052,5.31975472 4.74774358,5.6232958 4.74741672,5.9971918 C4.74229586,11.1213574 3.68184202,16.216788 1.67293954,20.8041123 L8.93889511,20.8041123 C12.0520511,15.3863261 14.3014161,7.52082659 14.6921268,0.636989425 C14.7134819,0.263663553 15.0159395,-0.0206068802 15.3763609,0.00117236274 Z"></path></clipPath><clipPath id="i36"><path d="M5.76478031,0.542943808 C7.02125626,7.57971198 5.46670916,15.6965562 1.96900608,20.8435235 L7.99026659,20.8435235 C10.5144939,16.6797619 12.5421591,10.900536 13.4376006,5.2939054 C13.4947588,4.93542999 13.8341357,4.69076333 14.1960633,4.74744628 C14.557656,4.80435066 14.8042624,5.14101641 14.7471042,5.49960253 C13.8029889,11.4109041 11.6268463,17.5221459 8.92600906,21.8470996 C8.80510604,22.0406188 8.59199075,22.1583023 8.36235317,22.1583023 L0.662851603,22.1583023 C0.408318935,22.1583023 0.176225332,22.0137165 0.0658162052,21.7863204 C-0.0448161956,21.5589244 -0.0142276206,21.2887946 0.144408748,21.09129 C3.91004095,16.403986 5.72459094,7.85858769 4.45907238,0.772111224 C4.39532757,0.414632197 4.63579396,0.0735380864 4.99627027,0.0102125976 C5.35663494,-0.0532236002 5.70092387,0.185464781 5.76478031,0.542943808 Z"></path></clipPath><clipPath id="i37"><path d="M1.11897936,0.220362513 C3.11713971,2.52032014 4.64042528,5.64156078 5.52295513,9.24660056 C6.34368622,12.5988413 6.55727145,16.1512669 6.14636382,19.5718718 L12.3717771,19.5718718 C13.6023317,15.3392285 13.8137485,9.37796475 12.9279661,3.49054344 C12.8726724,3.12087478 13.1122782,2.77368983 13.4635555,2.71514089 C13.8137485,2.65670608 14.1444262,2.90893446 14.1997198,3.27860312 C15.1494694,9.58899202 14.8697486,16.0138538 13.4516294,20.4649429 C13.3638101,20.7411387 13.1187834,20.9272855 12.841231,20.9272855 L5.40586272,20.9272855 C5.21721383,20.9272855 5.03832264,20.8406605 4.91580929,20.6901224 C4.79438012,20.5396984 4.74017067,20.3403124 4.76944377,20.1446928 C5.8124336,13.1419883 3.96280714,5.50266397 0.16922979,1.13511839 C-0.0714601708,0.858922603 -0.0530289575,0.430134353 0.209344783,0.177563579 C0.471718524,-0.074893064 0.879373593,-0.0559474027 1.11897936,0.220362513 Z"></path></clipPath><clipPath id="i38"><path d="M38.7254399,3.79843268 C48.6383567,9.36448862 55.8296501,9.52715208 62.8839581,8.82402257 L63.6530998,8.74410117 L64.4219004,8.65861978 C64.5500468,8.64398228 64.6782101,8.62916766 64.8064058,8.6142032 L65.9614609,8.47621355 C66.2185205,8.44497739 66.4758962,8.41346912 66.7337121,8.38190694 C73.2562064,7.58348953 80.0006763,6.75782543 88.8897889,9.38735454 C95.6163214,11.3768097 100.430276,15.2752083 102.811469,20.66112 C105.720694,27.2395211 104.437048,34.321651 102.452721,38.3875498 C101.119746,41.119924 99.2049265,43.4473945 96.760953,45.3051946 C96.4683488,45.5272998 96.0513038,45.4714664 95.8282072,45.1803511 C95.6051105,44.8892359 95.6611649,44.4730538 95.9537691,44.2509486 C98.2307003,42.520002 100.014353,40.352215 101.255398,37.8078876 C103.262147,33.6957588 104.144443,26.9642625 101.592845,21.1957805 C99.3416993,16.1056741 94.941426,12.5604775 88.5108609,10.6585691 C79.8874463,8.10787668 73.2831125,8.9163441 66.89627,9.69812316 C58.2930349,10.7513641 50.1682806,11.7458684 38.071621,4.95373708 C29.7841966,0.300247758 24.3222523,1.05109512 21.5176246,2.14520614 C23.5649568,3.06444699 24.6757316,4.56446672 25.6024235,5.81602788 C26.189874,6.60930862 26.6970546,7.29438426 27.3343935,7.731448 C27.5568175,7.88398481 27.6646663,8.15533506 27.6074907,8.41819864 C27.550091,8.68106221 27.3391021,8.8834024 27.0731798,8.93052578 C22.4299666,9.75172321 19.0753327,11.8126451 15.8311261,13.8056736 C11.9820922,16.1702175 8.31893468,18.4199679 2.96584804,18.4201913 C2.46573036,18.4201913 1.95115062,18.4006496 1.41997878,18.3596679 C1.7954314,21.5823709 2.17256565,23.7646746 3.57751406,26.6495856 C7.13080483,26.3785703 10.6668308,27.9004767 13.6800932,29.4450515 C17.3976234,31.3507566 20.59026,33.4917436 23.9703425,35.7584674 C28.9966318,39.1290172 34.1941113,42.6144721 41.508879,45.4989364 C41.850699,45.6337182 42.0180775,46.0190802 41.8828742,46.3595522 C41.7793978,46.6199591 41.5287223,46.7786382 41.2636969,46.7786382 C41.1820817,46.7786382 41.0992332,46.7636743 41.018739,46.7319609 C33.5700012,43.7946782 28.3117587,40.2685766 23.2267244,36.8584967 C19.8800502,34.614218 16.7189163,32.494336 13.0708935,30.6242526 C10.1041564,29.1034629 6.61913993,27.6040015 3.26641194,28.0127018 C2.98916669,28.0467602 2.71853587,27.9032684 2.59174073,27.6541398 C0.796765543,24.1253582 0.439138234,21.5705342 0.00415580106,17.6943573 C-0.0184901916,17.4934687 0.0522505082,17.2933619 0.195974085,17.1507634 C0.339697662,17.0082766 0.540372547,16.9384849 0.742392739,16.9620466 C6.98427854,17.6834139 10.9410491,15.251535 15.1322394,12.6768343 C18.1790223,10.8050759 21.3200887,8.87536239 25.5441269,7.89012648 C25.1903113,7.49382111 24.8655319,7.05519404 24.5308869,6.60316695 C23.4126009,5.09287388 22.2561978,3.53099076 19.6199577,2.89884517 C19.3569502,2.83575345 19.1584054,2.62045991 19.1175978,2.35413467 C19.0769023,2.08769775 19.2019037,1.82327084 19.4341932,1.68502738 C21.7001378,0.335981125 28.1160166,-2.15887786 38.7254399,3.79843268 Z"></path></clipPath><clipPath id="i39"><path d="M36.8653709,0.524770493 C36.9609122,0.902398073 36.7495973,1.2907571 36.3944083,1.39210962 C31.4745922,2.79184759 24.7068944,3.69305039 17.680673,3.69305039 C11.8267999,3.69305039 5.79308423,3.0676457 0.497172432,1.58396399 C0.140747093,1.48404232 -0.0718042533,1.0966372 0.0222758506,0.718532671 C0.116355954,0.340428138 0.481548616,0.114829344 0.837973956,0.214751009 C12.2640419,3.41594066 27.1999609,2.54204343 36.0482115,0.0243275024 C36.4045245,-0.0769057831 36.7698295,0.147023675 36.8653709,0.524770493 Z"></path></clipPath><clipPath id="i40"><path d="M8.75288138,0.412427245 C11.1631006,6.39924236 8.8163082,11.7002331 8.71550486,11.9229146 C8.60903841,12.1580637 8.36665734,12.310168 8.09822597,12.310168 L1.18243722,12.310168 C0.967239072,12.310168 0.76563239,12.2119452 0.638778748,12.0457472 C0.511925105,11.8796576 0.476813829,11.6655408 0.542505894,11.4697458 C1.78612464,7.75918239 0.958178097,4.27639591 0.0452849206,2.00795001 C-0.0883644527,1.67620443 0.083794062,1.30369535 0.430376335,1.17576731 C0.776958608,1.04805611 1.16658051,1.21327841 1.30022988,1.54502399 C2.22218403,3.83634516 3.06145679,7.27695876 2.07381058,11.0226482 L7.63271841,11.0226482 C8.09596073,9.74390994 9.35090569,5.47664273 7.49793641,0.875353263 C7.36428704,0.543607686 7.53757818,0.170990187 7.88416045,0.0431705673 C8.23074272,-0.0845406384 8.619232,0.0806816684 8.75288138,0.412427245 Z"></path></clipPath><clipPath id="i41"><path d="M9.76590699,0.905959715 C9.80314313,0.926899929 9.83921564,0.948172526 9.87412452,0.969445124 C11.1599349,0.246730778 12.7133801,-0.0362390887 14.1888621,0.222355926 C14.5647144,0.288057231 14.8125674,0.631077868 14.7439133,0.988391031 C14.6740955,1.34581499 14.3145341,1.58180787 13.9386818,1.51643895 C12.9507605,1.34315591 11.9151304,1.48286813 11.0074995,1.88483159 C11.2157891,2.1181654 11.3845154,2.36612411 11.5160055,2.62793218 C11.9546938,3.50830749 11.9034941,4.50690084 11.3810245,5.23371459 C10.9562998,5.82458315 10.2499768,6.15497318 9.55645371,6.15508398 C9.21434668,6.15508398 8.87573055,6.07509015 8.57435055,5.90679288 C7.82148237,5.4861051 7.42352114,4.59509348 7.58293836,3.68967855 C7.6958104,3.0476228 8.06700816,2.42595329 8.68489534,1.84162163 C7.41886662,1.24488095 5.910803,1.14671677 4.57146563,1.58834476 C3.09947452,2.0735151 1.89046364,3.19099125 1.33773971,4.57758791 C1.20159508,4.9172847 0.803633843,5.08813025 0.446399636,4.95905434 C0.0891654301,4.83008921 -0.0900334877,4.45017391 0.0449475153,4.11047712 C0.741961488,2.36379742 2.26515229,0.95614975 4.11881382,0.344894952 C5.97363898,-0.266359846 8.0844626,-0.0565145334 9.76590699,0.905959715 Z M9.83921564,2.61441521 C9.78103417,2.66305412 9.72517996,2.71302257 9.67048938,2.76432055 C9.25507371,3.15453976 9.01071155,3.53921924 8.94554831,3.90772267 C8.88387595,4.26104722 9.0246751,4.63254212 9.27369178,4.77192195 C9.55412645,4.92858577 10.0242327,4.79175422 10.2406678,4.49061401 C10.4780481,4.15911603 10.4896844,3.63749421 10.2674312,3.19254237 C10.1661955,2.9903419 10.0230691,2.79733739 9.83921564,2.61441521 Z"></path></clipPath><clipPath id="i42"><path d="M30.2302354,2.0801409 C36.0752075,-1.3373207 46.1376467,-0.93852144 59.6460977,6.25964042 C70.187726,11.8768295 79.5221596,15.2960258 90.9537105,14.6595775 C103.21666,13.9769872 117.868993,8.29960532 136.914189,13.5691677 C166.6569,21.7994547 167.424808,45.3879365 158.640857,57.9734445 C156.574775,60.9355568 153.994389,63.477013 151.029163,65.6453431 C153.036721,74.2803272 153.066869,85.3839116 150.193863,93.7704918 L138.029695,93.7704918 C138.88805,88.3912986 138.948348,80.4239868 136.360869,74.8560622 C134.441984,75.455909 132.899073,75.8444737 130.882648,76.2901089 C134.110347,84.1835241 130.8525,93.7704918 130.8525,93.7704918 L120.021974,93.7704918 C122.158995,88.900596 120.413909,81.9661031 119.090908,78.0559969 C107.363011,79.0686937 95.2289925,78.1123735 85.2087616,76.0758779 C83.568133,75.7424755 81.9796442,75.3910325 80.43762,75.0241511 C78.6331237,82.0939478 75.8587216,88.7651187 72.6897245,93.7704918 L58.6020613,93.7704918 C62.336615,86.4260978 64.2425533,78.2162798 64.2200304,70.016176 C62.8239621,69.4739201 61.4725849,68.9181337 60.1635935,68.3500312 C58.6621816,77.7831342 55.1870852,87.2084312 51.0322212,93.7704918 L38.8008394,93.7704918 C45.4610715,85.5932856 47.8265135,71.6245565 45.8338529,60.9294855 C36.7434476,55.4982524 29.2136877,49.8200031 20.1057251,45.2351126 C15.1641539,42.7476044 9.5023803,40.4111854 3.98620784,41.071572 C1.20719477,35.7064297 0.6831371,31.9283314 0,25.9508526 C18.0279384,27.9979296 24.1426539,14.4673767 41.5901386,11.4370921 C38.2746536,9.20405914 37.1981629,3.72095961 30.2302354,2.0801409 Z"></path></clipPath><clipPath id="i43"><path d="M24.8366548,0.00184456988 C25.4126656,0.0368291874 25.8521092,0.541145904 25.8177914,1.12852866 C25.1550183,12.5017587 21.2674297,25.5454594 15.9133279,34.3590713 C15.7229082,34.672677 15.38677,34.863388 15.0249374,34.863388 L1.04510544,34.863388 C0.683272844,34.863388 0.347310571,34.672677 0.156890886,34.3590713 C-0.0338807772,34.045645 -0.0518316163,33.6538173 0.109373959,33.323706 C3.67877512,26.0081534 5.56977283,17.747119 5.57822029,9.43369745 C5.57871306,8.88480375 5.9862323,8.43343162 6.50945642,8.37568819 L6.62376867,8.36944744 C7.20136332,8.36998567 7.66878909,8.84757055 7.66826112,9.43585035 C7.65998966,17.4981003 5.94709243,25.5151394 2.70221428,32.7327351 L14.4385433,32.7327351 C19.4670661,24.2085088 23.1003511,11.833104 23.7314463,1.00222522 C23.7659401,0.414842465 24.2544845,-0.0324224144 24.8366548,0.00184456988 Z"></path></clipPath><clipPath id="i44"><path d="M9.12680375,0.854255906 C11.1160573,11.925753 8.65489732,24.696618 3.11733165,32.7947437 L12.650195,32.7947437 C16.6465532,26.2435723 19.8567541,17.1506649 21.2744176,8.3293149 C21.3649105,7.76529754 21.9022122,7.38034437 22.4752162,7.46952809 C23.0476899,7.55906019 23.4381174,8.08876272 23.3476245,8.65295427 C21.8529006,17.9536667 18.4076302,27.5689609 14.1316631,34.3737484 C13.9402493,34.6782272 13.6028451,34.863388 13.2392827,34.863388 L1.04942707,34.863388 C0.646450791,34.863388 0.279000054,34.6358998 0.104200257,34.2781198 C-0.0709530285,33.9203398 -0.0225251777,33.4953236 0.228628019,33.1845741 C6.19037924,25.8096726 9.06317591,12.3645299 7.05960614,1.2148229 C6.95868533,0.652373225 7.33939187,0.115703216 7.91009818,0.0160682775 C8.48062775,-0.0837408478 9.02570619,0.291806228 9.12680375,0.854255906 Z"></path></clipPath><clipPath id="i45"><path d="M1.77156882,0.341790645 C4.93505752,3.90911247 7.34672417,8.75027549 8.74394598,14.3418294 C10.0433279,19.5412824 10.3814762,25.0512298 9.73092699,30.3567182 L19.5870052,30.3567182 C21.5352199,23.7917272 21.8699352,14.5455803 20.4675639,5.41396573 C20.380023,4.84059557 20.759367,4.3020985 21.3155093,4.21128686 C21.8699352,4.12065225 22.3934642,4.51186807 22.4810052,5.08523822 C23.9846493,14.8728916 23.5417952,24.8380968 21.2966279,31.7419054 C21.1575924,32.1702956 20.7696659,32.4590164 20.3302448,32.4590164 L8.5585652,32.4590164 C8.25989616,32.4590164 7.97667552,32.3246577 7.7827123,32.0911673 C7.59046556,31.857854 7.50464113,31.5485988 7.55098632,31.2451852 C9.20224847,20.3837241 6.27391872,8.53484126 0.267924708,1.76061183 C-0.113135786,1.33222165 -0.0839554783,0.667154754 0.331434791,0.27540787 C0.746825059,-0.116161993 1.39222482,-0.086776551 1.77156882,0.341790645 Z"></path></clipPath><clipPath id="i46"><path d="M61.0443998,5.85706036 C77.0763847,14.6626654 88.5924081,14.6979691 99.9925269,13.5192947 L100.858207,13.4275635 C101.146741,13.3962902 101.435271,13.3643613 101.72387,13.3318996 L102.589944,13.2330386 C103.456367,13.1328243 104.324048,13.0289177 105.194916,12.9246295 C115.476575,11.6934956 126.108142,10.4203483 140.120392,14.4749971 C150.723684,17.5426727 158.312106,23.5538773 162.065671,31.858779 C166.651595,42.0024608 164.628134,52.9228761 161.500163,59.1923605 C159.398944,63.4055932 156.38054,66.9944775 152.52801,69.8591451 C152.066767,70.2016241 151.409363,70.1155308 151.057687,69.6666405 C150.706012,69.2177502 150.794372,68.5760109 151.255615,68.2335319 C154.84483,65.5644682 157.656469,62.2218107 159.612777,58.2985402 C162.776092,51.9577705 164.16689,41.5780209 160.144708,32.6832082 C156.59614,24.8344287 149.65982,19.3678501 139.523073,16.4351688 C126.918266,12.7881262 117.050101,13.594783 107.654311,14.6925343 L106.550967,14.8227734 C106.183821,14.8664668 105.817265,14.9103568 105.451162,14.9541923 C104.430396,15.0764337 103.413903,15.1981619 102.398691,15.3142956 L101.528754,15.4123502 C89.3520714,16.762615 77.2368577,17.0982092 60.0137599,7.6385024 C46.9499743,0.462972335 38.3401014,1.62075469 33.9190589,3.3078385 C37.1463475,4.72527817 38.8973044,7.03826009 40.3580845,8.96812693 C41.2841054,10.1913402 42.0835936,11.2477047 43.0882555,11.9216428 C43.438871,12.1568496 43.6088771,12.575263 43.5187491,12.9805901 C43.4282677,13.3859172 43.0956778,13.6979193 42.6764943,13.770582 C35.3572187,15.0368419 30.0691804,18.2147168 24.9552128,21.2879023 C18.8878325,24.9339525 13.1134566,28.4029949 4.6751803,28.4033393 C3.88682556,28.4033393 3.07567374,28.3732067 2.23836714,28.3100142 C2.83020754,33.279318 3.42469876,36.6443597 5.63937296,41.0927992 C11.2405618,40.6749025 16.8145356,43.021633 21.5644568,45.4033173 C27.4245427,48.341853 32.4572184,51.6431857 37.7853725,55.1384004 C45.7085056,60.3356792 53.9014924,65.710138 65.432042,70.1578887 C65.9708659,70.3657179 66.2347112,70.9599337 66.021585,71.4849305 C65.858471,71.8864695 65.4633217,72.1311475 65.045552,72.1311475 C64.9168987,72.1311475 64.7863015,72.1080736 64.6594154,72.0591726 C52.9176836,67.5299776 44.6289137,62.092843 36.6131786,56.8346101 C31.3376875,53.3740049 26.3546706,50.1052154 20.604152,47.2216073 C15.9275702,44.8765987 10.4340048,42.5644777 5.14897072,43.1946804 C4.71193838,43.2471973 4.28533261,43.0259376 4.08546056,42.6417894 C1.25597216,37.2005223 0.692230481,33.2610662 0.006550949,27.2841267 C-0.0291467999,26.9743631 0.0823644849,26.6658048 0.308921485,26.4459226 C0.535478485,26.2262126 0.851810022,26.118596 1.17026222,26.1549273 C11.0095868,27.2672524 17.2467964,23.5173738 23.8535308,19.5472685 C28.6562918,16.6610776 33.6076756,13.6855218 40.2661894,12.1663199 C39.7084562,11.5552298 39.1964939,10.8788811 38.6689802,10.1818699 C36.9061829,7.85304684 35.0833004,5.44467358 30.9276936,4.46992552 C30.5131049,4.37264012 30.2001311,4.04066445 30.1358044,3.62999953 C30.0716545,3.21916243 30.268699,2.81142468 30.634866,2.59825773 C34.2067616,0.518072031 44.320358,-3.32891985 61.0443998,5.85706036 Z"></path></clipPath><clipPath id="i47"><path d="M57.7509066,0.854133528 C57.9005755,1.46877246 57.5695431,2.10087824 57.0131271,2.26584291 C49.3060612,4.54410197 38.7042234,6.01092896 27.6973992,6.01092896 C18.5271,6.01092896 9.07507122,4.99299994 0.778838189,2.57811132 C0.220485296,2.41547557 -0.112483901,1.78492239 0.0348959074,1.16950715 C0.182275716,0.554091914 0.754362929,0.186899977 1.31271582,0.349535729 C19.2120552,5.55989616 42.6097002,4.13751259 56.4707976,0.0395962344 C57.0289744,-0.125174355 57.6012377,0.239300517 57.7509066,0.854133528 Z"></path></clipPath><clipPath id="i48"><path d="M14.22224,0.644428802 C18.1385179,9.99899045 14.3253,18.2819329 14.1615083,18.6298788 C13.9885148,18.9973056 13.5946786,19.2349727 13.1585142,19.2349727 L1.92129942,19.2349727 C1.57163175,19.2349727 1.24404835,19.081497 1.03792846,18.8218081 C0.831808568,18.5622885 0.774757527,18.2277251 0.881498184,17.9217902 C2.90220925,12.1239338 1.5569089,6.68198506 0.0735818277,3.13747657 C-0.1435802,2.61911507 0.136153937,2.03705948 0.699302924,1.83716845 C1.26245191,1.63761621 1.89553443,1.89578056 2.11269646,2.41414206 C3.61074638,5.99439378 4.97445029,11.3704462 3.36965972,17.223188 L12.4021278,17.223188 C13.1548334,15.2251246 15.1939481,8.55740341 12.1831254,1.36776331 C11.9659634,0.849401813 12.2475379,0.267176823 12.8106868,0.067455187 C13.3738358,-0.13209705 14.005078,0.126067304 14.22224,0.644428802 Z"></path></clipPath><clipPath id="i49"><path d="M15.46139,1.41558673 C15.5203423,1.44830638 15.5774523,1.48154539 15.63272,1.51478441 C17.6684159,0.38552356 20.1278312,-0.056624563 22.4638152,0.34743719 C23.0588648,0.450097267 23.4512659,0.986076354 23.3425726,1.5443879 C23.2320371,2.10287257 22.6627792,2.47161787 22.0677296,2.36947716 C20.503652,2.0987177 18.8640418,2.31702184 17.42708,2.94510069 C17.7568443,3.30969112 18.0239718,3.69713336 18.232147,4.10621559 C18.9266786,5.481826 18.8456192,7.0421553 18.018445,8.17782158 C17.3460206,9.1010698 16.2277696,9.61731322 15.1297834,9.61748634 C14.5881594,9.61748634 14.0520621,9.4924938 13.5749171,9.22952473 C12.3829757,8.57218862 11.7529232,7.17995871 12.0053127,5.76522321 C12.1840118,4.76199362 12.7716923,3.79061809 13.7499317,2.87758395 C11.7455542,1.94516038 9.35798696,1.79177618 7.23754721,2.48183195 C4.90708998,3.23992381 2.99298321,4.98601072 2.11791033,7.15260577 C1.90236607,7.68339126 1.2723136,7.95034209 0.70674018,7.74865745 C0.141166764,7.54714593 -0.142541073,6.95351793 0.071160934,6.42273244 C1.17467389,3.69349785 3.5861905,1.49401002 6.52090859,0.538907756 C9.45746893,-0.416194512 12.7993262,-0.0883054974 15.46139,1.41558673 Z M15.5774523,4.08509497 C15.4853393,4.16109459 15.3969109,4.23917165 15.3103248,4.31932614 C14.6526384,4.92905429 14.2657641,5.53012644 14.1625976,6.1059231 C14.0649579,6.65800233 14.2878712,7.23847322 14.6821146,7.45625801 C15.1260989,7.70104949 15.8703714,7.48724646 16.2130315,7.01670668 C16.5888523,6.49873206 16.6072749,5.68368376 16.2554035,4.9884344 C16.095127,4.67249066 15.8685291,4.37091586 15.5774523,4.08509497 Z"></path></clipPath></defs><rect x="0px" y="0px" width="1200px" height="788px" fill="#FFFFFF"></rect><g clip-path="url(#i0)"><g transform="translate(244.9180327868853 343.27868852459005)"><g transform="translate(527.0527912183134 0.0)"><g transform="translate(0.0 4.942023190723376)"><g clip-path="url(#i1)"><polygon points="0,-8.8817842e-16 161.207482,-8.8817842e-16 161.207482,93.8984406 0,93.8984406 0,-8.8817842e-16" stroke="none" fill="#FFFFFF"></polygon></g></g><g transform="translate(60.29898172889443 65.48180727708905)"><g clip-path="url(#i2)"><polygon points="8.68749517e-15,3.77475828e-15 25.8424207,3.77475828e-15 25.8424207,35.8296681 8.68749517e-15,35.8296681 8.68749517e-15,3.77475828e-15" stroke="none" fill="#221F1F"></polygon></g></g><g transform="translate(40.609518307213875 65.48180727708905)"><g clip-path="url(#i3)"><polygon points="0,0 22.1506463,0 22.1506463,33.3586565 0,33.3586565 0,0" stroke="none" fill="#221F1F"></polygon></g></g><g transform="translate(1.23059146385458 0.0)"><g clip-path="url(#i4)"><polygon points="-2.64198385e-15,5.32907052e-15 167.360439,5.32907052e-15 167.360439,74.1303479 -2.64198385e-15,74.1303479 -2.64198385e-15,5.32907052e-15" stroke="none" fill="#221F1F"></polygon></g></g><g transform="translate(82.44962807828415 79.07237105157947)"><g clip-path="url(#i5)"><polygon points="6.32827124e-15,5.33600941e-15 59.0683903,5.33600941e-15 59.0683903,6.17752899 6.32827124e-15,6.17752899 6.32827124e-15,5.33600941e-15" stroke="none" fill="#221F1F"></polygon></g></g><g transform="translate(134.13446956019288 66.71731307477012)"><g clip-path="url(#i6)"><polygon points="1.47659662e-14,3.38618023e-15 23.3812378,3.38618023e-15 23.3812378,33.3586565 1.47659662e-14,33.3586565 1.47659662e-14,3.38618023e-15" stroke="none" fill="#221F1F"></polygon></g></g><g transform="translate(158.74629883729358 17.297081167532724)"><g clip-path="url(#i7)"><polygon points="-1.11022302e-16,1.11022302e-16 23.3812378,1.11022302e-16 23.3812378,9.88404638 -1.11022302e-16,9.88404638 -1.11022302e-16,1.11022302e-16" stroke="none" fill="#221F1F"></polygon></g></g><g transform="translate(121.82855492164343 81.54338264694115)"><g clip-path="url(#i8)"><polygon points="0,0 13.5365061,0 13.5365061,17.2970812 0,17.2970812 0,0" stroke="none" fill="#221F1F"></polygon></g></g></g><g transform="translate(0.0 4.942023190723376)"><g clip-path="url(#i9)"><polygon points="0,-3.55271368e-15 163.668665,-3.55271368e-15 163.668665,96.3694522 0,96.3694522 0,-3.55271368e-15" stroke="none" fill="#FCD3D4"></polygon></g></g><g transform="translate(62.760164656603585 65.48180727708905)"><g clip-path="url(#i10)"><polygon points="-1.94289029e-16,1.7985613e-14 25.8424207,1.7985613e-14 25.8424207,35.8296681 -1.94289029e-16,35.8296681 -1.94289029e-16,1.7985613e-14" stroke="none" fill="#221F1F"></polygon></g></g><g transform="translate(43.070701234924854 65.48180727708905)"><g clip-path="url(#i11)"><polygon points="-3.91353616e-15,9.53750967e-15 23.3812378,9.53750967e-15 23.3812378,35.8296681 -3.91353616e-15,35.8296681 -3.91353616e-15,9.53750967e-15" stroke="none" fill="#221F1F"></polygon></g></g><g transform="translate(134.13446956019288 66.71731307477012)"><g clip-path="url(#i12)"><polygon points="1.47659662e-14,1.76525461e-14 23.3812378,1.76525461e-14 23.3812378,33.3586565 1.47659662e-14,33.3586565 1.47659662e-14,1.76525461e-14" stroke="none" fill="#221F1F"></polygon></g></g><g transform="translate(3.691774391565559 0.0)"><g clip-path="url(#i13)"><polygon points="-2.5864727e-15,-7.10542736e-15 164.899256,-7.10542736e-15 164.899256,74.1303479 -2.5864727e-15,74.1303479 -2.5864727e-15,-7.10542736e-15" stroke="none" fill="#221F1F"></polygon></g></g><g transform="translate(83.68021954213873 79.07237105157947)"><g clip-path="url(#i14)"><polygon points="6.21724894e-15,2.42861287e-16 57.8377988,2.42861287e-16 57.8377988,6.17752899 6.21724894e-15,6.17752899 6.21724894e-15,2.42861287e-16" stroke="none" fill="#221F1F"></polygon></g></g><g transform="translate(123.05914638549802 81.54338264694115)"><g clip-path="url(#i15)"><polygon points="1.37390099e-15,4.31599201e-15 15.997689,4.31599201e-15 15.997689,19.7680928 1.37390099e-15,19.7680928 1.37390099e-15,4.31599201e-15" stroke="none" fill="#221F1F"></polygon></g></g><g transform="translate(159.97689030114816 17.297081167532724)"><g clip-path="url(#i16)"><polygon points="0,1.11022302e-16 23.3812378,1.11022302e-16 23.3812378,9.88404638 0,9.88404638 0,1.11022302e-16" stroke="none" fill="#221F1F"></polygon></g></g></g><g transform="translate(126.88524590163973 55.01944984717987)"><g transform="translate(44.21496940885481 22.94053903862232)"><text transform="translate(0.0 116.0)" font-family="DMSerifDisplay-Regular, DM Serif Display" font-size="112.38473360655738" font-weight="normal" fill="#111111" text-anchor="left">Piggy</text></g><g transform="translate(287.6300923063791 104.08307863295386)"><g clip-path="url(#i17)"><polygon points="0,-8.8817842e-16 103.251828,-8.8817842e-16 103.251828,60.1778272 0,60.1778272 0,-8.8817842e-16" stroke="none" fill="#FCD3D4"></polygon></g></g><g transform="translate(326.96412202349165 142.1547652125596)"><g clip-path="url(#i18)"><polygon points="-1.11022302e-16,1.09912079e-14 15.9794496,1.09912079e-14 15.9794496,22.1061406 -1.11022302e-16,22.1061406 -1.11022302e-16,1.09912079e-14" stroke="none" fill="#221F1F"></polygon></g></g><g transform="translate(314.6722377368933 142.1547652125596)"><g clip-path="url(#i19)"><polygon points="-2.45636844e-15,5.88418203e-15 14.7502611,5.88418203e-15 14.7502611,22.1061406 -2.45636844e-15,22.1061406 -2.45636844e-15,5.88418203e-15" stroke="none" fill="#221F1F"></polygon></g></g><g transform="translate(372.4440938839034 143.38288413448254)"><g clip-path="url(#i20)"><polygon points="9.29811783e-15,1.10744747e-14 14.7502611,1.10744747e-14 14.7502611,20.8780217 9.29811783e-15,20.8780217 9.29811783e-15,1.10744747e-14" stroke="none" fill="#221F1F"></polygon></g></g><g transform="translate(290.0884691637002 101.62684078910888)"><g clip-path="url(#i21)"><polygon points="-1.63844632e-15,-5.10702591e-15 104.481016,-5.10702591e-15 104.481016,46.668519 -1.63844632e-15,46.668519 -1.63844632e-15,-5.10702591e-15" stroke="none" fill="#221F1F"></polygon></g></g><g transform="translate(340.4851947387506 150.75159766601837)"><g clip-path="url(#i22)"><polygon points="3.99680289e-15,1.45716772e-16 36.8756529,1.45716772e-16 36.8756529,3.68435677 3.99680289e-15,3.68435677 3.99680289e-15,1.45716772e-16" stroke="none" fill="#221F1F"></polygon></g></g><g transform="translate(365.06896331194366 151.9797165879413)"><g clip-path="url(#i23)"><polygon points="8.32667268e-16,2.67147415e-15 9.83350743,2.67147415e-15 9.83350743,12.2811892 8.32667268e-16,12.2811892 8.32667268e-16,2.67147415e-15" stroke="none" fill="#221F1F"></polygon></g></g><g transform="translate(388.4235434564798 112.67991108641354)"><g clip-path="url(#i24)"><polygon points="5.55111512e-17,0 14.7502611,0 14.7502611,6.14059461 5.55111512e-17,6.14059461 5.55111512e-17,0" stroke="none" fill="#221F1F"></polygon></g></g><g transform="translate(586.3228804706996 22.94053903862232)"><text transform="translate(0.0 116.0)" font-family="DMSerifDisplay-Regular, DM Serif Display" font-size="112.38473360655738" font-weight="normal" fill="#111111" text-anchor="left">Piggy</text></g><g transform="translate(829.7021893453275 99.170602945263)"><g clip-path="url(#i25)"><polygon points="0,-4.4408921e-16 102.02264,-4.4408921e-16 102.02264,58.9497083 0,58.9497083 0,-4.4408921e-16" stroke="none" fill="#FFFFFF"></polygon></g></g><g transform="translate(869.0362190624401 138.47040844679168)"><g clip-path="url(#i26)"><polygon points="5.37070388e-15,2.55351296e-15 15.9794496,2.55351296e-15 15.9794496,22.1061406 5.37070388e-15,22.1061406 5.37070388e-15,2.55351296e-15" stroke="none" fill="#221F1F"></polygon></g></g><g transform="translate(856.7443347758417 138.47040844679168)"><g clip-path="url(#i27)"><polygon points="0,0 13.5210727,0 13.5210727,20.8780217 0,20.8780217 0,0" stroke="none" fill="#221F1F"></polygon></g></g><g transform="translate(914.5161909228518 139.6985273687137)"><g clip-path="url(#i28)"><polygon points="9.29811783e-15,2.1649349e-15 14.7502611,2.1649349e-15 14.7502611,20.8780217 9.29811783e-15,20.8780217 9.29811783e-15,2.1649349e-15" stroke="none" fill="#221F1F"></polygon></g></g><g transform="translate(830.9313777739881 96.71436510141803)"><g clip-path="url(#i29)"><polygon points="-1.66967135e-15,3.10862447e-15 105.710205,3.10862447e-15 105.710205,46.668519 -1.66967135e-15,46.668519 -1.66967135e-15,3.10862447e-15" stroke="none" fill="#221F1F"></polygon></g></g><g transform="translate(882.5572917776954 147.06724090025045)"><g clip-path="url(#i30)"><polygon points="3.94129174e-15,3.18148285e-15 36.8756529,3.18148285e-15 36.8756529,3.68435677 3.94129174e-15,3.68435677 3.94129174e-15,3.18148285e-15" stroke="none" fill="#221F1F"></polygon></g></g><g transform="translate(930.4956404954282 107.76743539872268)"><g clip-path="url(#i31)"><polygon points="0,1.11022302e-16 14.7502611,1.11022302e-16 14.7502611,6.14059461 0,6.14059461 0,1.11022302e-16" stroke="none" fill="#221F1F"></polygon></g></g><g transform="translate(907.1410603508921 148.2953598221734)"><g clip-path="url(#i32)"><polygon points="0,0 8.604319,0 8.604319,11.0530703 0,11.0530703 0,0" stroke="none" fill="#221F1F"></polygon></g></g><g transform="translate(0.0 142.1547652125596)"><path d="M0.923145595,1.22811892 L451.418196,1.22811892" stroke="#969696" stroke-width="1.8442623" fill="none" stroke-linecap="square" stroke-miterlimit="10" stroke-dasharray=" 9.221311569213867 9.221311569213867"></path></g><g transform="translate(0.0 57.414559599889344)"><path d="M0.923145595,1.22811892 L451.418196,1.22811892" stroke="#969696" stroke-width="1.8442623" fill="none" stroke-linecap="square" stroke-miterlimit="10" stroke-dasharray=" 9.221311569213867 9.221311569213867"></path></g><g transform="translate(0.0 30.395943317589172)"><path d="M0.923145595,1.22811892 L451.418196,1.22811892" stroke="#969696" stroke-width="1.8442623" fill="none" stroke-linecap="square" stroke-miterlimit="10" stroke-dasharray=" 9.221311569213867 9.221311569213867"></path></g><g transform="translate(406.7385789507334 2.2737367544323206e-13) rotate(90.0)"><path d="M0,0.491803279 L215.534871,0.491803279" stroke="#969696" stroke-width="1.8442623" fill="none" stroke-linecap="square" stroke-miterlimit="10" stroke-dasharray=" 9.221311569213867 9.221311569213867"></path></g><g transform="translate(0.0 170.4015004167827)"><path d="M0.923145595,1.22811892 L451.418196,1.22811892" stroke="#969696" stroke-width="1.8442623" fill="none" stroke-linecap="square" stroke-miterlimit="10" stroke-dasharray=" 9.221311569213867 9.221311569213867"></path></g><g transform="translate(47.815557782088966 2.2737367544323206e-13) rotate(90.0)"><path d="M0,0.491803279 L215.534871,0.491803279" stroke="#969696" stroke-width="1.8442623" fill="none" stroke-linecap="square" stroke-miterlimit="10" stroke-dasharray=" 9.221311569213867 9.221311569213867"></path></g></g><g transform="translate(0.0 526.2295081967214)"><g clip-path="url(#i33)"><polygon points="0,0 1200,0 1200,261.770492 0,261.770492 0,0" stroke="none" fill="#2A2A2A"></polygon></g><g transform="translate(172.1125955940588 54.098360655737906)"><text transform="translate(0.0 116.0)" font-family="DMSerifDisplay-Regular, DM Serif Display" font-size="112.38473360655738" font-weight="normal" fill="#FFFFFF" text-anchor="left">Piggy</text><g transform="translate(243.45148665879242 78.69093834858722)"><g transform="translate(0.0 2.4620335914714815)"><g clip-path="url(#i34)"><polygon points="0,-8.8817842e-16 103.287346,-8.8817842e-16 103.287346,60.319823 0,60.319823 0,-8.8817842e-16" stroke="none" fill="#000000"></polygon></g></g><g transform="translate(39.3475604189789 40.623554259277626)"><g clip-path="url(#i35)"><polygon points="-1.2490009e-16,1.08801856e-14 15.9849464,1.08801856e-14 15.9849464,22.1583023 -1.2490009e-16,22.1583023 -1.2490009e-16,1.08801856e-14" stroke="none" fill="#FFFFFF"></polygon></g></g><g transform="translate(27.051447788049696 40.623554259277626)"><g clip-path="url(#i36)"><polygon points="-2.45636844e-15,5.89805982e-15 14.7553352,5.89805982e-15 14.7553352,22.1583023 -2.45636844e-15,22.1583023 -2.45636844e-15,5.89805982e-15" stroke="none" fill="#FFFFFF"></polygon></g></g><g transform="translate(84.84317715342513 41.854571055014276)"><g clip-path="url(#i37)"><polygon points="9.35362898e-15,1.10744747e-14 14.7553352,1.10744747e-14 14.7553352,20.9272855 9.35362898e-15,20.9272855 9.35362898e-15,1.10744747e-14" stroke="none" fill="#FFFFFF"></polygon></g></g><g transform="translate(2.4592225261858403 0.0)"><g clip-path="url(#i38)"><polygon points="-1.63844632e-15,-5.10702591e-15 104.516957,-5.10702591e-15 104.516957,46.7786382 -1.63844632e-15,46.7786382 -1.63844632e-15,-5.10702591e-15" stroke="none" fill="#FFFFFF"></polygon></g></g><g transform="translate(52.87328431300375 49.24067182942781)"><g clip-path="url(#i39)"><polygon points="3.99680289e-15,1.49186219e-16 36.8883379,1.49186219e-16 36.8883379,3.69305039 3.99680289e-15,3.69305039 3.99680289e-15,1.49186219e-16" stroke="none" fill="#FFFFFF"></polygon></g></g><g transform="translate(77.46550957486579 50.4716886251631)"><g clip-path="url(#i40)"><polygon points="8.32667268e-16,2.68535194e-15 9.8368901,2.68535194e-15 9.8368901,12.310168 8.32667268e-16,12.310168 8.32667268e-16,2.68535194e-15" stroke="none" fill="#FFFFFF"></polygon></g></g><g transform="translate(100.82812357363582 11.079151161620757)"><g clip-path="url(#i41)"><polygon points="0,5.55111512e-17 14.7553352,5.55111512e-17 14.7553352,6.15508398 0,6.15508398 0,5.55111512e-17" stroke="none" fill="#FFFFFF"></polygon></g></g></g></g><g transform="translate(772.1311475409839 89.50819672131138)"><g transform="translate(0.0 3.60655737704883)"><g clip-path="url(#i42)"><polygon points="0,-1.77635684e-15 163.52459,-1.77635684e-15 163.52459,93.7704918 0,93.7704918 0,-1.77635684e-15" stroke="none" fill="#000000"></polygon></g></g><g transform="translate(61.47540983606451 62.51366120218563)"><g clip-path="url(#i43)"><polygon points="-2.22044605e-16,1.73194792e-14 25.8196721,1.73194792e-14 25.8196721,34.863388 -2.22044605e-16,34.863388 -2.22044605e-16,1.73194792e-14" stroke="none" fill="#FFFFFF"></polygon></g></g><g transform="translate(41.80327868852328 62.51366120218563)"><g clip-path="url(#i44)"><polygon points="-3.88578059e-15,9.2807706e-15 23.3606557,9.2807706e-15 23.3606557,34.863388 -3.88578059e-15,34.863388 -3.88578059e-15,9.2807706e-15" stroke="none" fill="#FFFFFF"></polygon></g></g><g transform="translate(134.01639344262185 64.9180327868853)"><g clip-path="url(#i45)"><polygon points="1.48214774e-14,1.72084569e-14 23.3606557,1.72084569e-14 23.3606557,32.4590164 1.48214774e-14,32.4590164 1.48214774e-14,1.72084569e-14" stroke="none" fill="#FFFFFF"></polygon></g></g><g transform="translate(3.6885245901630697 0.0)"><g clip-path="url(#i46)"><polygon points="-2.58213589e-15,-7.10542736e-15 164.754098,-7.10542736e-15 164.754098,72.1311475 -2.58213589e-15,72.1311475 -2.58213589e-15,-7.10542736e-15" stroke="none" fill="#FFFFFF"></polygon></g></g><g transform="translate(82.37704918032796 75.7377049180327)"><g clip-path="url(#i47)"><polygon points="6.21724894e-15,2.28983499e-16 57.7868852,2.28983499e-16 57.7868852,6.01092896 6.21724894e-15,6.01092896 6.21724894e-15,2.28983499e-16" stroke="none" fill="#FFFFFF"></polygon></g></g><g transform="translate(121.72131147541042 78.14207650273192)"><g clip-path="url(#i48)"><polygon points="1.37390099e-15,4.21884749e-15 15.9836066,4.21884749e-15 15.9836066,19.2349727 1.37390099e-15,19.2349727 1.37390099e-15,4.21884749e-15" stroke="none" fill="#FFFFFF"></polygon></g></g><g transform="translate(158.60655737704838 18.032786885245514)"><g clip-path="url(#i49)"><polygon points="0,0 23.3606557,0 23.3606557,9.61748634 0,9.61748634 0,0" stroke="none" fill="#FFFFFF"></polygon></g></g></g></g></g></svg>