<?xml version="1.0" encoding="UTF-8"?><svg version="1.1" width="1200px" height="1082px" viewBox="0 0 1200.0 1082.0" xmlns="http://www.w3.org/2000/svg" xmlns:xlink="http://www.w3.org/1999/xlink"><defs><clipPath id="i0"><path d="M1200,0 L1200,1082 L0,1082 L0,0 L1200,0 Z"></path></clipPath><clipPath id="i1"><path d="M1042,0 L1042,794 L0,794 L0,0 L1042,0 Z"></path></clipPath><clipPath id="i2"><path d="M132,0 C153.78,0 167.7192,13.7214 167.995806,35.342406 L168,36 C168,58 154,72 132,72 L36,72 C14.22,72 0.2808,58.2786 0.004194,36.657594 L0,36 C0,14 14,0 36,0 L132,0 Z"></path></clipPath><clipPath id="i3"><path d="M3,0 C4.65685,0 6,1.34315 6,3 C6,4.65685 4.65685,6 3,6 C1.34315,6 0,4.65685 0,3 C0,1.34315 1.34315,0 3,0 Z"></path></clipPath><clipPath id="i4"><path d="M6.23496996,0.354054 C6.63441996,-0.118018 7.36228996,-0.118018 7.76173996,0.354054 L13.7504,7.431614 C14.4906,8.306384 13.4169,9.536464 12.4502,8.921214 L7.53522996,5.793524 C7.20766996,5.585074 6.78904996,5.585074 6.46147996,5.793524 L1.54653996,8.921214 C0.579773959,9.536464 -0.493924041,8.306384 0.246269959,7.431614 Z"></path></clipPath><clipPath id="i5"><path d="M6.23496996,0.354054 C6.63441996,-0.118018 7.36228996,-0.118018 7.76173996,0.354054 L13.7504,7.431614 C14.4906,8.306384 13.4169,9.536464 12.4502,8.921214 L7.53522996,5.793524 C7.20766996,5.585074 6.78904996,5.585074 6.46147996,5.793524 L1.54653996,8.921214 C0.579773959,9.536464 -0.493924041,8.306384 0.246269959,7.431614 Z"></path></clipPath><clipPath id="i6"><path d="M3,0 C4.65685,0 6,1.34315 6,3 C6,4.65685 4.65685,6 3,6 C1.34315,6 0,4.65685 0,3 C0,1.34315 1.34315,0 3,0 Z"></path></clipPath><clipPath id="i7"><path d="M6.23496996,0.354054 C6.63441996,-0.118018 7.36228996,-0.118018 7.76173996,0.354054 L13.7504,7.431614 C14.4906,8.306384 13.4169,9.536464 12.4502,8.921214 L7.53522996,5.793524 C7.20766996,5.585074 6.78904996,5.585074 6.46147996,5.793524 L1.54653996,8.921214 C0.579773959,9.536464 -0.493924041,8.306384 0.246269959,7.431614 Z"></path></clipPath><clipPath id="i8"><path d="M3,0 C4.65685,0 6,1.34315 6,3 C6,4.65685 4.65685,6 3,6 C1.34315,6 0,4.65685 0,3 C0,1.34315 1.34315,0 3,0 Z"></path></clipPath><clipPath id="i9"><path d="M3,0 C4.65685,0 6,1.34315 6,3 C6,4.65685 4.65685,6 3,6 C1.34315,6 0,4.65685 0,3 C0,1.34315 1.34315,0 3,0 Z"></path></clipPath></defs><rect x="0px" y="0px" width="1200px" height="1082px" fill="#FFFFFF"></rect><g clip-path="url(#i0)"><g transform="translate(102.0 200.0)"><g clip-path="url(#i1)"><polygon points="0,0 1042,0 1042,794 0,794 0,0" stroke="none" fill="#FFFFFF"></polygon></g><g transform="translate(73.0 73.0)"><g transform="translate(504.0 0.0)"><g clip-path="url(#i2)"><polygon points="0,0 168,0 168,72 0,72 0,0" stroke="none" fill="#FFFFFF"></polygon></g><path d="M36,0 L84,0 L132,0 C154,0 168,14 168,36 L168,36 L168,36 C168,58 154,72 132,72 L84,72 L36,72 C14,72 0,58 0,36 L0,36 L0,36 C0,14 14,0 36,0 Z" stroke="#FFD7FC" stroke-width="2" fill="none" stroke-miterlimit="10"></path><g transform="translate(41.5 28.0)"><text transform="translate(0.0 13.0)" font-family="Roboto-Regular, Roboto" font-size="14.0" font-weight="normal" fill="#51565F">Landing Page</text></g></g><g transform="translate(728.0 96.0)"><g clip-path="url(#i2)"><polygon points="0,0 168,0 168,72 0,72 0,0" stroke="none" fill="#FFFFFF"></polygon></g><path d="M36,0 L84,0 L132,0 C154,0 168,14 168,36 L168,36 L168,36 C168,58 154,72 132,72 L84,72 L36,72 C14,72 0,58 0,36 L0,36 L0,36 C0,14 14,0 36,0 Z" stroke="#FF8DF5" stroke-width="2" fill="none" stroke-miterlimit="10"></path><g transform="translate(36.0 28.0)"><text transform="translate(0.0 13.0)" font-family="Roboto-Regular, Roboto" font-size="14.0" font-weight="normal" fill="#51565F">Create Account</text></g></g><g transform="translate(728.0 224.0)"><g clip-path="url(#i2)"><polygon points="0,0 168,0 168,72 0,72 0,0" stroke="none" fill="#FFFFFF"></polygon></g><path d="M36,0 L84,0 L132,0 C154,0 168,14 168,36 L168,36 L168,36 C168,58 154,72 132,72 L84,72 L36,72 C14,72 0,58 0,36 L0,36 L0,36 C0,14 14,0 36,0 Z" stroke="#FF8DF5" stroke-width="2" fill="none" stroke-miterlimit="10"></path><g transform="translate(36.5 28.0)"><text transform="translate(0.0 13.0)" font-family="Roboto-Regular, Roboto" font-size="14.0" font-weight="normal" fill="#51565F">Input Expenses</text></g></g><g transform="translate(728.0 352.0)"><g clip-path="url(#i2)"><polygon points="0,0 168,0 168,72 0,72 0,0" stroke="none" fill="#FFFFFF"></polygon></g><path d="M36,0 L84,0 L132,0 C154,0 168,14 168,36 L168,36 L168,36 C168,58 154,72 132,72 L84,72 L36,72 C14,72 0,58 0,36 L0,36 L0,36 C0,14 14,0 36,0 Z" stroke="#FF8DF5" stroke-width="2" fill="none" stroke-miterlimit="10"></path><g transform="translate(43.0 28.0)"><text transform="translate(0.0 13.0)" font-family="Roboto-Regular, Roboto" font-size="14.0" font-weight="normal" fill="#51565F">Input Income</text></g></g><g transform="translate(728.0 480.0)"><g clip-path="url(#i2)"><polygon points="0,0 168,0 168,72 0,72 0,0" stroke="none" fill="#FFFFFF"></polygon></g><path d="M36,0 L84,0 L132,0 C154,0 168,14 168,36 L168,36 L168,36 C168,58 154,72 132,72 L84,72 L36,72 C14,72 0,58 0,36 L0,36 L0,36 C0,14 14,0 36,0 Z" stroke="#FF8DF5" stroke-width="2" fill="none" stroke-miterlimit="10"></path><g transform="translate(34.5 28.0)"><text transform="translate(0.0 13.0)" font-family="Roboto-Regular, Roboto" font-size="14.0" font-weight="normal" fill="#51565F">Set Preferences</text></g></g><g transform="translate(280.0 96.0)"><g clip-path="url(#i2)"><polygon points="0,0 168,0 168,72 0,72 0,0" stroke="none" fill="#FFFFFF"></polygon></g><path d="M36,0 L84,0 L132,0 C154,0 168,14 168,36 L168,36 L168,36 C168,58 154,72 132,72 L84,72 L36,72 C14,72 0,58 0,36 L0,36 L0,36 C0,14 14,0 36,0 Z" stroke="#51565F" stroke-width="2" fill="none" stroke-miterlimit="10"></path><g transform="translate(62.5 28.0)"><text transform="translate(0.0 13.0)" font-family="Roboto-Regular, Roboto" font-size="14.0" font-weight="normal" fill="#51565F">Sign In</text></g></g><g transform="translate(280.0 256.0)"><g clip-path="url(#i2)"><polygon points="0,0 168,0 168,72 0,72 0,0" stroke="none" fill="#FFFFFF"></polygon></g><path d="M36,0 L84,0 L132,0 C154,0 168,14 168,36 L168,36 L168,36 C168,58 154,72 132,72 L84,72 L36,72 C14,72 0,58 0,36 L0,36 L0,36 C0,14 14,0 36,0 Z" stroke="#51565F" stroke-width="2" fill="none" stroke-miterlimit="10"></path><g transform="translate(50.0 28.0)"><text transform="translate(0.0 13.0)" font-family="Roboto-Regular, Roboto" font-size="14.0" font-weight="normal" fill="#51565F">Dashboard</text></g></g><g transform="translate(0.0 192.0)"><g clip-path="url(#i2)"><polygon points="0,0 168,0 168,72 0,72 0,0" stroke="none" fill="#FFFFFF"></polygon></g><path d="M36,0 L84,0 L132,0 C154,0 168,14 168,36 L168,36 L168,36 C168,58 154,72 132,72 L84,72 L36,72 C14,72 0,58 0,36 L0,36 L0,36 C0,14 14,0 36,0 Z" stroke="#FF2E76" stroke-width="2" fill="none" stroke-miterlimit="10"></path><g transform="translate(14.0 28.0)"><text transform="translate(0.0 13.0)" font-family="Roboto-Regular, Roboto" font-size="14.0" font-weight="normal" fill="#51565F">Input Income/Expense</text></g></g><g transform="translate(0.0 320.0)"><g clip-path="url(#i2)"><polygon points="0,0 168,0 168,72 0,72 0,0" stroke="none" fill="#FFFFFF"></polygon></g><path d="M36,0 L84,0 L132,0 C154,0 168,14 168,36 L168,36 L168,36 C168,58 154,72 132,72 L84,72 L36,72 C14,72 0,58 0,36 L0,36 L0,36 C0,14 14,0 36,0 Z" stroke="#FF2E76" stroke-width="2" fill="none" stroke-miterlimit="10"></path><g transform="translate(54.5 28.0)"><text transform="translate(0.0 13.0)" font-family="Roboto-Regular, Roboto" font-size="14.0" font-weight="normal" fill="#51565F">My Goals</text></g></g><g transform="translate(0.0 448.0)"><g clip-path="url(#i2)"><polygon points="0,0 168,0 168,72 0,72 0,0" stroke="none" fill="#FFFFFF"></polygon></g><path d="M36,0 L84,0 L132,0 C154,0 168,14 168,36 L168,36 L168,36 C168,58 154,72 132,72 L84,72 L36,72 C14,72 0,58 0,36 L0,36 L0,36 C0,14 14,0 36,0 Z" stroke="#FF2E76" stroke-width="2" fill="none" stroke-miterlimit="10"></path><g transform="translate(31.5 28.0)"><text transform="translate(0.0 13.0)" font-family="Roboto-Regular, Roboto" font-size="14.0" font-weight="normal" fill="#51565F">Create New Goal</text></g></g><g transform="translate(0.0 576.0)"><g clip-path="url(#i2)"><polygon points="0,0 168,0 168,72 0,72 0,0" stroke="none" fill="#FFFFFF"></polygon></g><path d="M36,0 L84,0 L132,0 C154,0 168,14 168,36 L168,36 L168,36 C168,58 154,72 132,72 L84,72 L36,72 C14,72 0,58 0,36 L0,36 L0,36 C0,14 14,0 36,0 Z" stroke="#FF2E76" stroke-width="2" fill="none" stroke-miterlimit="10"></path><g transform="translate(17.5 18.0)"><text transform="translate(0.0 13.0)" font-family="Roboto-Regular, Roboto" font-size="14.0" font-weight="normal" fill="#51565F">Personalized Savings</text><g transform="translate(52.5 20.0)"><text transform="translate(0.0 13.0)" font-family="Roboto-Regular, Roboto" font-size="14.0" font-weight="normal" fill="#51565F">Plan</text></g></g></g><g transform="translate(77.00332619414439 33.0)"><g transform="translate(591.9966738058556 0.0)"><g transform="translate(4.0 3.0)"><path d="M0,0 L27,0 L129,0 C135.666667,0 139,3.33333333 139,10 L139,32 L139,56.5" stroke="#FF8DF5" stroke-width="2" fill="none" stroke-miterlimit="10"></path></g><g transform="translate(5.999999999999999 -8.881784197001252e-16) rotate(89.99999999999999)"><g clip-path="url(#i3)"><polygon points="0,0 6,0 6,6 0,6 0,0" stroke="none" fill="#FF8DF5"></polygon></g></g><g transform="translate(149.9999999590362 62.08716399999998) rotate(179.99999999999997)"><g clip-path="url(#i4)"><polygon points="1.11022302e-16,5.55111512e-17 13.9966738,5.55111512e-17 13.9966738,9.08717385 1.11022302e-16,9.08717385 1.11022302e-16,5.55111512e-17" stroke="none" fill="#FF8DF5"></polygon></g></g></g><g transform="translate(280.0 0.0)"><g transform="translate(6.9966738058556075 3.0)"><path d="M139,0 L112,0 L10,0 C3.33333333,0 0,3.33333333 0,10 L0,32 L0,56.5" stroke="#51565F" stroke-width="2" fill="none" stroke-miterlimit="10"></path></g><g transform="translate(143.9966738058556 6.0) rotate(-90.00000000000001)"><g clip-path="url(#i3)"><polygon points="0,0 6,0 6,6 0,6 0,0" stroke="none" fill="#51565F"></polygon></g></g><g transform="translate(13.996673764891813 62.08716399999998) rotate(179.99999999999997)"><g clip-path="url(#i5)"><polygon points="-2.77555756e-17,5.55111512e-17 13.9966738,5.55111512e-17 13.9966738,9.08717385 -2.77555756e-17,9.08717385 -2.77555756e-17,5.55111512e-17" stroke="none" fill="#51565F"></polygon></g></g></g><g transform="translate(728.0 132.0)"><g transform="translate(6.4966738058556075 4.0)"><path d="M0.5,0 L0.5,27 L0.5,27 L0.5,51.5" stroke="#FF8DF5" stroke-width="2" fill="none" stroke-miterlimit="10"></path></g><g transform="translate(9.996673805855607 6.0) rotate(180.0)"><g clip-path="url(#i3)"><polygon points="0,0 6,0 6,6 0,6 0,0" stroke="none" fill="#FF8DF5"></polygon></g></g><g transform="translate(13.996673764891813 58.08716399999998) rotate(179.99999999999997)"><g clip-path="url(#i5)"><polygon points="-2.77555756e-17,5.55111512e-17 13.9966738,5.55111512e-17 13.9966738,9.08717385 -2.77555756e-17,9.08717385 -2.77555756e-17,5.55111512e-17" stroke="none" fill="#FF8DF5"></polygon></g></g></g><g transform="translate(728.0 260.0)"><g transform="translate(6.4966738058556075 4.0)"><path d="M0.5,0 L0.5,27 L0.5,27 L0.5,51.5" stroke="#FF8DF5" stroke-width="2" fill="none" stroke-miterlimit="10"></path></g><g transform="translate(9.996673805855607 6.0) rotate(180.0)"><g clip-path="url(#i3)"><polygon points="0,0 6,0 6,6 0,6 0,0" stroke="none" fill="#FF8DF5"></polygon></g></g><g transform="translate(13.996673764891813 58.08716399999998) rotate(179.99999999999997)"><g clip-path="url(#i5)"><polygon points="-2.77555756e-17,5.55111512e-17 13.9966738,5.55111512e-17 13.9966738,9.08717385 -2.77555756e-17,9.08717385 -2.77555756e-17,5.55111512e-17" stroke="none" fill="#FF8DF5"></polygon></g></g></g><g transform="translate(728.0 388.0)"><g transform="translate(6.4966738058556075 4.0)"><path d="M0.5,0 L0.5,27 L0.5,27 L0.5,51.5" stroke="#FF8DF5" stroke-width="2" fill="none" stroke-miterlimit="10"></path></g><g transform="translate(9.996673805855607 6.0) rotate(180.0)"><g clip-path="url(#i3)"><polygon points="0,0 6,0 6,6 0,6 0,0" stroke="none" fill="#FF8DF5"></polygon></g></g><g transform="translate(13.996673764891813 58.08716399999998) rotate(179.99999999999997)"><g clip-path="url(#i5)"><polygon points="-2.77555756e-17,5.55111512e-17 13.9966738,5.55111512e-17 13.9966738,9.08717385 -2.77555756e-17,9.08717385 -2.77555756e-17,5.55111512e-17" stroke="none" fill="#FF8DF5"></polygon></g></g></g><g transform="translate(91.90950980585512 444.00332619414394)"><g transform="translate(2.5871640000004845 6.996673805856062)"><path d="M555.5,32 L528.5,32 L34.5,32 C27.8333333,32 24.5,28.6666667 24.5,22 L24.5,10 C24.5,3.33333333 21.1666667,0 14.5,0 L0,0" stroke="#FF8DF5" stroke-width="2" fill="none" stroke-miterlimit="10"></path></g><g transform="translate(556.0871640000005 41.99667380585606) rotate(-90.00000000000001)"><g clip-path="url(#i6)"><polygon points="0,0 6,0 6,6 0,6 0,0" stroke="none" fill="#FF8DF5"></polygon></g></g><g transform="translate(9.71667191151937e-13 13.996673764891753) rotate(-90.00000000000001)"><g clip-path="url(#i5)"><polygon points="-2.77555756e-17,5.55111512e-17 13.9966738,5.55111512e-17 13.9966738,9.08717385 -2.77555756e-17,9.08717385 -2.77555756e-17,5.55111512e-17" stroke="none" fill="#FF8DF5"></polygon></g></g></g><g transform="translate(280.0 132.0)"><g transform="translate(6.4966738058556075 4.0)"><path d="M0.5,0 L0.5,27 L0.5,59 L0.5,83.5" stroke="#51565F" stroke-width="2" fill="none" stroke-miterlimit="10"></path></g><g transform="translate(9.996673805855607 6.0) rotate(180.0)"><g clip-path="url(#i3)"><polygon points="0,0 6,0 6,6 0,6 0,0" stroke="none" fill="#51565F"></polygon></g></g><g transform="translate(13.996673764891813 90.08716399999997) rotate(179.99999999999997)"><g clip-path="url(#i7)"><polygon points="5.55111512e-17,5.55111512e-17 13.9966738,5.55111512e-17 13.9966738,9.08717385 5.55111512e-17,9.08717385 5.55111512e-17,5.55111512e-17" stroke="none" fill="#51565F"></polygon></g></g></g><g transform="translate(91.90950980585694 188.00332619414394)"><g transform="translate(2.5871639999986655 6.996673805856062)"><path d="M107.5,64 L80.5,64 L34.5,64 C27.8333333,64 24.5,60.6666667 24.5,54 L24.5,10 C24.5,3.33333333 21.1666667,0 14.5,0 L0,0" stroke="#FF2E76" stroke-width="2" fill="none" stroke-miterlimit="10"></path></g><g transform="translate(108.08716399999867 73.99667380585606) rotate(-90.00000000000001)"><g clip-path="url(#i3)"><polygon points="0,3.63797881e-12 6,3.63797881e-12 6,6 0,6 0,3.63797881e-12" stroke="none" fill="#FF2E76"></polygon></g></g><g transform="translate(-8.473222123939195e-13 13.996673764891753) rotate(-90.00000000000001)"><g clip-path="url(#i5)"><polygon points="-2.77555756e-17,5.55111512e-17 13.9966738,5.55111512e-17 13.9966738,9.08717385 -2.77555756e-17,9.08717385 -2.77555756e-17,5.55111512e-17" stroke="none" fill="#FF2E76"></polygon></g></g></g><g transform="translate(91.90950980585694 256.0)"><g transform="translate(2.5871639999986655 3.0)"><path d="M107.5,0 L80.5,0 L34.5,0 C27.8333333,0 24.5,3.33333333 24.5,10 L24.5,54 C24.5,60.6666667 21.1666667,64 14.5,64 L0,64" stroke="#FF2E76" stroke-width="2" fill="none" stroke-miterlimit="10"></path></g><g transform="translate(108.08716399999867 6.0) rotate(-90.00000000000001)"><g clip-path="url(#i8)"><polygon points="0,0 6,0 6,6 0,6 0,0" stroke="none" fill="#FF2E76"></polygon></g></g><g transform="translate(-8.473222123939195e-13 73.99999995903569) rotate(-90.00000000000001)"><g clip-path="url(#i5)"><polygon points="-2.77555756e-17,5.55111512e-17 13.9966738,5.55111512e-17 13.9966738,9.08717385 -2.77555756e-17,9.08717385 -2.77555756e-17,5.55111512e-17" stroke="none" fill="#FF2E76"></polygon></g></g></g><g transform="translate(91.90950980585694 256.0)"><g transform="translate(2.5871639999986655 3.0)"><path d="M107.5,0 L80.5,0 L34.5,0 C27.8333333,0 24.5,3.33333333 24.5,10 L24.5,182 C24.5,188.666667 21.1666667,192 14.5,192 L0,192" stroke="#FF2E76" stroke-width="2" fill="none" stroke-miterlimit="10"></path></g><g transform="translate(108.08716399999867 6.0) rotate(-90.00000000000001)"><g clip-path="url(#i3)"><polygon points="0,0 6,0 6,6 0,6 0,0" stroke="none" fill="#FF2E76"></polygon></g></g><g transform="translate(-8.473222123939195e-13 201.99999995903568) rotate(-90.00000000000001)"><g clip-path="url(#i5)"><polygon points="-2.77555756e-17,5.55111512e-17 13.9966738,5.55111512e-17 13.9966738,9.08717385 -2.77555756e-17,9.08717385 -2.77555756e-17,5.55111512e-17" stroke="none" fill="#FF2E76"></polygon></g></g></g><g transform="translate(0.0 356.0)"><g transform="translate(6.4966738058556075 4.0)"><path d="M0.5,0 L0.5,27 L0.5,27 L0.5,51.5" stroke="#FF2E76" stroke-width="2" fill="none" stroke-miterlimit="10"></path></g><g transform="translate(9.996673805855607 6.0) rotate(180.0)"><g clip-path="url(#i9)"><polygon points="0,0 6,0 6,6 0,6 0,0" stroke="none" fill="#FF2E76"></polygon></g></g><g transform="translate(13.996673764891813 58.08716399999998) rotate(179.99999999999997)"><g clip-path="url(#i7)"><polygon points="5.55111512e-17,5.55111512e-17 13.9966738,5.55111512e-17 13.9966738,9.08717385 5.55111512e-17,9.08717385 5.55111512e-17,5.55111512e-17" stroke="none" fill="#FF2E76"></polygon></g></g></g><g transform="translate(0.0 484.0)"><g transform="translate(6.4966738058556075 4.0)"><path d="M0.5,0 L0.5,27 L0.5,27 L0.5,51.5" stroke="#FF2E76" stroke-width="2" fill="none" stroke-miterlimit="10"></path></g><g transform="translate(9.996673805855607 6.0) rotate(180.0)"><g clip-path="url(#i9)"><polygon points="0,0 6,0 6,6 0,6 0,0" stroke="none" fill="#FF2E76"></polygon></g></g><g transform="translate(13.996673764891813 58.08716399999998) rotate(179.99999999999997)"><g clip-path="url(#i7)"><polygon points="5.55111512e-17,5.55111512e-17 13.9966738,5.55111512e-17 13.9966738,9.08717385 5.55111512e-17,9.08717385 5.55111512e-17,5.55111512e-17" stroke="none" fill="#FF2E76"></polygon></g></g></g></g></g></g><g transform="translate(140.96823280257013 83.5772217428821)"><g transform="translate(316.103171490573 761.5406158502947)"><text transform="translate(0.0 102.0)" font-family="DMSans-Bold, DM Sans" font-size="102.78688524590164" font-weight="bold" fill="#F1E0EF" text-anchor="left">3</text></g><g transform="translate(415.69027636154715 0.0)"><text transform="translate(0.0 102.0)" font-family="DMSans-Bold, DM Sans" font-size="102.78688524590164" font-weight="bold" fill="#D8D8D8" text-anchor="left">1</text></g><g transform="translate(0.0 72.47616656529772)"><text transform="translate(0.0 102.0)" font-family="DMSans-Bold, DM Sans" font-size="102.78688524590164" font-weight="bold" fill="#F4D9E2" text-anchor="left">2</text></g><g transform="translate(342.0677177294965 835.1195773631871)"><text transform="translate(0.0 19.0)"><tspan x="0px" y="0px" font-family="DMSans-Bold, DM Sans" font-size="19.475409836065573" font-weight="bold" fill="#A4329A" text-anchor="left">As a new user, I need to be able to create a profile, so </tspan><tspan x="0px" y="25px" font-family="DMSans-Bold, DM Sans" font-size="19.475409836065573" font-weight="bold" fill="#A4329A" text-anchor="left">that the financial advice I receive is personalized to </tspan><tspan x="0px" y="50px" font-family="DMSans-Bold, DM Sans" font-size="19.475409836065573" font-weight="bold" fill="#A4329A" text-anchor="left">me, my spending habits, and tailored to my goals.</tspan></text></g><g transform="translate(30.295500300679123 140.6260343144886)"><text transform="translate(0.0 19.0)"><tspan x="0px" y="0px" font-family="DMSans-Bold, DM Sans" font-size="19.475409836065573" font-weight="bold" fill="#B70441" text-anchor="left">As a user, I need to be able </tspan><tspan x="0px" y="25px" font-family="DMSans-Bold, DM Sans" font-size="19.475409836065573" font-weight="bold" fill="#B70441" text-anchor="left">to tell the tool what my </tspan><tspan x="0px" y="50px" font-family="DMSans-Bold, DM Sans" font-size="19.475409836065573" font-weight="bold" fill="#B70441" text-anchor="left">savings goal is and how long </tspan><tspan x="0px" y="75px" font-family="DMSans-Bold, DM Sans" font-size="19.475409836065573" font-weight="bold" fill="#B70441" text-anchor="left">I have to reach it, so that I </tspan><tspan x="0px" y="100px" font-family="DMSans-Bold, DM Sans" font-size="19.475409836065573" font-weight="bold" fill="#B70441" text-anchor="left">can save accordingly.</tspan></text></g><g transform="translate(415.68060240018895 67.07365026379375)"><text transform="translate(0.0 19.0)"><tspan x="0px" y="0px" font-family="DMSans-Bold, DM Sans" font-size="19.475409836065573" font-weight="bold" fill="#111111" text-anchor="left">As a user, I want to see a dashboard of my </tspan><tspan x="0px" y="25px" font-family="DMSans-Bold, DM Sans" font-size="19.475409836065573" font-weight="bold" fill="#111111" text-anchor="left">finances clearly and visually, so that I can see </tspan><tspan x="0px" y="50px" font-family="DMSans-Bold, DM Sans" font-size="19.475409836065573" font-weight="bold" fill="#111111" text-anchor="left">how much I am spending on what at a glance.</tspan></text></g></g></g></svg>