<?xml version="1.0" encoding="UTF-8"?><svg version="1.1" width="2400px" height="2164px" viewBox="0 0 2400.0 2164.0" xmlns="http://www.w3.org/2000/svg" xmlns:xlink="http://www.w3.org/1999/xlink"><defs><clipPath id="i0"><path d="M2400,0 L2400,2164 L0,2164 L0,0 L2400,0 Z"></path></clipPath><clipPath id="i1"><path d="M2084,0 L2084,1588 L0,1588 L0,0 L2084,0 Z"></path></clipPath><clipPath id="i2"><path d="M264,0 C307.56,0 335.4384,27.4428 335.991612,70.684812 L336,72 C336,116 308,144 264,144 L72,144 C28.44,144 0.5616,116.5572 0.008388,73.315188 L0,72 C0,28 28,0 72,0 L264,0 Z"></path></clipPath><clipPath id="i3"><path d="M6,0 C9.3137,0 12,2.6863 12,6 C12,9.3137 9.3137,12 6,12 C2.6863,12 0,9.3137 0,6 C0,2.6863 2.6863,0 6,0 Z"></path></clipPath><clipPath id="i4"><path d="M12.4699399,0.708108 C13.2688399,-0.236036 14.7245799,-0.236036 15.5234799,0.708108 L27.5007999,14.863228 C28.9811999,16.612768 26.8337999,19.072928 24.9003999,17.842428 L15.0704599,11.587048 C14.4153399,11.170148 13.5780999,11.170148 12.9229599,11.587048 L3.09307992,17.842428 C1.15954792,19.072928 -0.987848082,16.612768 0.492539918,14.863228 Z"></path></clipPath><clipPath id="i5"><path d="M12.4699399,0.708108 C13.2688399,-0.236036 14.7245799,-0.236036 15.5234799,0.708108 L27.5007999,14.863228 C28.9811999,16.612768 26.8337999,19.072928 24.9003999,17.842428 L15.0704599,11.587048 C14.4153399,11.170148 13.5780999,11.170148 12.9229599,11.587048 L3.09307992,17.842428 C1.15954792,19.072928 -0.987848082,16.612768 0.492539918,14.863228 Z"></path></clipPath><clipPath id="i6"><path d="M6,0 C9.3137,0 12,2.6863 12,6 C12,9.3137 9.3137,12 6,12 C2.6863,12 0,9.3137 0,6 C0,2.6863 2.6863,0 6,0 Z"></path></clipPath><clipPath id="i7"><path d="M12.4699399,0.708108 C13.2688399,-0.236036 14.7245799,-0.236036 15.5234799,0.708108 L27.5007999,14.863228 C28.9811999,16.612768 26.8337999,19.072928 24.9003999,17.842428 L15.0704599,11.587048 C14.4153399,11.170148 13.5780999,11.170148 12.9229599,11.587048 L3.09307992,17.842428 C1.15954792,19.072928 -0.987848082,16.612768 0.492539918,14.863228 Z"></path></clipPath><clipPath id="i8"><path d="M6,0 C9.3137,0 12,2.6863 12,6 C12,9.3137 9.3137,12 6,12 C2.6863,12 0,9.3137 0,6 C0,2.6863 2.6863,0 6,0 Z"></path></clipPath><clipPath id="i9"><path d="M6,0 C9.3137,0 12,2.6863 12,6 C12,9.3137 9.3137,12 6,12 C2.6863,12 0,9.3137 0,6 C0,2.6863 2.6863,0 6,0 Z"></path></clipPath></defs><rect x="0px" y="0px" width="2400px" height="2164px" fill="#FFFFFF"></rect><g clip-path="url(#i0)"><g transform="translate(204.0 400.0)"><g clip-path="url(#i1)"><polygon points="0,0 2084,0 2084,1588 0,1588 0,0" stroke="none" fill="#FFFFFF"></polygon></g><g transform="translate(146.0 146.0)"><g transform="translate(1008.0 0.0)"><g clip-path="url(#i2)"><polygon points="0,0 336,0 336,144 0,144 0,0" stroke="none" fill="#FFFFFF"></polygon></g><path d="M72,0 L168,0 L264,0 C308,0 336,28 336,72 L336,72 L336,72 C336,116 308,144 264,144 L168,144 L72,144 C28,144 0,116 0,72 L0,72 L0,72 C0,28 28,0 72,0 Z" stroke="#FFD7FC" stroke-width="4" fill="none" stroke-miterlimit="10"></path><g transform="translate(83.0 56.0)"><text transform="translate(0.0 26.0)" font-family="Roboto-Regular, Roboto" font-size="28.0" font-weight="normal" fill="#51565F">Landing Page</text></g></g><g transform="translate(1456.0 192.0)"><g clip-path="url(#i2)"><polygon points="0,0 336,0 336,144 0,144 0,0" stroke="none" fill="#FFFFFF"></polygon></g><path d="M72,0 L168,0 L264,0 C308,0 336,28 336,72 L336,72 L336,72 C336,116 308,144 264,144 L168,144 L72,144 C28,144 0,116 0,72 L0,72 L0,72 C0,28 28,0 72,0 Z" stroke="#FF8DF5" stroke-width="4" fill="none" stroke-miterlimit="10"></path><g transform="translate(72.0 56.0)"><text transform="translate(0.0 26.0)" font-family="Roboto-Regular, Roboto" font-size="28.0" font-weight="normal" fill="#51565F">Create Account</text></g></g><g transform="translate(1456.0 448.0)"><g clip-path="url(#i2)"><polygon points="0,0 336,0 336,144 0,144 0,0" stroke="none" fill="#FFFFFF"></polygon></g><path d="M72,0 L168,0 L264,0 C308,0 336,28 336,72 L336,72 L336,72 C336,116 308,144 264,144 L168,144 L72,144 C28,144 0,116 0,72 L0,72 L0,72 C0,28 28,0 72,0 Z" stroke="#FF8DF5" stroke-width="4" fill="none" stroke-miterlimit="10"></path><g transform="translate(73.0 56.0)"><text transform="translate(0.0 26.0)" font-family="Roboto-Regular, Roboto" font-size="28.0" font-weight="normal" fill="#51565F">Input Expenses</text></g></g><g transform="translate(1456.0 704.0)"><g clip-path="url(#i2)"><polygon points="0,0 336,0 336,144 0,144 0,0" stroke="none" fill="#FFFFFF"></polygon></g><path d="M72,0 L168,0 L264,0 C308,0 336,28 336,72 L336,72 L336,72 C336,116 308,144 264,144 L168,144 L72,144 C28,144 0,116 0,72 L0,72 L0,72 C0,28 28,0 72,0 Z" stroke="#FF8DF5" stroke-width="4" fill="none" stroke-miterlimit="10"></path><g transform="translate(86.0 56.0)"><text transform="translate(0.0 26.0)" font-family="Roboto-Regular, Roboto" font-size="28.0" font-weight="normal" fill="#51565F">Input Income</text></g></g><g transform="translate(1456.0 960.0)"><g clip-path="url(#i2)"><polygon points="0,0 336,0 336,144 0,144 0,0" stroke="none" fill="#FFFFFF"></polygon></g><path d="M72,0 L168,0 L264,0 C308,0 336,28 336,72 L336,72 L336,72 C336,116 308,144 264,144 L168,144 L72,144 C28,144 0,116 0,72 L0,72 L0,72 C0,28 28,0 72,0 Z" stroke="#FF8DF5" stroke-width="4" fill="none" stroke-miterlimit="10"></path><g transform="translate(69.0 56.0)"><text transform="translate(0.0 26.0)" font-family="Roboto-Regular, Roboto" font-size="28.0" font-weight="normal" fill="#51565F">Set Preferences</text></g></g><g transform="translate(560.0 192.0)"><g clip-path="url(#i2)"><polygon points="0,0 336,0 336,144 0,144 0,0" stroke="none" fill="#FFFFFF"></polygon></g><path d="M72,0 L168,0 L264,0 C308,0 336,28 336,72 L336,72 L336,72 C336,116 308,144 264,144 L168,144 L72,144 C28,144 0,116 0,72 L0,72 L0,72 C0,28 28,0 72,0 Z" stroke="#51565F" stroke-width="4" fill="none" stroke-miterlimit="10"></path><g transform="translate(125.0 56.0)"><text transform="translate(0.0 26.0)" font-family="Roboto-Regular, Roboto" font-size="28.0" font-weight="normal" fill="#51565F">Sign In</text></g></g><g transform="translate(560.0 512.0)"><g clip-path="url(#i2)"><polygon points="0,0 336,0 336,144 0,144 0,0" stroke="none" fill="#FFFFFF"></polygon></g><path d="M72,0 L168,0 L264,0 C308,0 336,28 336,72 L336,72 L336,72 C336,116 308,144 264,144 L168,144 L72,144 C28,144 0,116 0,72 L0,72 L0,72 C0,28 28,0 72,0 Z" stroke="#51565F" stroke-width="4" fill="none" stroke-miterlimit="10"></path><g transform="translate(100.0 56.0)"><text transform="translate(0.0 26.0)" font-family="Roboto-Regular, Roboto" font-size="28.0" font-weight="normal" fill="#51565F">Dashboard</text></g></g><g transform="translate(0.0 384.0)"><g clip-path="url(#i2)"><polygon points="0,0 336,0 336,144 0,144 0,0" stroke="none" fill="#FFFFFF"></polygon></g><path d="M72,0 L168,0 L264,0 C308,0 336,28 336,72 L336,72 L336,72 C336,116 308,144 264,144 L168,144 L72,144 C28,144 0,116 0,72 L0,72 L0,72 C0,28 28,0 72,0 Z" stroke="#FF2E76" stroke-width="4" fill="none" stroke-miterlimit="10"></path><g transform="translate(28.0 56.0)"><text transform="translate(0.0 26.0)" font-family="Roboto-Regular, Roboto" font-size="28.0" font-weight="normal" fill="#51565F">Input Income/Expense</text></g></g><g transform="translate(0.0 640.0)"><g clip-path="url(#i2)"><polygon points="0,0 336,0 336,144 0,144 0,0" stroke="none" fill="#FFFFFF"></polygon></g><path d="M72,0 L168,0 L264,0 C308,0 336,28 336,72 L336,72 L336,72 C336,116 308,144 264,144 L168,144 L72,144 C28,144 0,116 0,72 L0,72 L0,72 C0,28 28,0 72,0 Z" stroke="#FF2E76" stroke-width="4" fill="none" stroke-miterlimit="10"></path><g transform="translate(109.0 56.0)"><text transform="translate(0.0 26.0)" font-family="Roboto-Regular, Roboto" font-size="28.0" font-weight="normal" fill="#51565F">My Goals</text></g></g><g transform="translate(0.0 896.0)"><g clip-path="url(#i2)"><polygon points="0,0 336,0 336,144 0,144 0,0" stroke="none" fill="#FFFFFF"></polygon></g><path d="M72,0 L168,0 L264,0 C308,0 336,28 336,72 L336,72 L336,72 C336,116 308,144 264,144 L168,144 L72,144 C28,144 0,116 0,72 L0,72 L0,72 C0,28 28,0 72,0 Z" stroke="#FF2E76" stroke-width="4" fill="none" stroke-miterlimit="10"></path><g transform="translate(63.0 56.0)"><text transform="translate(0.0 26.0)" font-family="Roboto-Regular, Roboto" font-size="28.0" font-weight="normal" fill="#51565F">Create New Goal</text></g></g><g transform="translate(0.0 1152.0)"><g clip-path="url(#i2)"><polygon points="0,0 336,0 336,144 0,144 0,0" stroke="none" fill="#FFFFFF"></polygon></g><path d="M72,0 L168,0 L264,0 C308,0 336,28 336,72 L336,72 L336,72 C336,116 308,144 264,144 L168,144 L72,144 C28,144 0,116 0,72 L0,72 L0,72 C0,28 28,0 72,0 Z" stroke="#FF2E76" stroke-width="4" fill="none" stroke-miterlimit="10"></path><g transform="translate(35.0 36.0)"><text transform="translate(0.0 26.0)" font-family="Roboto-Regular, Roboto" font-size="28.0" font-weight="normal" fill="#51565F">Personalized Savings</text><g transform="translate(105.0 40.0)"><text transform="translate(0.0 26.0)" font-family="Roboto-Regular, Roboto" font-size="28.0" font-weight="normal" fill="#51565F">Plan</text></g></g></g><g transform="translate(154.00665238828879 66.0)"><g transform="translate(1183.9933476117112 0.0)"><g transform="translate(8.0 6.0)"><path d="M0,0 L54,0 L258,0 C271.333333,0 278,6.66666667 278,20 L278,64 L278,113" stroke="#FF8DF5" stroke-width="4" fill="none" stroke-miterlimit="10"></path></g><g transform="translate(11.999999999999998 -1.7763568394002505e-15) rotate(89.99999999999999)"><g clip-path="url(#i3)"><polygon points="0,0 12,0 12,12 0,12 0,0" stroke="none" fill="#FF8DF5"></polygon></g></g><g transform="translate(299.9999999180724 124.17432799999996) rotate(179.99999999999997)"><g clip-path="url(#i4)"><polygon points="2.22044605e-16,-2.27262653e-13 27.9933475,-2.27262653e-13 27.9933475,18.1743477 2.22044605e-16,18.1743477 2.22044605e-16,-2.27262653e-13" stroke="none" fill="#FF8DF5"></polygon></g></g></g><g transform="translate(560.0 0.0)"><g transform="translate(13.993347611711215 6.0)"><path d="M278,0 L224,0 L20,0 C6.66666667,0 0,6.66666667 0,20 L0,64 L0,113" stroke="#51565F" stroke-width="4" fill="none" stroke-miterlimit="10"></path></g><g transform="translate(287.9933476117112 12.0) rotate(-90.00000000000001)"><g clip-path="url(#i3)"><polygon points="0,0 12,0 12,12 0,12 0,0" stroke="none" fill="#51565F"></polygon></g></g><g transform="translate(27.993347529783627 124.17432799999996) rotate(179.99999999999997)"><g clip-path="url(#i5)"><polygon points="-5.55111512e-17,1.11022302e-16 27.9933475,1.11022302e-16 27.9933475,18.1743477 -5.55111512e-17,18.1743477 -5.55111512e-17,1.11022302e-16" stroke="none" fill="#51565F"></polygon></g></g></g><g transform="translate(1456.0 264.0)"><g transform="translate(12.993347611711215 8.0)"><path d="M1,0 L1,54 L1,54 L1,103" stroke="#FF8DF5" stroke-width="4" fill="none" stroke-miterlimit="10"></path></g><g transform="translate(19.993347611711215 12.0) rotate(180.0)"><g clip-path="url(#i3)"><polygon points="0,0 12,0 12,12 0,12 0,0" stroke="none" fill="#FF8DF5"></polygon></g></g><g transform="translate(27.993347529783627 116.17432799999996) rotate(179.99999999999997)"><g clip-path="url(#i5)"><polygon points="-5.55111512e-17,1.1379786e-13 27.9933475,1.1379786e-13 27.9933475,18.1743477 -5.55111512e-17,18.1743477 -5.55111512e-17,1.1379786e-13" stroke="none" fill="#FF8DF5"></polygon></g></g></g><g transform="translate(1456.0 520.0)"><g transform="translate(12.993347611711215 8.0)"><path d="M1,0 L1,54 L1,54 L1,103" stroke="#FF8DF5" stroke-width="4" fill="none" stroke-miterlimit="10"></path></g><g transform="translate(19.993347611711215 12.0) rotate(180.0)"><g clip-path="url(#i3)"><polygon points="0,0 12,0 12,12 0,12 0,0" stroke="none" fill="#FF8DF5"></polygon></g></g><g transform="translate(27.993347529783627 116.17432799999996) rotate(179.99999999999997)"><g clip-path="url(#i5)"><polygon points="9.09439191e-13,1.11022302e-16 27.9933475,1.11022302e-16 27.9933475,18.1743477 9.09439191e-13,18.1743477 9.09439191e-13,1.11022302e-16" stroke="none" fill="#FF8DF5"></polygon></g></g></g><g transform="translate(1456.0 776.0)"><g transform="translate(12.993347611711215 8.0)"><path d="M1,0 L1,54 L1,54 L1,103" stroke="#FF8DF5" stroke-width="4" fill="none" stroke-miterlimit="10"></path></g><g transform="translate(19.993347611711215 12.0) rotate(180.0)"><g clip-path="url(#i3)"><polygon points="0,0 12,0 12,12 0,12 0,0" stroke="none" fill="#FF8DF5"></polygon></g></g><g transform="translate(27.993347529783627 116.17432799999996) rotate(179.99999999999997)"><g clip-path="url(#i5)"><polygon points="-5.55111512e-17,1.11022302e-16 27.9933475,1.11022302e-16 27.9933475,18.1743477 -5.55111512e-17,18.1743477 -5.55111512e-17,1.11022302e-16" stroke="none" fill="#FF8DF5"></polygon></g></g></g><g transform="translate(183.81901961171206 888.0066523882879)"><g transform="translate(5.17432799999915 13.993347611712124)"><path d="M1111,64 L1057,64 L69,64 C55.6666667,64 49,57.3333333 49,44 L49,20 C49,6.66666667 42.3333333,0 29,0 L0,0" stroke="#FF8DF5" stroke-width="4" fill="none" stroke-miterlimit="10"></path></g><g transform="translate(1112.1743279999992 83.99334761171212) rotate(-90.00000000000001)"><g clip-path="url(#i6)"><polygon points="0,0 12,0 12,12 0,12 0,0" stroke="none" fill="#FF8DF5"></polygon></g></g><g transform="translate(1.2434497875801753e-13 27.993347529783506) rotate(-90.00000000000001)"><g clip-path="url(#i5)"><polygon points="-5.55111512e-17,1.11022302e-16 27.9933475,1.11022302e-16 27.9933475,18.1743477 -5.55111512e-17,18.1743477 -5.55111512e-17,1.11022302e-16" stroke="none" fill="#FF8DF5"></polygon></g></g></g><g transform="translate(560.0 264.0)"><g transform="translate(12.993347611711215 8.0)"><path d="M1,0 L1,54 L1,118 L1,167" stroke="#51565F" stroke-width="4" fill="none" stroke-miterlimit="10"></path></g><g transform="translate(19.993347611711215 12.0) rotate(180.0)"><g clip-path="url(#i3)"><polygon points="0,0 12,0 12,12 0,12 0,0" stroke="none" fill="#51565F"></polygon></g></g><g transform="translate(27.993347529783627 180.17432799999995) rotate(179.99999999999997)"><g clip-path="url(#i7)"><polygon points="1.11022302e-16,-1.13575815e-13 27.9933475,-1.13575815e-13 27.9933475,18.1743477 1.11022302e-16,18.1743477 1.11022302e-16,-1.13575815e-13" stroke="none" fill="#51565F"></polygon></g></g></g><g transform="translate(183.8190196117121 376.0066523882879)"><g transform="translate(5.17432799999915 13.993347611712124)"><path d="M215,128 L161,128 L69,128 C55.6666667,128 49,121.333333 49,108 L49,20 C49,6.66666667 42.3333333,0 29,0 L0,0" stroke="#FF2E76" stroke-width="4" fill="none" stroke-miterlimit="10"></path></g><g transform="translate(216.17432799999915 147.99334761171212) rotate(-90.00000000000001)"><g clip-path="url(#i3)"><polygon points="0,0 12,0 12,12 0,12 0,0" stroke="none" fill="#FF2E76"></polygon></g></g><g transform="translate(1.2434497875801753e-13 27.993347529783506) rotate(-90.00000000000001)"><g clip-path="url(#i5)"><polygon points="-5.55111512e-17,1.11022302e-16 27.9933475,1.11022302e-16 27.9933475,18.1743477 -5.55111512e-17,18.1743477 -5.55111512e-17,1.11022302e-16" stroke="none" fill="#FF2E76"></polygon></g></g></g><g transform="translate(183.8190196117121 512.0)"><g transform="translate(5.17432799999915 6.0)"><path d="M215,0 L161,0 L69,0 C55.6666667,0 49,6.66666667 49,20 L49,108 C49,121.333333 42.3333333,128 29,128 L0,128" stroke="#FF2E76" stroke-width="4" fill="none" stroke-miterlimit="10"></path></g><g transform="translate(216.17432799999915 12.0) rotate(-90.00000000000001)"><g clip-path="url(#i8)"><polygon points="0,0 12,0 12,12 0,12 0,0" stroke="none" fill="#FF2E76"></polygon></g></g><g transform="translate(1.2434497875801753e-13 147.99999991807138) rotate(-90.00000000000001)"><g clip-path="url(#i5)"><polygon points="-5.55111512e-17,1.11022302e-16 27.9933475,1.11022302e-16 27.9933475,18.1743477 -5.55111512e-17,18.1743477 -5.55111512e-17,1.11022302e-16" stroke="none" fill="#FF2E76"></polygon></g></g></g><g transform="translate(183.8190196117121 512.0)"><g transform="translate(5.17432799999915 6.0)"><path d="M215,0 L161,0 L69,0 C55.6666667,0 49,6.66666667 49,20 L49,364 C49,377.333333 42.3333333,384 29,384 L0,384" stroke="#FF2E76" stroke-width="4" fill="none" stroke-miterlimit="10"></path></g><g transform="translate(216.17432799999915 12.0) rotate(-90.00000000000001)"><g clip-path="url(#i3)"><polygon points="0,0 12,0 12,12 0,12 0,0" stroke="none" fill="#FF2E76"></polygon></g></g><g transform="translate(1.2434497875801753e-13 403.99999991807135) rotate(-90.00000000000001)"><g clip-path="url(#i5)"><polygon points="-5.55111512e-17,1.11022302e-16 27.9933475,1.11022302e-16 27.9933475,18.1743477 -5.55111512e-17,18.1743477 -5.55111512e-17,1.11022302e-16" stroke="none" fill="#FF2E76"></polygon></g></g></g><g transform="translate(0.0 712.0)"><g transform="translate(12.993347611711215 8.0)"><path d="M1,0 L1,54 L1,54 L1,103" stroke="#FF2E76" stroke-width="4" fill="none" stroke-miterlimit="10"></path></g><g transform="translate(19.993347611711215 12.0) rotate(180.0)"><g clip-path="url(#i9)"><polygon points="0,0 12,0 12,12 0,12 0,0" stroke="none" fill="#FF2E76"></polygon></g></g><g transform="translate(27.993347529783627 116.17432799999996) rotate(179.99999999999997)"><g clip-path="url(#i7)"><polygon points="1.11022302e-16,1.11022302e-16 27.9933475,1.11022302e-16 27.9933475,18.1743477 1.11022302e-16,18.1743477 1.11022302e-16,1.11022302e-16" stroke="none" fill="#FF2E76"></polygon></g></g></g><g transform="translate(0.0 968.0)"><g transform="translate(12.993347611711215 8.0)"><path d="M1,0 L1,54 L1,54 L1,103" stroke="#FF2E76" stroke-width="4" fill="none" stroke-miterlimit="10"></path></g><g transform="translate(19.993347611711215 12.0) rotate(180.0)"><g clip-path="url(#i9)"><polygon points="0,0 12,0 12,12 0,12 0,0" stroke="none" fill="#FF2E76"></polygon></g></g><g transform="translate(27.993347529783627 116.17432799999996) rotate(179.99999999999997)"><g clip-path="url(#i7)"><polygon points="1.11022302e-16,1.11022302e-16 27.9933475,1.11022302e-16 27.9933475,18.1743477 1.11022302e-16,18.1743477 1.11022302e-16,1.11022302e-16" stroke="none" fill="#FF2E76"></polygon></g></g></g></g></g></g><g transform="translate(281.93646560514026 167.1544434857642)"><g transform="translate(632.206342981146 1523.0812317005893)"><text transform="translate(0.0 204.0)" font-family="DMSans-Bold, DM Sans" font-size="205.5737704918033" font-weight="bold" fill="#F1E0EF" text-anchor="left">3</text></g><g transform="translate(831.3805527230943 0.0)"><text transform="translate(0.0 204.0)" font-family="DMSans-Bold, DM Sans" font-size="205.5737704918033" font-weight="bold" fill="#D8D8D8" text-anchor="left">1</text></g><g transform="translate(0.0 144.95233313059543)"><text transform="translate(0.0 204.0)" font-family="DMSans-Bold, DM Sans" font-size="205.5737704918033" font-weight="bold" fill="#F4D9E2" text-anchor="left">2</text></g><g transform="translate(684.135435458993 1670.2391547263742)"><text transform="translate(0.0 39.0)"><tspan x="0px" y="0px" font-family="DMSans-Bold, DM Sans" font-size="38.950819672131146" font-weight="bold" fill="#A4329A" text-anchor="left">As a new user, I need to be able to create a profile, so </tspan><tspan x="0px" y="51px" font-family="DMSans-Bold, DM Sans" font-size="38.950819672131146" font-weight="bold" fill="#A4329A" text-anchor="left">that the financial advice I receive is personalized to </tspan><tspan x="0px" y="102px" font-family="DMSans-Bold, DM Sans" font-size="38.950819672131146" font-weight="bold" fill="#A4329A" text-anchor="left">me, my spending habits, and tailored to my goals.</tspan></text></g><g transform="translate(60.591000601358246 281.2520686289772)"><text transform="translate(0.0 39.0)"><tspan x="0px" y="0px" font-family="DMSans-Bold, DM Sans" font-size="38.950819672131146" font-weight="bold" fill="#B70441" text-anchor="left">As a user, I need to be able </tspan><tspan x="0px" y="51px" font-family="DMSans-Bold, DM Sans" font-size="38.950819672131146" font-weight="bold" fill="#B70441" text-anchor="left">to tell the tool what my </tspan><tspan x="0px" y="102px" font-family="DMSans-Bold, DM Sans" font-size="38.950819672131146" font-weight="bold" fill="#B70441" text-anchor="left">savings goal is and how long </tspan><tspan x="0px" y="153px" font-family="DMSans-Bold, DM Sans" font-size="38.950819672131146" font-weight="bold" fill="#B70441" text-anchor="left">I have to reach it, so that I </tspan><tspan x="0px" y="204px" font-family="DMSans-Bold, DM Sans" font-size="38.950819672131146" font-weight="bold" fill="#B70441" text-anchor="left">can save accordingly.</tspan></text></g><g transform="translate(831.3612048003779 134.1473005275875)"><text transform="translate(0.0 39.0)"><tspan x="0px" y="0px" font-family="DMSans-Bold, DM Sans" font-size="38.950819672131146" font-weight="bold" fill="#111111" text-anchor="left">As a user, I want to see a dashboard of my </tspan><tspan x="0px" y="51px" font-family="DMSans-Bold, DM Sans" font-size="38.950819672131146" font-weight="bold" fill="#111111" text-anchor="left">finances clearly and visually, so that I can see </tspan><tspan x="0px" y="102px" font-family="DMSans-Bold, DM Sans" font-size="38.950819672131146" font-weight="bold" fill="#111111" text-anchor="left">how much I am spending on what at a glance.</tspan></text></g></g></g></svg>