<?xml version="1.0" standalone="no"?>
<!DOCTYPE svg PUBLIC "-//W3C//DTD SVG 20010904//EN"
 "http://www.w3.org/TR/2001/REC-SVG-20010904/DTD/svg10.dtd">
<svg version="1.0" xmlns="http://www.w3.org/2000/svg"
 width="1176.000000pt" height="1176.000000pt" viewBox="0 0 1176.000000 1176.000000"
 preserveAspectRatio="xMidYMid meet">
<metadata>
Created by potrace 1.14, written by Peter Selinger 2001-2017
</metadata>
<g transform="translate(0.000000,1176.000000) scale(0.100000,-0.100000)"
fill="#000000" stroke="none">
<path d="M7697 10632 c-24 -2 -42 -10 -50 -23 -15 -24 -22 -24 -47 1 -22 22
-79 27 -112 9 -14 -8 -23 -8 -31 0 -13 13 -50 15 -61 4 -4 -5 -42 -8 -84 -9
-43 -1 -108 -4 -147 -8 -38 -4 -102 -9 -141 -11 -68 -3 -124 -24 -124 -46 0
-16 -73 -10 -92 8 -16 15 -25 15 -91 2 -39 -7 -81 -14 -92 -14 -11 -1 -33 -4
-50 -8 -16 -4 -43 -9 -59 -11 -16 -3 -36 -12 -46 -21 -11 -10 -27 -13 -48 -9
-33 7 -109 -14 -174 -48 -20 -10 -61 -20 -90 -22 -32 -1 -76 -13 -110 -30 -32
-15 -66 -26 -75 -26 -37 4 -52 -1 -58 -19 -4 -13 -19 -21 -53 -26 -26 -3 -65
-18 -87 -33 -25 -16 -55 -27 -78 -27 -48 -1 -61 -16 -59 -65 3 -38 2 -40 -28
-40 -26 0 -30 4 -30 26 0 16 -5 24 -12 22 -8 -3 -11 -20 -10 -45 3 -42 -15
-73 -44 -73 -8 0 -14 -7 -14 -16 0 -9 -11 -27 -25 -40 -27 -24 -33 -62 -12
-68 6 -3 24 -7 39 -10 39 -9 58 -33 58 -72 0 -19 -2 -34 -5 -34 -18 0 -58 38
-80 76 -29 49 -56 68 -85 59 -27 -9 -26 -45 0 -45 11 0 22 1 24 3 2 1 13 -7
25 -17 25 -23 28 -72 5 -104 -15 -22 -44 -30 -44 -13 0 16 -90 -33 -90 -49 -1
-20 -47 -53 -65 -46 -8 3 -14 2 -14 -2 3 -20 -2 -32 -15 -32 -30 0 -21 -25 13
-38 62 -23 91 -25 97 -8 5 12 20 16 58 16 29 0 57 5 64 12 7 7 39 13 72 14 47
2 58 0 53 -12 -3 -8 -10 -14 -17 -14 -6 0 -32 -11 -57 -24 -26 -12 -61 -26
-79 -29 -36 -8 -99 -36 -117 -53 -6 -6 -26 -17 -45 -25 -18 -7 -38 -18 -44
-24 -17 -17 -25 -62 -14 -89 8 -23 7 -26 -10 -26 -11 0 -28 9 -37 20 -33 38
-62 14 -39 -31 16 -33 41 -34 159 -5 120 29 144 32 175 22 33 -11 19 -23 -42
-36 -30 -6 -60 -18 -66 -26 -7 -7 -21 -14 -31 -14 -12 0 -19 -7 -19 -19 0 -17
-4 -18 -30 -11 -16 5 -39 6 -50 3 -19 -5 -21 -11 -15 -40 7 -40 -12 -53 -47
-29 -35 25 -44 20 -40 -23 3 -31 0 -42 -18 -54 -12 -9 -29 -13 -36 -10 -9 3
-14 -2 -14 -16 0 -27 10 -26 44 0 23 18 31 20 52 10 31 -14 26 -15 60 14 25
22 31 23 49 11 13 -9 19 -24 18 -40 -1 -20 4 -27 23 -32 13 -3 24 -10 24 -14
0 -8 -43 -27 -74 -32 -10 -2 -23 -10 -29 -19 -8 -13 -3 -23 24 -47 l34 -31
-27 -26 c-16 -14 -28 -33 -28 -42 0 -20 36 -52 67 -59 13 -4 23 -10 23 -14 0
-5 23 -27 51 -49 56 -44 111 -55 133 -26 17 23 75 9 88 -21 6 -13 16 -25 22
-25 26 -3 52 4 68 18 10 9 25 12 38 8 13 -4 32 -3 44 3 11 5 42 17 68 26 25
10 49 24 52 32 5 12 15 14 44 9 50 -8 165 12 189 33 11 11 36 17 68 17 28 0
70 4 95 8 162 26 200 35 225 55 33 26 53 27 84 6 24 -17 73 -16 241 7 41 5
102 12 135 15 33 2 85 7 115 9 84 7 86 7 235 1 161 -5 367 -23 440 -37 28 -5
64 -11 80 -14 71 -11 208 -51 304 -89 36 -14 74 -26 86 -26 12 0 30 -9 42 -19
11 -11 39 -29 61 -40 69 -35 79 -82 37 -177 -14 -31 -25 -62 -25 -68 0 -7 -25
-38 -55 -70 -30 -31 -64 -75 -75 -97 -14 -26 -27 -39 -40 -39 -12 0 -48 -28
-83 -63 -34 -35 -77 -72 -94 -82 -18 -11 -34 -24 -34 -30 -1 -5 -2 -21 -3 -35
-1 -21 -5 -25 -29 -22 -34 4 -77 -22 -77 -46 -1 -9 -6 -27 -14 -40 -11 -21
-14 -22 -25 -8 -12 14 -17 13 -51 -4 -21 -11 -46 -30 -57 -42 -10 -13 -31 -27
-47 -33 -16 -5 -37 -23 -46 -40 -9 -16 -25 -31 -36 -31 -30 -3 -74 -22 -74
-34 0 -5 -8 -10 -17 -10 -16 0 -50 -23 -93 -63 -8 -8 -35 -24 -60 -36 -25 -12
-61 -30 -80 -41 -19 -10 -86 -44 -149 -75 -62 -31 -121 -60 -130 -65 -9 -5
-52 -24 -96 -41 -44 -18 -89 -40 -100 -50 -11 -10 -41 -23 -68 -28 -26 -6 -71
-23 -100 -37 -28 -14 -63 -27 -77 -30 -14 -2 -41 -10 -60 -18 -121 -46 -215
-74 -294 -87 -32 -5 -102 -21 -155 -34 -53 -13 -121 -26 -151 -29 -30 -3 -93
-9 -140 -15 -257 -30 -320 -26 -347 19 l-17 29 -20 -23 c-17 -19 -30 -23 -66
-22 -44 1 -45 2 -43 31 1 17 5 46 9 67 8 49 -23 83 -68 74 -35 -7 -71 -43 -64
-63 3 -8 -2 -17 -12 -20 -9 -3 -25 -12 -34 -20 -9 -8 -27 -13 -40 -11 -20 3
-23 7 -19 43 1 22 8 48 13 59 7 12 6 22 -1 29 -16 16 -46 -4 -46 -30 0 -11 -6
-28 -14 -37 -19 -23 -149 -16 -189 11 -41 27 -95 52 -115 53 -10 0 -26 4 -36
10 -10 5 -30 11 -45 14 -16 3 -40 13 -55 22 -14 10 -55 32 -91 50 -36 18 -75
42 -87 54 -36 33 -135 100 -149 100 -7 0 -19 8 -26 18 -45 61 -114 80 -142 38
-20 -32 -33 -29 -82 21 -33 33 -46 40 -67 36 -19 -4 -29 -13 -33 -32 -11 -53
-12 -53 -52 -46 -29 5 -42 2 -52 -10 -11 -13 -9 -20 16 -46 16 -17 48 -42 72
-56 23 -14 42 -32 42 -40 0 -8 9 -28 21 -44 25 -36 17 -37 -23 -4 -16 14 -35
25 -42 25 -7 0 -31 16 -54 36 -33 28 -48 35 -67 30 -14 -4 -25 -3 -25 2 0 16
-57 72 -72 72 -27 0 -41 -27 -31 -57 12 -35 7 -53 -17 -53 -29 0 -50 -11 -50
-25 0 -7 19 -31 41 -52 23 -21 47 -44 53 -51 6 -7 25 -28 42 -46 l32 -34 -32
-5 c-38 -6 -77 13 -133 64 -45 41 -57 45 -97 29 -37 -14 -35 -54 5 -91 17 -16
34 -29 36 -29 3 0 31 -26 62 -58 31 -33 63 -61 71 -64 12 -4 13 -8 3 -19 -10
-10 -16 -10 -25 -1 -7 7 -21 12 -31 12 -11 0 -39 20 -62 45 -28 31 -47 44 -58
39 -49 -18 -23 -109 48 -170 29 -24 56 -44 61 -44 13 0 37 -41 29 -48 -4 -4
-19 7 -33 25 -15 17 -46 41 -69 52 -23 11 -46 27 -50 35 -8 14 -113 66 -133
66 -6 0 -20 -20 -32 -44 l-21 -44 31 -31 c17 -17 35 -31 40 -31 5 0 16 -7 23
-16 11 -14 10 -19 -11 -35 -46 -35 -49 -39 -43 -56 9 -22 54 -62 71 -63 18 0
82 -61 82 -77 0 -20 -8 -16 -42 23 -30 34 -35 36 -80 32 -35 -4 -56 0 -78 13
-17 11 -36 19 -44 19 -15 0 -46 -32 -46 -48 0 -18 60 -82 94 -99 38 -19 46
-30 46 -65 0 -35 -9 -35 -44 -3 -35 32 -106 36 -106 6 0 -11 5 -23 10 -26 20
-12 10 -45 -17 -58 -34 -14 -43 -26 -35 -46 9 -25 65 -72 79 -67 7 3 19 -5 28
-17 14 -21 14 -22 -7 -27 -30 -8 -35 -36 -10 -63 31 -36 33 -43 12 -67 -11
-13 -20 -29 -20 -35 0 -16 71 -85 87 -85 7 0 25 -16 40 -36 15 -19 109 -106
208 -193 99 -87 197 -176 217 -197 63 -65 102 -101 123 -112 36 -19 58 -182
27 -201 -12 -7 -86 -165 -107 -229 -9 -25 -20 -51 -24 -57 -6 -8 -35 -73 -137
-312 -8 -17 -14 -40 -14 -51 0 -11 -7 -25 -15 -32 -8 -7 -15 -25 -15 -40 0
-15 -8 -38 -19 -51 -24 -31 -81 -165 -74 -173 6 -5 -14 -53 -39 -96 -4 -8 -13
-26 -19 -40 -6 -14 -20 -41 -29 -60 -10 -19 -21 -52 -25 -72 -4 -21 -13 -42
-20 -48 -8 -6 -17 -26 -21 -43 -3 -18 -15 -43 -25 -56 -11 -13 -19 -32 -19
-42 0 -10 -8 -38 -19 -61 -18 -41 -40 -102 -45 -123 -4 -21 -38 -112 -56 -150
-30 -67 -48 -118 -55 -157 -8 -49 -81 -207 -112 -239 -15 -16 -24 -38 -24 -55
1 -16 1 -36 2 -44 0 -30 -34 -155 -45 -163 -6 -4 -27 -5 -46 -3 -34 5 -36 4
-54 -39 -14 -36 -16 -48 -6 -60 8 -10 9 -25 4 -42 -11 -41 -12 -115 -1 -137 7
-14 4 -24 -12 -39 -19 -19 -22 -20 -38 -5 -14 13 -23 14 -36 6 -15 -8 -18 -20
-16 -56 2 -26 -1 -84 -5 -130 -8 -72 -12 -85 -32 -99 -13 -8 -24 -25 -24 -37
0 -29 10 -39 27 -25 22 19 16 -8 -7 -31 -22 -22 -23 -39 -10 -115 5 -30 4 -72
-2 -105 -10 -53 -5 -87 23 -157 6 -18 4 -25 -10 -33 -39 -20 -45 -110 -7 -110
8 0 28 12 45 26 17 14 31 22 32 17 4 -29 -5 -82 -17 -105 -20 -38 -17 -66 6
-80 24 -15 25 -25 4 -67 -14 -29 -14 -34 0 -56 26 -39 61 -33 86 15 11 21 20
49 20 60 0 12 8 35 17 53 9 18 20 46 24 62 5 18 7 -12 4 -76 -2 -58 1 -112 5
-120 6 -9 4 -22 -5 -36 -22 -32 -18 -66 8 -91 44 -41 102 -21 114 39 4 21 12
29 32 31 19 2 31 13 44 41 38 77 52 16 17 -74 -23 -56 -19 -85 10 -94 28 -9
60 12 75 48 12 28 18 32 51 32 31 0 41 5 53 27 12 20 13 32 6 44 -8 13 -3 24
23 50 28 28 33 39 28 60 -5 18 -2 32 10 45 28 31 36 22 28 -28 -6 -42 -8 -98
-5 -147 2 -24 28 -26 55 -5 20 16 26 29 26 60 0 33 4 40 24 45 33 8 50 54 30
83 -18 25 -21 23 39 25 63 2 92 30 91 88 -1 29 4 47 17 57 10 9 20 30 22 47 8
51 25 76 45 65 20 -11 52 3 52 22 0 7 9 28 19 48 11 20 23 54 27 75 3 22 13
47 22 56 9 12 13 28 9 47 -4 17 -2 33 3 36 18 11 50 83 50 112 0 16 7 39 17
52 16 24 25 55 44 160 5 29 14 62 20 73 12 22 38 132 48 203 4 28 15 64 24 82
9 18 17 40 17 50 0 10 9 50 21 88 11 39 28 95 36 125 9 30 24 76 34 102 11 26
19 53 19 60 0 7 11 36 25 63 13 28 25 60 25 71 0 19 10 44 66 171 8 17 14 37
14 43 0 7 11 38 24 69 13 31 34 83 46 116 13 33 26 69 30 80 4 11 24 55 44 98
20 42 36 84 36 93 0 9 11 38 25 66 14 27 25 61 25 75 0 14 9 33 19 42 11 10
26 35 34 57 14 39 89 228 107 272 9 21 16 16 115 -85 58 -59 105 -111 105
-115 0 -15 83 -118 100 -123 10 -3 21 -18 25 -33 8 -31 42 -72 62 -72 7 0 13
-6 13 -14 0 -17 56 -123 84 -158 11 -15 32 -43 46 -62 14 -20 33 -38 43 -41 9
-4 17 -16 17 -28 0 -11 11 -37 23 -56 52 -78 127 -202 127 -209 0 -4 13 -23
28 -42 16 -19 32 -47 35 -62 4 -14 18 -39 31 -55 14 -16 28 -41 31 -56 4 -15
11 -30 16 -33 5 -3 9 -12 9 -20 0 -8 11 -32 25 -54 14 -22 25 -45 25 -53 0 -7
14 -39 31 -72 36 -68 99 -214 99 -230 1 -5 9 -28 20 -50 11 -22 19 -46 20 -53
0 -8 6 -28 14 -45 7 -18 21 -59 31 -92 9 -33 23 -73 30 -90 14 -34 54 -193 61
-244 3 -18 11 -45 18 -60 8 -14 19 -55 25 -91 22 -130 40 -192 58 -206 17 -13
17 -14 -4 -31 -20 -17 -27 -33 -24 -59 0 -5 16 -27 35 -47 26 -28 34 -46 33
-72 -1 -23 7 -43 22 -59 22 -23 23 -28 10 -58 -18 -43 -15 -54 32 -100 43 -43
67 -46 85 -10 6 13 17 29 23 35 18 18 26 -21 7 -42 -24 -27 -20 -44 25 -95 38
-43 45 -47 83 -44 40 3 41 4 44 41 3 32 6 38 24 35 14 -2 22 -11 23 -24 2 -28
67 -94 92 -94 25 0 53 30 53 58 0 23 5 25 56 22 44 -2 61 22 39 56 -20 30 -19
32 20 34 43 3 72 -9 78 -31 7 -28 35 -34 58 -13 16 14 19 26 14 51 -5 30 -3
34 30 47 35 15 46 41 25 62 -5 5 -6 14 -2 19 11 16 50 35 70 35 32 0 62 29 62
60 0 16 8 36 17 45 12 13 17 36 17 93 1 66 4 77 19 80 10 2 27 -4 37 -13 23
-21 50 -13 50 14 0 11 6 26 13 33 22 21 35 51 31 73 -1 10 1 24 6 30 5 7 10
38 12 71 1 52 5 62 34 90 25 23 31 36 27 53 -4 15 1 29 16 43 19 17 22 29 20
88 -2 49 2 74 14 91 10 13 17 40 17 60 0 20 7 42 15 49 18 15 21 140 4 171 -7
14 -7 30 2 56 15 47 19 107 9 142 -5 17 -3 39 5 57 8 19 11 57 8 101 -2 40 0
80 5 90 12 22 26 265 17 293 -4 11 -13 20 -21 20 -8 0 -14 7 -14 15 0 8 9 15
20 15 23 0 43 32 34 54 -6 14 -10 14 -41 -5 -19 -12 -36 -19 -38 -17 -3 3 -9
29 -15 58 -8 44 -7 56 5 70 18 20 20 46 4 56 -8 4 -10 26 -6 63 6 57 -6 91
-32 91 -15 0 -32 -44 -37 -100 -2 -25 -6 -56 -8 -70 -2 -14 -10 -60 -17 -102
-8 -43 -16 -78 -20 -78 -3 0 -14 9 -24 20 -16 18 -17 35 -13 172 3 84 2 162
-2 173 -5 13 -2 26 8 37 13 16 13 20 -2 43 -29 44 -102 27 -94 -22 2 -14 -5
-19 -37 -21 -22 -2 -48 -11 -58 -19 -26 -24 -31 -9 -13 43 20 60 20 60 -4 84
-12 12 -33 20 -55 20 -34 0 -37 3 -65 64 -17 35 -30 71 -30 80 0 8 -4 18 -10
21 -5 3 -10 15 -10 27 0 11 -6 32 -13 46 -8 15 -22 45 -32 67 -11 22 -29 54
-42 72 -13 17 -23 36 -23 42 0 13 -59 129 -76 151 -6 8 -15 26 -19 40 -4 14
-16 34 -26 46 -11 11 -42 65 -70 120 -28 54 -69 122 -90 151 -21 29 -39 57
-39 62 0 5 -11 18 -25 29 -14 11 -25 29 -25 40 0 10 -16 40 -35 65 -19 25 -35
50 -35 55 0 5 -10 22 -22 37 -12 16 -29 42 -38 59 -8 17 -25 35 -37 41 -15 6
-23 18 -23 35 0 14 -7 36 -16 48 -9 13 -14 25 -13 27 11 9 84 35 101 35 10 0
38 10 61 21 23 12 97 41 165 64 68 24 140 54 160 68 20 14 55 29 77 33 22 4
58 17 81 30 22 13 47 24 55 24 8 0 30 10 49 23 19 12 53 29 75 36 56 19 206
91 228 109 10 9 29 18 43 19 31 5 93 37 122 63 12 11 28 20 35 20 18 0 38 23
41 47 3 19 36 32 36 14 0 -18 39 -12 61 10 13 13 18 27 14 40 -5 15 1 22 27
33 22 10 35 11 39 4 8 -12 75 7 86 25 5 7 22 20 38 29 17 9 37 29 46 45 12 21
22 27 41 25 32 -4 60 31 52 65 -4 14 -2 23 5 23 6 0 11 -9 11 -19 0 -43 31
-35 92 22 18 17 26 32 21 42 -8 22 13 35 57 35 39 0 65 28 55 59 -9 28 18 45
45 29 19 -12 24 -10 46 15 13 15 25 40 25 55 2 24 2 24 6 5 2 -13 8 -23 13
-23 13 0 124 98 133 118 4 10 25 28 45 42 38 25 112 98 139 137 8 12 23 25 33
28 10 3 23 19 30 34 6 16 22 39 36 52 13 12 24 28 24 35 0 6 6 14 14 17 8 3
22 22 31 41 10 20 23 36 29 36 19 0 54 42 67 78 6 18 17 32 25 32 17 0 41 37
48 74 6 34 12 41 56 65 22 11 38 31 49 58 9 23 23 49 32 60 9 10 25 43 36 73
12 32 29 59 41 64 18 9 83 128 167 309 15 31 31 57 36 57 5 0 9 8 9 19 0 10 7
24 15 31 8 7 15 22 15 34 0 11 12 44 25 71 14 28 25 58 25 67 0 9 5 20 10 23
8 5 8 11 0 19 -7 10 -5 20 10 39 40 50 90 188 90 247 0 24 12 54 35 90 19 30
35 67 35 82 0 14 4 37 9 51 5 13 6 29 1 36 -8 15 14 102 37 144 9 17 13 40 10
57 -4 19 -1 33 9 41 23 19 14 55 -14 52 -26 -3 -30 15 -4 24 24 9 32 23 32 57
0 25 -3 27 -25 22 -32 -8 -24 17 11 33 35 16 28 47 -9 44 -25 -2 -27 1 -21 20
4 12 11 24 16 25 21 9 39 36 32 51 -3 9 -12 48 -18 86 -13 81 -21 97 -44 93
-14 -2 -18 7 -20 52 -2 30 -7 59 -13 66 -5 6 -9 22 -8 35 1 55 -20 114 -49
139 -24 20 -29 31 -25 57 4 24 0 34 -16 42 -12 7 -21 18 -21 25 0 13 -101 106
-114 106 -4 0 -35 27 -69 61 -34 34 -82 70 -107 80 -25 11 -61 28 -80 38 -19
11 -53 23 -75 27 -21 4 -51 18 -65 31 -14 13 -50 31 -80 39 -30 9 -71 22 -90
29 -19 7 -69 23 -110 35 -41 12 -94 28 -118 36 -23 8 -68 17 -100 20 -31 4
-68 13 -82 20 -14 7 -55 15 -90 18 -92 9 -140 16 -175 26 -16 5 -82 12 -145
15 -63 3 -142 9 -175 13 -33 4 -77 6 -98 4z m-1927 -532 c0 -5 -4 -10 -9 -10
-6 0 -13 5 -16 10 -3 6 1 10 9 10 9 0 16 -4 16 -10z m-170 -15 c0 -8 -4 -15
-10 -15 -5 0 -10 7 -10 15 0 8 5 15 10 15 6 0 10 -7 10 -15z m53 -129 c3 -8
-1 -17 -9 -20 -23 -9 -24 -8 -24 14 0 23 25 27 33 6z m-353 -491 c0 -14 -4
-25 -10 -25 -5 0 -10 11 -10 25 0 14 5 25 10 25 6 0 10 -11 10 -25z m50 -501
c0 -20 -7 -17 -20 6 -9 16 -8 18 5 14 8 -4 15 -12 15 -20z m2365 -2494 c-3 -5
-11 -10 -16 -10 -6 0 -7 5 -4 10 3 6 11 10 16 10 6 0 7 -4 4 -10z"/>
<path d="M5190 9070 c-8 -5 -11 -12 -7 -16 4 -4 13 -2 19 4 15 15 7 24 -12 12z"/>
<path d="M5120 8952 c0 -11 51 -35 58 -28 2 3 2 12 -1 21 -7 15 -57 22 -57 7z"/>
<path d="M5150 8850 c-20 -15 -23 -23 -14 -36 16 -27 29 -27 42 1 14 29 16 55
5 55 -5 0 -19 -9 -33 -20z"/>
<path d="M5283 8722 c-20 -12 13 -52 43 -52 31 0 30 11 -1 38 -29 25 -26 24
-42 14z"/>
<path d="M5513 8702 c-6 -4 -14 -19 -18 -35 -9 -33 20 -51 40 -24 24 34 8 78
-22 59z"/>
<path d="M5000 7320 c0 -19 3 -21 12 -12 9 9 9 15 0 24 -9 9 -12 7 -12 -12z"/>
<path d="M5367 7163 c-4 -3 -7 -11 -7 -17 0 -6 5 -5 12 2 6 6 9 14 7 17 -3 3
-9 2 -12 -2z"/>
</g>
</svg>
