<?xml version="1.0" encoding="UTF-8"?>
<svg width="50px" height="50px" viewBox="0 0 50 50" version="1.1" xmlns="http://www.w3.org/2000/svg" xmlns:xlink="http://www.w3.org/1999/xlink">
    <title>Behance Icon</title>
    <g id="Page-1" stroke="none" stroke-width="1" fill="none" fill-rule="evenodd">
        <g id="Artboard" transform="translate(-1561.000000, -2551.000000)">
            <g id="Behance-Icon" transform="translate(1561.766000, 2551.914000)">
                <path d="M48.977,24.489 C48.977,38.013 38.013,48.977 24.488,48.977 C10.964,48.977 0,38.013 0,24.489 C0,10.964 10.964,-9.09494702e-13 24.488,-9.09494702e-13 C38.013,-9.09494702e-13 48.977,10.964 48.977,24.489" id="Fill-28-Copy" fill="#0A0B09"></path>
                <path d="M22.397,28.242 C22.397,27.927 22.343,27.624 22.235,27.334 C22.127,27.045 21.982,26.792 21.8,26.577 C21.618,26.362 21.402,26.192 21.153,26.067 C20.905,25.943 20.632,25.881 20.334,25.881 L15.064,25.881 L15.064,30.529 L20.16,30.529 C20.475,30.529 20.769,30.47 21.042,30.354 C21.315,30.239 21.552,30.077 21.751,29.87 C21.949,29.663 22.106,29.418 22.223,29.136 C22.339,28.855 22.397,28.557 22.397,28.242 Z M15.064,18.723 L15.064,23.172 L19.638,23.172 C20.218,23.172 20.711,22.973 21.116,22.576 C21.522,22.178 21.726,21.631 21.726,20.935 C21.726,20.255 21.539,19.717 21.166,19.32 C20.794,18.922 20.334,18.723 19.787,18.723 L15.064,18.723 Z M25.852,28.888 C25.852,29.633 25.702,30.288 25.404,30.852 C25.106,31.414 24.695,31.887 24.174,32.268 C23.651,32.65 23.047,32.939 22.359,33.138 C21.672,33.337 20.939,33.436 20.16,33.436 L11.635,33.436 L11.635,15.79 L21.079,15.79 C21.692,15.79 22.247,15.923 22.744,16.188 C23.241,16.454 23.664,16.796 24.012,17.219 C24.36,17.642 24.629,18.122 24.819,18.661 C25.01,19.2 25.106,19.742 25.106,20.288 C25.106,21.15 24.89,21.958 24.459,22.712 C24.028,23.466 23.398,24.025 22.57,24.389 C23.581,24.688 24.38,25.222 24.969,25.993 C25.557,26.763 25.852,27.729 25.852,28.888 L25.852,28.888 Z" id="Fill-29-Copy-2" fill="#FFFFFE"></path>
                <path d="M36.556,25.827 C36.476,24.879 36.126,24.121 35.508,23.551 C34.89,22.981 34.14,22.696 33.257,22.696 C32.823,22.696 32.418,22.772 32.04,22.924 C31.663,23.078 31.33,23.289 31.041,23.563 C30.752,23.836 30.515,24.164 30.33,24.55 C30.146,24.935 30.037,25.361 30.006,25.827 L36.556,25.827 Z M33.28,33.436 C32.269,33.436 31.354,33.263 30.535,32.918 C28.913,32.228 27.769,31.068 27.104,29.439 C26.79,28.652 26.634,27.826 26.634,26.958 C26.634,26.059 26.786,25.212 27.092,24.417 C27.745,22.767 28.889,21.591 30.523,20.889 C31.35,20.537 32.277,20.36 33.305,20.36 C34.332,20.36 35.251,20.537 36.062,20.889 C38.728,22.051 39.982,24.634 39.867,27.44 C39.858,27.632 39.839,27.793 39.807,27.921 L30.054,27.921 C30.102,28.419 30.222,28.861 30.415,29.246 C30.607,29.631 30.856,29.96 31.161,30.234 C31.466,30.506 31.812,30.715 32.197,30.86 C32.582,31.004 32.983,31.077 33.401,31.077 C34.043,31.077 34.648,30.919 35.219,30.607 C35.789,30.293 36.178,29.88 36.387,29.367 L39.156,30.137 C38.69,31.1 37.948,31.891 36.929,32.509 C35.909,33.127 34.693,33.436 33.28,33.436 L33.28,33.436 Z" id="Fill-30-Copy-2" fill="#FFFFFE"></path>
                <polygon id="Fill-31-Copy" fill="#FFFFFE" points="29.034 18.723 37.479 18.723 37.479 16.628 29.034 16.628"></polygon>
            </g>
        </g>
    </g>
</svg>