<?xml version="1.0" encoding="UTF-8"?>
<svg width="48px" height="48px" viewBox="0 0 48 48" version="1.1" xmlns="http://www.w3.org/2000/svg" xmlns:xlink="http://www.w3.org/1999/xlink">
    <title>Mail Icon Copy 3</title>
    <g id="Assorted-Images" stroke="none" stroke-width="1" fill="none" fill-rule="evenodd">
        <g id="Artboard" transform="translate(-2331.000000, -520.000000)" fill="#1B1A19">
            <g id="Mail-Icon-Copy-3" transform="translate(2331.000000, 520.000000)">
                <polyline id="Fill-29-Copy" points="7.83673469 14.6938776 7.83673469 33.3061224 17.6326531 24.0012134 7.83673469 14.6938776"></polyline>
                <polyline id="Fill-30-Copy" points="40.1632653 33.3061224 40.1632653 14.6938776 30.3673469 24.0020223 40.1632653 33.3061224"></polyline>
                <path d="M29.2095231,23.3665451 C29.2103233,23.3665451 29.2111235,23.3657319 29.2111235,23.3657319 L39.1836735,13.7142857 L8.81632653,13.7142857 L24.0012003,28.4081633 L29.2095231,23.3665451" id="Fill-31-Copy"></path>
                <path d="M29.5399944,24.4897959 L24.3308713,29.2529481 C24.1468317,29.4219904 23.8555689,29.4219904 23.670729,29.2529481 L18.4600056,24.4897959 L8.81632653,33.3061224 L39.1836735,33.3061224 L29.5399944,24.4897959" id="Fill-32-Copy"></path>
                <path d="M40.9043408,33.4485742 C40.9043408,33.4562558 40.9019339,33.4631692 40.9019339,33.4708508 C40.9011316,33.481605 40.899527,33.491591 40.8987247,33.5023452 C40.8939108,33.5392168 40.8858876,33.5753202 40.8722483,33.6091192 C40.871446,33.6121918 40.871446,33.6160326 40.8698414,33.6191052 C40.8698414,33.6198734 40.8690391,33.6206415 40.8682367,33.6221779 C40.8521905,33.6598176 40.8297257,33.6943847 40.8040517,33.7258792 C40.7984355,33.7335608 40.792017,33.7412423 40.7855985,33.7481558 C40.7583198,33.7781139 40.7286342,33.8057676 40.6941348,33.8280442 C40.6933324,33.8288123 40.6933324,33.8288123 40.6933324,33.8288123 C40.658833,33.8510889 40.6203219,33.8679884 40.5802063,33.8810471 C40.5705785,33.8841197 40.5609507,33.8871923 40.5521253,33.8894968 C40.5112073,33.900251 40.4686847,33.9079326 40.4245575,33.9079326 L7.57544253,33.9079326 C7.53131529,33.9079326 7.48879269,33.900251 7.44787471,33.8894968 C7.43824695,33.8871923 7.4294215,33.8841197 7.41979374,33.8810471 C7.37967807,33.8679884 7.34116703,33.8510889 7.30666756,33.8288123 C7.30666756,33.8288123 7.30586524,33.8288123 7.30586524,33.8280442 C7.27136577,33.8057676 7.24168018,33.7781139 7.21440152,33.7481558 C7.20798302,33.7412423 7.20156451,33.7335608 7.195146,33.7258792 C7.16947198,33.6943847 7.14780952,33.6598176 7.13176325,33.6221779 C7.13096094,33.6206415 7.13015862,33.6198734 7.12935631,33.6191052 C7.128554,33.6160326 7.128554,33.6121918 7.12694937,33.6091192 C7.11411236,33.5753202 7.10608922,33.5392168 7.10127534,33.5023452 C7.09967072,33.491591 7.09806609,33.481605 7.09806609,33.4708508 C7.09726378,33.4631692 7.09565915,33.4562558 7.09565915,33.4485742 L7.09565915,13.6301 C7.09565915,13.6239548 7.09806609,13.6178095 7.09806609,13.6116642 C7.0988684,13.5893876 7.1044846,13.5678792 7.10849616,13.5463708 C7.11331004,13.5225579 7.11732161,13.5002813 7.12534474,13.4780047 C7.12775168,13.4718595 7.12694937,13.4657142 7.12935631,13.459569 C7.13577482,13.4457421 7.14540258,13.4342197 7.1526234,13.4211611 C7.1646581,13.3996526 7.17589048,13.3789124 7.19113444,13.3597084 C7.20397145,13.3420408 7.2192154,13.3274458 7.23526167,13.3113145 C7.25211025,13.2951832 7.26895883,13.2790518 7.28821435,13.265225 C7.30666756,13.2513982 7.32672539,13.240644 7.34758554,13.2298897 C7.36122487,13.2229763 7.37245725,13.2129903 7.38609658,13.2076132 C7.39411971,13.2045405 7.40294516,13.2037724 7.41016598,13.2014679 C7.43182844,13.1937863 7.4534909,13.1891774 7.47595567,13.1845684 C7.50082739,13.1791913 7.5256991,13.1745824 7.55137313,13.1738142 C7.55939626,13.1730461 7.56741939,13.1699734 7.57544253,13.1699734 L40.4245575,13.1699734 C40.4325806,13.1699734 40.4406037,13.1730461 40.4494292,13.1738142 C40.4743009,13.1753505 40.4983703,13.1791913 40.523242,13.1845684 C40.5457068,13.1891774 40.5673692,13.1937863 40.5890317,13.2014679 C40.5970548,13.2037724 40.6058803,13.2045405 40.6131011,13.2076132 C40.6275427,13.2129903 40.6387751,13.2229763 40.6516121,13.2298897 C40.6724723,13.240644 40.6925301,13.2513982 40.7117856,13.265225 C40.7310412,13.2790518 40.7478897,13.2951832 40.7647383,13.3113145 C40.7799823,13.3274458 40.7952262,13.3420408 40.8088656,13.3597084 C40.8241095,13.3789124 40.8353419,13.3996526 40.8465743,13.4211611 C40.8537951,13.4342197 40.8642252,13.4457421 40.8698414,13.459569 C40.8722483,13.4657142 40.8722483,13.4718595 40.8746553,13.4780047 C40.8826784,13.5002813 40.88669,13.5225579 40.8915038,13.5463708 C40.8955154,13.5678792 40.9003293,13.5893876 40.9011316,13.6116642 C40.9019339,13.6178095 40.9043408,13.6239548 40.9043408,13.6301 L40.9043408,33.4485742 Z M23.9995988,0 C10.7453825,0 0,10.7453825 0,24.0004012 C0,37.2546175 10.7453825,48 23.9995988,48 C37.2546175,48 48,37.2546175 48,24.0004012 C48,10.7453825 37.2546175,0 23.9995988,0 L23.9995988,0 Z" id="Fill-28-Copy"></path>
            </g>
        </g>
    </g>
</svg>