<?xml version="1.0" encoding="UTF-8"?>
<svg width="49px" height="49px" viewBox="0 0 49 49" version="1.1" xmlns="http://www.w3.org/2000/svg" xmlns:xlink="http://www.w3.org/1999/xlink">
    <title>mail icon 3 copy</title>
    <g id="Assorted-Images" stroke="none" stroke-width="1" fill="none" fill-rule="evenodd">
        <g id="mail-icon-3-copy" transform="translate(0.000000, 0.000000)">
            <path d="M48.977,24.489 C48.977,38.013 38.013,48.977 24.488,48.977 C10.964,48.977 0,38.013 0,24.489 C0,10.964 10.964,0 24.488,0 C38.013,0 48.977,10.964 48.977,24.489" id="Fill-28-Copy-Copy" fill="#0A0B09" fill-rule="nonzero"></path>
            <path d="M38.8342661,31.3263179 L38.8331543,31.354278 C38.830772,31.4719962 38.8144136,31.5862195 38.7853497,31.6958357 L28.5270499,24.965401 L38.7211867,16.1070299 C38.7936083,16.2842586 38.8342661,16.4778345 38.8342661,16.6818954 L38.8342661,31.3263179 Z M37.318812,32.8339378 L10.6811404,32.8339378 C10.4165474,32.8339378 10.1670899,32.7651497 9.9502697,32.6461605 L20.4382223,25.7735425 L23.9983165,28.9007815 L27.6119329,25.7606745 L38.0778096,32.6263025 C37.8540331,32.7581597 37.5940459,32.8339378 37.318812,32.8339378 Z M9.16573393,31.325047 L9.16573393,16.6818954 C9.16573393,16.4393576 9.22287713,16.2119914 9.3231239,16.0090902 L19.5289816,24.974774 L9.2216701,31.7285617 C9.18552282,31.6001995 9.16573393,31.4650062 9.16573393,31.325047 Z M10.6811404,15.1660145 L37.318812,15.1660145 C37.5228948,15.1660145 37.7176073,15.2068585 37.8959614,15.2803331 L27.5141002,24.3019847 L26.5989832,25.0961461 L24.0018105,27.3534455 L10.2148786,15.2406489 C10.3617706,15.191687 10.5179377,15.1660145 10.6811404,15.1660145 Z M37.318812,14 L10.6811404,14 C9.2030406,14 8,15.2033794 8,16.6818954 L8,31.3274299 C8.00468517,32.8012118 9.20770988,34 10.6811404,34 L37.318812,34 C38.7608915,34 39.960454,32.8304428 39.9988883,31.3914522 C40,31.3669871 40,31.342522 40,31.318057 L40,16.6818954 C40,15.2033794 38.7971023,14 37.318812,14 L37.318812,14 Z" id="Fill-3" fill="#FFFFFF"></path>
        </g>
    </g>
</svg>