<?xml version="1.0" encoding="UTF-8"?>
<svg width="49px" height="49px" viewBox="0 0 49 49" version="1.1" xmlns="http://www.w3.org/2000/svg" xmlns:xlink="http://www.w3.org/1999/xlink">
    <title>LinkedIn Icon</title>
    <g id="Page-1" stroke="none" stroke-width="1" fill="none" fill-rule="evenodd">
        <g id="Artboard" transform="translate(-1646.000000, -2554.000000)">
            <g id="LinkedIn-Icon" transform="translate(1646.459000, 2554.504000)">
                <path d="M48.389,24.195 C48.389,37.557 37.556,48.389 24.195,48.389 C10.832,48.389 0,37.557 0,24.195 C0,10.833 10.832,0 24.195,0 C37.556,0 48.389,10.833 48.389,24.195" id="Fill-3-Copy" fill="#0A0B09"></path>
                <path d="M16.392,12.209 C17.89,12.209 19.104,13.425 19.104,14.92 C19.104,16.417 17.89,17.635 16.392,17.635 C14.889,17.635 13.675,16.417 13.675,14.92 C13.675,13.425 14.889,12.209 16.392,12.209 L16.392,12.209 Z M14.048,19.689 L18.734,19.689 L18.734,34.742 L14.048,34.742 L14.048,19.689 Z" id="Fill-5-Copy" fill="#FFFFFE"></path>
                <path d="M21.67,19.689 L26.158,19.689 L26.158,21.748 L26.219,21.748 C26.845,20.563 28.371,19.316 30.65,19.316 C35.387,19.316 36.26,22.432 36.26,26.486 L36.26,34.742 L31.585,34.742 L31.585,27.424 C31.585,25.677 31.551,23.431 29.153,23.431 C26.717,23.431 26.346,25.333 26.346,27.296 L26.346,34.742 L21.67,34.742 L21.67,19.689" id="Fill-6-Copy" fill="#FFFFFE"></path>
            </g>
        </g>
    </g>
</svg>